<svg xmlns="http://www.w3.org/2000/svg" xmlns:xlink="http://www.w3.org/1999/xlink" width="600" height="400" viewBox="0 0 2400 1600">
<defs>
  <clipPath id="clip710">
    <rect x="0" y="0" width="2400" height="1600"></rect>
  </clipPath>
</defs>
<path clip-path="url(#clip710)" d="M0 1600 L2400 1600 L2400 8.88178e-14 L0 8.88178e-14  Z" fill="#ffffff" fill-rule="evenodd" fill-opacity="1"></path>
<defs>
  <clipPath id="clip711">
    <rect x="480" y="0" width="1681" height="1600"></rect>
  </clipPath>
</defs>
<path clip-path="url(#clip710)" d="M219.866 1423.18 L2352.76 1423.18 L2352.76 123.472 L219.866 123.472  Z" fill="#ffffff" fill-rule="evenodd" fill-opacity="1"></path>
<defs>
  <clipPath id="clip712">
    <rect x="219" y="123" width="2134" height="1301"></rect>
  </clipPath>
</defs>
<polyline clip-path="url(#clip712)" style="stroke:#000000; stroke-linecap:round; stroke-linejoin:round; stroke-width:2; stroke-opacity:0.1; fill:none" points="280.231,1423.18 280.231,123.472 "></polyline>
<polyline clip-path="url(#clip712)" style="stroke:#000000; stroke-linecap:round; stroke-linejoin:round; stroke-width:2; stroke-opacity:0.1; fill:none" points="783.271,1423.18 783.271,123.472 "></polyline>
<polyline clip-path="url(#clip712)" style="stroke:#000000; stroke-linecap:round; stroke-linejoin:round; stroke-width:2; stroke-opacity:0.1; fill:none" points="1286.31,1423.18 1286.31,123.472 "></polyline>
<polyline clip-path="url(#clip712)" style="stroke:#000000; stroke-linecap:round; stroke-linejoin:round; stroke-width:2; stroke-opacity:0.1; fill:none" points="1789.35,1423.18 1789.35,123.472 "></polyline>
<polyline clip-path="url(#clip712)" style="stroke:#000000; stroke-linecap:round; stroke-linejoin:round; stroke-width:2; stroke-opacity:0.1; fill:none" points="2292.39,1423.18 2292.39,123.472 "></polyline>
<polyline clip-path="url(#clip710)" style="stroke:#000000; stroke-linecap:round; stroke-linejoin:round; stroke-width:4; stroke-opacity:1; fill:none" points="219.866,1423.18 2352.76,1423.18 "></polyline>
<polyline clip-path="url(#clip710)" style="stroke:#000000; stroke-linecap:round; stroke-linejoin:round; stroke-width:4; stroke-opacity:1; fill:none" points="280.231,1423.18 280.231,1404.28 "></polyline>
<polyline clip-path="url(#clip710)" style="stroke:#000000; stroke-linecap:round; stroke-linejoin:round; stroke-width:4; stroke-opacity:1; fill:none" points="783.271,1423.18 783.271,1404.28 "></polyline>
<polyline clip-path="url(#clip710)" style="stroke:#000000; stroke-linecap:round; stroke-linejoin:round; stroke-width:4; stroke-opacity:1; fill:none" points="1286.31,1423.18 1286.31,1404.28 "></polyline>
<polyline clip-path="url(#clip710)" style="stroke:#000000; stroke-linecap:round; stroke-linejoin:round; stroke-width:4; stroke-opacity:1; fill:none" points="1789.35,1423.18 1789.35,1404.28 "></polyline>
<polyline clip-path="url(#clip710)" style="stroke:#000000; stroke-linecap:round; stroke-linejoin:round; stroke-width:4; stroke-opacity:1; fill:none" points="2292.39,1423.18 2292.39,1404.28 "></polyline>
<path clip-path="url(#clip710)" d="M257.615 1454.1 Q254.004 1454.1 252.176 1457.66 Q250.37 1461.2 250.37 1468.33 Q250.37 1475.44 252.176 1479.01 Q254.004 1482.55 257.615 1482.55 Q261.25 1482.55 263.055 1479.01 Q264.884 1475.44 264.884 1468.33 Q264.884 1461.2 263.055 1457.66 Q261.25 1454.1 257.615 1454.1 M257.615 1450.39 Q263.426 1450.39 266.481 1455 Q269.56 1459.58 269.56 1468.33 Q269.56 1477.06 266.481 1481.67 Q263.426 1486.25 257.615 1486.25 Q251.805 1486.25 248.727 1481.67 Q245.671 1477.06 245.671 1468.33 Q245.671 1459.58 248.727 1455 Q251.805 1450.39 257.615 1450.39 Z" fill="#000000" fill-rule="nonzero" fill-opacity="1"></path><path clip-path="url(#clip710)" d="M277.777 1479.7 L282.662 1479.7 L282.662 1485.58 L277.777 1485.58 L277.777 1479.7 Z" fill="#000000" fill-rule="nonzero" fill-opacity="1"></path><path clip-path="url(#clip710)" d="M302.847 1454.1 Q299.236 1454.1 297.407 1457.66 Q295.601 1461.2 295.601 1468.33 Q295.601 1475.44 297.407 1479.01 Q299.236 1482.55 302.847 1482.55 Q306.481 1482.55 308.286 1479.01 Q310.115 1475.44 310.115 1468.33 Q310.115 1461.2 308.286 1457.66 Q306.481 1454.1 302.847 1454.1 M302.847 1450.39 Q308.657 1450.39 311.712 1455 Q314.791 1459.58 314.791 1468.33 Q314.791 1477.06 311.712 1481.67 Q308.657 1486.25 302.847 1486.25 Q297.037 1486.25 293.958 1481.67 Q290.902 1477.06 290.902 1468.33 Q290.902 1459.58 293.958 1455 Q297.037 1450.39 302.847 1450.39 Z" fill="#000000" fill-rule="nonzero" fill-opacity="1"></path><path clip-path="url(#clip710)" d="M755.007 1481.64 L771.327 1481.64 L771.327 1485.58 L749.382 1485.58 L749.382 1481.64 Q752.044 1478.89 756.628 1474.26 Q761.234 1469.61 762.415 1468.27 Q764.66 1465.74 765.54 1464.01 Q766.442 1462.25 766.442 1460.56 Q766.442 1457.8 764.498 1456.07 Q762.577 1454.33 759.475 1454.33 Q757.276 1454.33 754.822 1455.09 Q752.392 1455.86 749.614 1457.41 L749.614 1452.69 Q752.438 1451.55 754.892 1450.97 Q757.345 1450.39 759.382 1450.39 Q764.753 1450.39 767.947 1453.08 Q771.142 1455.77 771.142 1460.26 Q771.142 1462.39 770.331 1464.31 Q769.544 1466.2 767.438 1468.8 Q766.859 1469.47 763.757 1472.69 Q760.655 1475.88 755.007 1481.64 Z" fill="#000000" fill-rule="nonzero" fill-opacity="1"></path><path clip-path="url(#clip710)" d="M781.141 1479.7 L786.026 1479.7 L786.026 1485.58 L781.141 1485.58 L781.141 1479.7 Z" fill="#000000" fill-rule="nonzero" fill-opacity="1"></path><path clip-path="url(#clip710)" d="M796.257 1451.02 L814.614 1451.02 L814.614 1454.96 L800.54 1454.96 L800.54 1463.43 Q801.558 1463.08 802.577 1462.92 Q803.595 1462.73 804.614 1462.73 Q810.401 1462.73 813.78 1465.9 Q817.16 1469.08 817.16 1474.49 Q817.16 1480.07 813.688 1483.17 Q810.215 1486.25 803.896 1486.25 Q801.72 1486.25 799.452 1485.88 Q797.206 1485.51 794.799 1484.77 L794.799 1480.07 Q796.882 1481.2 799.104 1481.76 Q801.327 1482.32 803.803 1482.32 Q807.808 1482.32 810.146 1480.21 Q812.484 1478.1 812.484 1474.49 Q812.484 1470.88 810.146 1468.77 Q807.808 1466.67 803.803 1466.67 Q801.928 1466.67 800.053 1467.08 Q798.202 1467.5 796.257 1468.38 L796.257 1451.02 Z" fill="#000000" fill-rule="nonzero" fill-opacity="1"></path><path clip-path="url(#clip710)" d="M1253.48 1451.02 L1271.83 1451.02 L1271.83 1454.96 L1257.76 1454.96 L1257.76 1463.43 Q1258.78 1463.08 1259.8 1462.92 Q1260.81 1462.73 1261.83 1462.73 Q1267.62 1462.73 1271 1465.9 Q1274.38 1469.08 1274.38 1474.49 Q1274.38 1480.07 1270.91 1483.17 Q1267.43 1486.25 1261.11 1486.25 Q1258.94 1486.25 1256.67 1485.88 Q1254.42 1485.51 1252.02 1484.77 L1252.02 1480.07 Q1254.1 1481.2 1256.32 1481.76 Q1258.55 1482.32 1261.02 1482.32 Q1265.03 1482.32 1267.36 1480.21 Q1269.7 1478.1 1269.7 1474.49 Q1269.7 1470.88 1267.36 1468.77 Q1265.03 1466.67 1261.02 1466.67 Q1259.15 1466.67 1257.27 1467.08 Q1255.42 1467.5 1253.48 1468.38 L1253.48 1451.02 Z" fill="#000000" fill-rule="nonzero" fill-opacity="1"></path><path clip-path="url(#clip710)" d="M1283.59 1479.7 L1288.48 1479.7 L1288.48 1485.58 L1283.59 1485.58 L1283.59 1479.7 Z" fill="#000000" fill-rule="nonzero" fill-opacity="1"></path><path clip-path="url(#clip710)" d="M1308.66 1454.1 Q1305.05 1454.1 1303.22 1457.66 Q1301.42 1461.2 1301.42 1468.33 Q1301.42 1475.44 1303.22 1479.01 Q1305.05 1482.55 1308.66 1482.55 Q1312.29 1482.55 1314.1 1479.01 Q1315.93 1475.44 1315.93 1468.33 Q1315.93 1461.2 1314.1 1457.66 Q1312.29 1454.1 1308.66 1454.1 M1308.66 1450.39 Q1314.47 1450.39 1317.53 1455 Q1320.6 1459.58 1320.6 1468.33 Q1320.6 1477.06 1317.53 1481.67 Q1314.47 1486.25 1308.66 1486.25 Q1302.85 1486.25 1299.77 1481.67 Q1296.72 1477.06 1296.72 1468.33 Q1296.72 1459.58 1299.77 1455 Q1302.85 1450.39 1308.66 1450.39 Z" fill="#000000" fill-rule="nonzero" fill-opacity="1"></path><path clip-path="url(#clip710)" d="M1755.67 1451.02 L1777.89 1451.02 L1777.89 1453.01 L1765.35 1485.58 L1760.46 1485.58 L1772.27 1454.96 L1755.67 1454.96 L1755.67 1451.02 Z" fill="#000000" fill-rule="nonzero" fill-opacity="1"></path><path clip-path="url(#clip710)" d="M1787.01 1479.7 L1791.9 1479.7 L1791.9 1485.58 L1787.01 1485.58 L1787.01 1479.7 Z" fill="#000000" fill-rule="nonzero" fill-opacity="1"></path><path clip-path="url(#clip710)" d="M1802.13 1451.02 L1820.49 1451.02 L1820.49 1454.96 L1806.41 1454.96 L1806.41 1463.43 Q1807.43 1463.08 1808.45 1462.92 Q1809.47 1462.73 1810.49 1462.73 Q1816.27 1462.73 1819.65 1465.9 Q1823.03 1469.08 1823.03 1474.49 Q1823.03 1480.07 1819.56 1483.17 Q1816.09 1486.25 1809.77 1486.25 Q1807.59 1486.25 1805.32 1485.88 Q1803.08 1485.51 1800.67 1484.77 L1800.67 1480.07 Q1802.75 1481.2 1804.98 1481.76 Q1807.2 1482.32 1809.68 1482.32 Q1813.68 1482.32 1816.02 1480.21 Q1818.36 1478.1 1818.36 1474.49 Q1818.36 1470.88 1816.02 1468.77 Q1813.68 1466.67 1809.68 1466.67 Q1807.8 1466.67 1805.93 1467.08 Q1804.07 1467.5 1802.13 1468.38 L1802.13 1451.02 Z" fill="#000000" fill-rule="nonzero" fill-opacity="1"></path><path clip-path="url(#clip710)" d="M2244.46 1481.64 L2252.1 1481.64 L2252.1 1455.28 L2243.79 1456.95 L2243.79 1452.69 L2252.06 1451.02 L2256.73 1451.02 L2256.73 1481.64 L2264.37 1481.64 L2264.37 1485.58 L2244.46 1485.58 L2244.46 1481.64 Z" fill="#000000" fill-rule="nonzero" fill-opacity="1"></path><path clip-path="url(#clip710)" d="M2283.81 1454.1 Q2280.2 1454.1 2278.37 1457.66 Q2276.57 1461.2 2276.57 1468.33 Q2276.57 1475.44 2278.37 1479.01 Q2280.2 1482.55 2283.81 1482.55 Q2287.45 1482.55 2289.25 1479.01 Q2291.08 1475.44 2291.08 1468.33 Q2291.08 1461.2 2289.25 1457.66 Q2287.45 1454.1 2283.81 1454.1 M2283.81 1450.39 Q2289.62 1450.39 2292.68 1455 Q2295.76 1459.58 2295.76 1468.33 Q2295.76 1477.06 2292.68 1481.67 Q2289.62 1486.25 2283.81 1486.25 Q2278 1486.25 2274.93 1481.67 Q2271.87 1477.06 2271.87 1468.33 Q2271.87 1459.58 2274.93 1455 Q2278 1450.39 2283.81 1450.39 Z" fill="#000000" fill-rule="nonzero" fill-opacity="1"></path><path clip-path="url(#clip710)" d="M2303.98 1479.7 L2308.86 1479.7 L2308.86 1485.58 L2303.98 1485.58 L2303.98 1479.7 Z" fill="#000000" fill-rule="nonzero" fill-opacity="1"></path><path clip-path="url(#clip710)" d="M2329.05 1454.1 Q2325.43 1454.1 2323.61 1457.66 Q2321.8 1461.2 2321.8 1468.33 Q2321.8 1475.44 2323.61 1479.01 Q2325.43 1482.55 2329.05 1482.55 Q2332.68 1482.55 2334.49 1479.01 Q2336.31 1475.44 2336.31 1468.33 Q2336.31 1461.2 2334.49 1457.66 Q2332.68 1454.1 2329.05 1454.1 M2329.05 1450.39 Q2334.86 1450.39 2337.91 1455 Q2340.99 1459.58 2340.99 1468.33 Q2340.99 1477.06 2337.91 1481.67 Q2334.86 1486.25 2329.05 1486.25 Q2323.24 1486.25 2320.16 1481.67 Q2317.1 1477.06 2317.1 1468.33 Q2317.1 1459.58 2320.16 1455 Q2323.24 1450.39 2329.05 1450.39 Z" fill="#000000" fill-rule="nonzero" fill-opacity="1"></path><path clip-path="url(#clip710)" d="M1208.19 1520.52 L1248.39 1520.52 L1248.39 1525.93 L1231.52 1525.93 L1231.52 1568.04 L1225.06 1568.04 L1225.06 1525.93 L1208.19 1525.93 L1208.19 1520.52 Z" fill="#000000" fill-rule="nonzero" fill-opacity="1"></path><path clip-path="url(#clip710)" d="M1252.33 1532.4 L1258.19 1532.4 L1258.19 1568.04 L1252.33 1568.04 L1252.33 1532.4 M1252.33 1518.52 L1258.19 1518.52 L1258.19 1525.93 L1252.33 1525.93 L1252.33 1518.52 Z" fill="#000000" fill-rule="nonzero" fill-opacity="1"></path><path clip-path="url(#clip710)" d="M1298.2 1539.24 Q1300.4 1535.29 1303.45 1533.41 Q1306.51 1531.54 1310.64 1531.54 Q1316.21 1531.54 1319.24 1535.45 Q1322.26 1539.33 1322.26 1546.53 L1322.26 1568.04 L1316.37 1568.04 L1316.37 1546.72 Q1316.37 1541.59 1314.56 1539.11 Q1312.74 1536.63 1309.02 1536.63 Q1304.47 1536.63 1301.83 1539.65 Q1299.19 1542.68 1299.19 1547.9 L1299.19 1568.04 L1293.3 1568.04 L1293.3 1546.72 Q1293.3 1541.56 1291.48 1539.11 Q1289.67 1536.63 1285.88 1536.63 Q1281.39 1536.63 1278.75 1539.68 Q1276.11 1542.71 1276.11 1547.9 L1276.11 1568.04 L1270.22 1568.04 L1270.22 1532.4 L1276.11 1532.4 L1276.11 1537.93 Q1278.12 1534.66 1280.92 1533.1 Q1283.72 1531.54 1287.57 1531.54 Q1291.45 1531.54 1294.16 1533.51 Q1296.89 1535.48 1298.2 1539.24 Z" fill="#000000" fill-rule="nonzero" fill-opacity="1"></path><path clip-path="url(#clip710)" d="M1364.43 1548.76 L1364.43 1551.62 L1337.51 1551.62 Q1337.89 1557.67 1341.14 1560.85 Q1344.41 1564 1350.24 1564 Q1353.61 1564 1356.76 1563.17 Q1359.95 1562.35 1363.07 1560.69 L1363.07 1566.23 Q1359.91 1567.57 1356.6 1568.27 Q1353.29 1568.97 1349.89 1568.97 Q1341.36 1568.97 1336.36 1564 Q1331.4 1559.04 1331.4 1550.57 Q1331.4 1541.82 1336.11 1536.69 Q1340.85 1531.54 1348.87 1531.54 Q1356.06 1531.54 1360.23 1536.18 Q1364.43 1540.8 1364.43 1548.76 M1358.58 1547.04 Q1358.51 1542.23 1355.87 1539.37 Q1353.26 1536.5 1348.93 1536.5 Q1344.03 1536.5 1341.07 1539.27 Q1338.14 1542.04 1337.7 1547.07 L1358.58 1547.04 Z" fill="#000000" fill-rule="nonzero" fill-opacity="1"></path><polyline clip-path="url(#clip712)" style="stroke:#000000; stroke-linecap:round; stroke-linejoin:round; stroke-width:2; stroke-opacity:0.1; fill:none" points="219.866,1423.18 2352.76,1423.18 "></polyline>
<polyline clip-path="url(#clip712)" style="stroke:#000000; stroke-linecap:round; stroke-linejoin:round; stroke-width:2; stroke-opacity:0.1; fill:none" points="219.866,1163.24 2352.76,1163.24 "></polyline>
<polyline clip-path="url(#clip712)" style="stroke:#000000; stroke-linecap:round; stroke-linejoin:round; stroke-width:2; stroke-opacity:0.1; fill:none" points="219.866,903.297 2352.76,903.297 "></polyline>
<polyline clip-path="url(#clip712)" style="stroke:#000000; stroke-linecap:round; stroke-linejoin:round; stroke-width:2; stroke-opacity:0.1; fill:none" points="219.866,643.355 2352.76,643.355 "></polyline>
<polyline clip-path="url(#clip712)" style="stroke:#000000; stroke-linecap:round; stroke-linejoin:round; stroke-width:2; stroke-opacity:0.1; fill:none" points="219.866,383.414 2352.76,383.414 "></polyline>
<polyline clip-path="url(#clip712)" style="stroke:#000000; stroke-linecap:round; stroke-linejoin:round; stroke-width:2; stroke-opacity:0.1; fill:none" points="219.866,123.472 2352.76,123.472 "></polyline>
<polyline clip-path="url(#clip710)" style="stroke:#000000; stroke-linecap:round; stroke-linejoin:round; stroke-width:4; stroke-opacity:1; fill:none" points="219.866,1423.18 219.866,123.472 "></polyline>
<polyline clip-path="url(#clip710)" style="stroke:#000000; stroke-linecap:round; stroke-linejoin:round; stroke-width:4; stroke-opacity:1; fill:none" points="219.866,1423.18 238.764,1423.18 "></polyline>
<polyline clip-path="url(#clip710)" style="stroke:#000000; stroke-linecap:round; stroke-linejoin:round; stroke-width:4; stroke-opacity:1; fill:none" points="219.866,1163.24 238.764,1163.24 "></polyline>
<polyline clip-path="url(#clip710)" style="stroke:#000000; stroke-linecap:round; stroke-linejoin:round; stroke-width:4; stroke-opacity:1; fill:none" points="219.866,903.297 238.764,903.297 "></polyline>
<polyline clip-path="url(#clip710)" style="stroke:#000000; stroke-linecap:round; stroke-linejoin:round; stroke-width:4; stroke-opacity:1; fill:none" points="219.866,643.355 238.764,643.355 "></polyline>
<polyline clip-path="url(#clip710)" style="stroke:#000000; stroke-linecap:round; stroke-linejoin:round; stroke-width:4; stroke-opacity:1; fill:none" points="219.866,383.414 238.764,383.414 "></polyline>
<polyline clip-path="url(#clip710)" style="stroke:#000000; stroke-linecap:round; stroke-linejoin:round; stroke-width:4; stroke-opacity:1; fill:none" points="219.866,123.472 238.764,123.472 "></polyline>
<path clip-path="url(#clip710)" d="M126.691 1408.98 Q123.08 1408.98 121.251 1412.54 Q119.445 1416.08 119.445 1423.21 Q119.445 1430.32 121.251 1433.89 Q123.08 1437.43 126.691 1437.43 Q130.325 1437.43 132.13 1433.89 Q133.959 1430.32 133.959 1423.21 Q133.959 1416.08 132.13 1412.54 Q130.325 1408.98 126.691 1408.98 M126.691 1405.27 Q132.501 1405.27 135.556 1409.88 Q138.635 1414.46 138.635 1423.21 Q138.635 1431.94 135.556 1436.55 Q132.501 1441.13 126.691 1441.13 Q120.88 1441.13 117.802 1436.55 Q114.746 1431.94 114.746 1423.21 Q114.746 1414.46 117.802 1409.88 Q120.88 1405.27 126.691 1405.27 Z" fill="#000000" fill-rule="nonzero" fill-opacity="1"></path><path clip-path="url(#clip710)" d="M146.853 1434.58 L151.737 1434.58 L151.737 1440.46 L146.853 1440.46 L146.853 1434.58 Z" fill="#000000" fill-rule="nonzero" fill-opacity="1"></path><path clip-path="url(#clip710)" d="M171.922 1408.98 Q168.311 1408.98 166.482 1412.54 Q164.677 1416.08 164.677 1423.21 Q164.677 1430.32 166.482 1433.89 Q168.311 1437.43 171.922 1437.43 Q175.556 1437.43 177.362 1433.89 Q179.19 1430.32 179.19 1423.21 Q179.19 1416.08 177.362 1412.54 Q175.556 1408.98 171.922 1408.98 M171.922 1405.27 Q177.732 1405.27 180.788 1409.88 Q183.866 1414.46 183.866 1423.21 Q183.866 1431.94 180.788 1436.55 Q177.732 1441.13 171.922 1441.13 Q166.112 1441.13 163.033 1436.55 Q159.978 1431.94 159.978 1423.21 Q159.978 1414.46 163.033 1409.88 Q166.112 1405.27 171.922 1405.27 Z" fill="#000000" fill-rule="nonzero" fill-opacity="1"></path><path clip-path="url(#clip710)" d="M128.288 1149.04 Q124.677 1149.04 122.848 1152.6 Q121.043 1156.14 121.043 1163.27 Q121.043 1170.38 122.848 1173.94 Q124.677 1177.49 128.288 1177.49 Q131.922 1177.49 133.728 1173.94 Q135.556 1170.38 135.556 1163.27 Q135.556 1156.14 133.728 1152.6 Q131.922 1149.04 128.288 1149.04 M128.288 1145.33 Q134.098 1145.33 137.154 1149.94 Q140.232 1154.52 140.232 1163.27 Q140.232 1172 137.154 1176.61 Q134.098 1181.19 128.288 1181.19 Q122.478 1181.19 119.399 1176.61 Q116.343 1172 116.343 1163.27 Q116.343 1154.52 119.399 1149.94 Q122.478 1145.33 128.288 1145.33 Z" fill="#000000" fill-rule="nonzero" fill-opacity="1"></path><path clip-path="url(#clip710)" d="M148.45 1174.64 L153.334 1174.64 L153.334 1180.52 L148.45 1180.52 L148.45 1174.64 Z" fill="#000000" fill-rule="nonzero" fill-opacity="1"></path><path clip-path="url(#clip710)" d="M167.547 1176.58 L183.866 1176.58 L183.866 1180.52 L161.922 1180.52 L161.922 1176.58 Q164.584 1173.83 169.167 1169.2 Q173.774 1164.55 174.954 1163.2 Q177.2 1160.68 178.079 1158.94 Q178.982 1157.19 178.982 1155.5 Q178.982 1152.74 177.038 1151 Q175.116 1149.27 172.014 1149.27 Q169.815 1149.27 167.362 1150.03 Q164.931 1150.8 162.153 1152.35 L162.153 1147.62 Q164.977 1146.49 167.431 1145.91 Q169.885 1145.33 171.922 1145.33 Q177.292 1145.33 180.487 1148.02 Q183.681 1150.7 183.681 1155.19 Q183.681 1157.32 182.871 1159.25 Q182.084 1161.14 179.977 1163.74 Q179.399 1164.41 176.297 1167.62 Q173.195 1170.82 167.547 1176.58 Z" fill="#000000" fill-rule="nonzero" fill-opacity="1"></path><path clip-path="url(#clip710)" d="M126.205 889.095 Q122.593 889.095 120.765 892.66 Q118.959 896.202 118.959 903.331 Q118.959 910.438 120.765 914.003 Q122.593 917.544 126.205 917.544 Q129.839 917.544 131.644 914.003 Q133.473 910.438 133.473 903.331 Q133.473 896.202 131.644 892.66 Q129.839 889.095 126.205 889.095 M126.205 885.392 Q132.015 885.392 135.07 889.998 Q138.149 894.582 138.149 903.331 Q138.149 912.058 135.07 916.665 Q132.015 921.248 126.205 921.248 Q120.394 921.248 117.316 916.665 Q114.26 912.058 114.26 903.331 Q114.26 894.582 117.316 889.998 Q120.394 885.392 126.205 885.392 Z" fill="#000000" fill-rule="nonzero" fill-opacity="1"></path><path clip-path="url(#clip710)" d="M146.366 914.697 L151.251 914.697 L151.251 920.577 L146.366 920.577 L146.366 914.697 Z" fill="#000000" fill-rule="nonzero" fill-opacity="1"></path><path clip-path="url(#clip710)" d="M174.283 890.091 L162.477 908.54 L174.283 908.54 L174.283 890.091 M173.056 886.017 L178.936 886.017 L178.936 908.54 L183.866 908.54 L183.866 912.429 L178.936 912.429 L178.936 920.577 L174.283 920.577 L174.283 912.429 L158.681 912.429 L158.681 907.915 L173.056 886.017 Z" fill="#000000" fill-rule="nonzero" fill-opacity="1"></path><path clip-path="url(#clip710)" d="M126.529 629.154 Q122.918 629.154 121.089 632.719 Q119.283 636.26 119.283 643.39 Q119.283 650.496 121.089 654.061 Q122.918 657.603 126.529 657.603 Q130.163 657.603 131.968 654.061 Q133.797 650.496 133.797 643.39 Q133.797 636.26 131.968 632.719 Q130.163 629.154 126.529 629.154 M126.529 625.45 Q132.339 625.45 135.394 630.057 Q138.473 634.64 138.473 643.39 Q138.473 652.117 135.394 656.723 Q132.339 661.307 126.529 661.307 Q120.718 661.307 117.64 656.723 Q114.584 652.117 114.584 643.39 Q114.584 634.64 117.64 630.057 Q120.718 625.45 126.529 625.45 Z" fill="#000000" fill-rule="nonzero" fill-opacity="1"></path><path clip-path="url(#clip710)" d="M146.691 654.756 L151.575 654.756 L151.575 660.635 L146.691 660.635 L146.691 654.756 Z" fill="#000000" fill-rule="nonzero" fill-opacity="1"></path><path clip-path="url(#clip710)" d="M172.339 641.492 Q169.19 641.492 167.339 643.645 Q165.51 645.797 165.51 649.547 Q165.51 653.274 167.339 655.45 Q169.19 657.603 172.339 657.603 Q175.487 657.603 177.315 655.45 Q179.167 653.274 179.167 649.547 Q179.167 645.797 177.315 643.645 Q175.487 641.492 172.339 641.492 M181.621 626.839 L181.621 631.098 Q179.862 630.265 178.056 629.825 Q176.274 629.385 174.514 629.385 Q169.885 629.385 167.431 632.51 Q165.001 635.635 164.653 641.955 Q166.019 639.941 168.079 638.876 Q170.139 637.788 172.616 637.788 Q177.825 637.788 180.834 640.959 Q183.866 644.108 183.866 649.547 Q183.866 654.871 180.718 658.089 Q177.57 661.307 172.339 661.307 Q166.343 661.307 163.172 656.723 Q160.001 652.117 160.001 643.39 Q160.001 635.196 163.89 630.334 Q167.778 625.45 174.329 625.45 Q176.089 625.45 177.871 625.797 Q179.676 626.145 181.621 626.839 Z" fill="#000000" fill-rule="nonzero" fill-opacity="1"></path><path clip-path="url(#clip710)" d="M126.783 369.212 Q123.172 369.212 121.343 372.777 Q119.538 376.319 119.538 383.448 Q119.538 390.555 121.343 394.12 Q123.172 397.661 126.783 397.661 Q130.417 397.661 132.223 394.12 Q134.052 390.555 134.052 383.448 Q134.052 376.319 132.223 372.777 Q130.417 369.212 126.783 369.212 M126.783 365.509 Q132.593 365.509 135.649 370.115 Q138.728 374.698 138.728 383.448 Q138.728 392.175 135.649 396.782 Q132.593 401.365 126.783 401.365 Q120.973 401.365 117.894 396.782 Q114.839 392.175 114.839 383.448 Q114.839 374.698 117.894 370.115 Q120.973 365.509 126.783 365.509 Z" fill="#000000" fill-rule="nonzero" fill-opacity="1"></path><path clip-path="url(#clip710)" d="M146.945 394.814 L151.829 394.814 L151.829 400.694 L146.945 400.694 L146.945 394.814 Z" fill="#000000" fill-rule="nonzero" fill-opacity="1"></path><path clip-path="url(#clip710)" d="M172.014 384.282 Q168.681 384.282 166.76 386.064 Q164.862 387.847 164.862 390.971 Q164.862 394.096 166.76 395.879 Q168.681 397.661 172.014 397.661 Q175.348 397.661 177.269 395.879 Q179.19 394.073 179.19 390.971 Q179.19 387.847 177.269 386.064 Q175.371 384.282 172.014 384.282 M167.339 382.291 Q164.329 381.55 162.64 379.49 Q160.973 377.43 160.973 374.467 Q160.973 370.323 163.913 367.916 Q166.876 365.509 172.014 365.509 Q177.176 365.509 180.116 367.916 Q183.056 370.323 183.056 374.467 Q183.056 377.43 181.366 379.49 Q179.7 381.55 176.714 382.291 Q180.093 383.078 181.968 385.37 Q183.866 387.661 183.866 390.971 Q183.866 395.995 180.788 398.68 Q177.732 401.365 172.014 401.365 Q166.297 401.365 163.218 398.68 Q160.163 395.995 160.163 390.971 Q160.163 387.661 162.061 385.37 Q163.959 383.078 167.339 382.291 M165.626 374.907 Q165.626 377.592 167.292 379.097 Q168.982 380.601 172.014 380.601 Q175.024 380.601 176.714 379.097 Q178.426 377.592 178.426 374.907 Q178.426 372.222 176.714 370.717 Q175.024 369.212 172.014 369.212 Q168.982 369.212 167.292 370.717 Q165.626 372.222 165.626 374.907 Z" fill="#000000" fill-rule="nonzero" fill-opacity="1"></path><path clip-path="url(#clip710)" d="M117.501 136.817 L125.14 136.817 L125.14 110.451 L116.83 112.118 L116.83 107.859 L125.093 106.192 L129.769 106.192 L129.769 136.817 L137.408 136.817 L137.408 140.752 L117.501 140.752 L117.501 136.817 Z" fill="#000000" fill-rule="nonzero" fill-opacity="1"></path><path clip-path="url(#clip710)" d="M146.853 134.873 L151.737 134.873 L151.737 140.752 L146.853 140.752 L146.853 134.873 Z" fill="#000000" fill-rule="nonzero" fill-opacity="1"></path><path clip-path="url(#clip710)" d="M171.922 109.271 Q168.311 109.271 166.482 112.836 Q164.677 116.377 164.677 123.507 Q164.677 130.613 166.482 134.178 Q168.311 137.72 171.922 137.72 Q175.556 137.72 177.362 134.178 Q179.19 130.613 179.19 123.507 Q179.19 116.377 177.362 112.836 Q175.556 109.271 171.922 109.271 M171.922 105.567 Q177.732 105.567 180.788 110.174 Q183.866 114.757 183.866 123.507 Q183.866 132.234 180.788 136.84 Q177.732 141.423 171.922 141.423 Q166.112 141.423 163.033 136.84 Q159.978 132.234 159.978 123.507 Q159.978 114.757 163.033 110.174 Q166.112 105.567 171.922 105.567 Z" fill="#000000" fill-rule="nonzero" fill-opacity="1"></path><path clip-path="url(#clip710)" d="M16.4842 1006.61 L16.4842 966.414 L21.895 966.414 L21.895 983.283 L64.0042 983.283 L64.0042 989.744 L21.895 989.744 L21.895 1006.61 L16.4842 1006.61 Z" fill="#000000" fill-rule="nonzero" fill-opacity="1"></path><path clip-path="url(#clip710)" d="M33.8307 949.386 Q33.2578 950.372 33.0032 951.55 Q32.7167 952.696 32.7167 954.096 Q32.7167 959.061 35.9632 961.735 Q39.1779 964.377 45.2253 964.377 L64.0042 964.377 L64.0042 970.265 L28.3562 970.265 L28.3562 964.377 L33.8944 964.377 Q30.6479 962.531 29.0883 959.571 Q27.4968 956.611 27.4968 952.377 Q27.4968 951.773 27.5923 951.041 Q27.656 950.309 27.8151 949.417 L33.8307 949.386 Z" fill="#000000" fill-rule="nonzero" fill-opacity="1"></path><path clip-path="url(#clip710)" d="M46.0847 927.042 Q46.0847 934.14 47.7079 936.877 Q49.3312 939.614 53.2461 939.614 Q56.3653 939.614 58.2114 937.577 Q60.0256 935.508 60.0256 931.975 Q60.0256 927.106 56.5881 924.177 Q53.1188 921.217 47.3897 921.217 L46.0847 921.217 L46.0847 927.042 M43.6657 915.361 L64.0042 915.361 L64.0042 921.217 L58.5933 921.217 Q61.8398 923.222 63.3994 926.214 Q64.9272 929.206 64.9272 933.535 Q64.9272 939.009 61.8716 942.256 Q58.7843 945.471 53.6281 945.471 Q47.6125 945.471 44.5569 941.46 Q41.5014 937.418 41.5014 929.429 L41.5014 921.217 L40.9285 921.217 Q36.8862 921.217 34.6901 923.891 Q32.4621 926.533 32.4621 931.339 Q32.4621 934.394 33.1941 937.291 Q33.9262 940.187 35.3903 942.861 L29.9795 942.861 Q28.7381 939.646 28.1334 936.622 Q27.4968 933.599 27.4968 930.734 Q27.4968 923 31.5072 919.18 Q35.5176 915.361 43.6657 915.361 Z" fill="#000000" fill-rule="nonzero" fill-opacity="1"></path><path clip-path="url(#clip710)" d="M29.7248 877.644 L35.1993 877.644 Q33.8307 880.127 33.1623 882.641 Q32.4621 885.124 32.4621 887.67 Q32.4621 893.367 36.0905 896.518 Q39.6872 899.669 46.212 899.669 Q52.7369 899.669 56.3653 896.518 Q59.9619 893.367 59.9619 887.67 Q59.9619 885.124 59.2935 882.641 Q58.5933 880.127 57.2247 877.644 L62.6355 877.644 Q63.7814 880.095 64.3543 882.737 Q64.9272 885.347 64.9272 888.307 Q64.9272 896.359 59.8664 901.102 Q54.8057 905.844 46.212 905.844 Q37.491 905.844 32.4939 901.07 Q27.4968 896.264 27.4968 887.925 Q27.4968 885.219 28.0697 882.641 Q28.6108 880.063 29.7248 877.644 Z" fill="#000000" fill-rule="nonzero" fill-opacity="1"></path><path clip-path="url(#clip710)" d="M44.7161 836.967 L47.5806 836.967 L47.5806 863.894 Q53.6281 863.512 56.8109 860.266 Q59.9619 856.987 59.9619 851.163 Q59.9619 847.789 59.1344 844.638 Q58.3069 841.455 56.6518 838.336 L62.1899 838.336 Q63.5267 841.487 64.227 844.797 Q64.9272 848.107 64.9272 851.513 Q64.9272 860.043 59.9619 865.04 Q54.9967 870.005 46.5303 870.005 Q37.7774 870.005 32.6531 865.295 Q27.4968 860.552 27.4968 852.531 Q27.4968 845.338 32.1438 841.169 Q36.7589 836.967 44.7161 836.967 M42.9973 842.824 Q38.1912 842.887 35.3266 845.529 Q32.4621 848.139 32.4621 852.468 Q32.4621 857.369 35.2312 860.329 Q38.0002 863.258 43.0292 863.703 L42.9973 842.824 Z" fill="#000000" fill-rule="nonzero" fill-opacity="1"></path><path clip-path="url(#clip710)" d="M33.7671 783.177 L14.479 783.177 L14.479 777.32 L64.0042 777.32 L64.0042 783.177 L58.657 783.177 Q61.8398 785.023 63.3994 787.856 Q64.9272 790.657 64.9272 794.603 Q64.9272 801.065 59.771 805.139 Q54.6147 809.181 46.212 809.181 Q37.8093 809.181 32.6531 805.139 Q27.4968 801.065 27.4968 794.603 Q27.4968 790.657 29.0564 787.856 Q30.5842 785.023 33.7671 783.177 M46.212 803.133 Q52.6732 803.133 56.3653 800.492 Q60.0256 797.818 60.0256 793.171 Q60.0256 788.524 56.3653 785.851 Q52.6732 783.177 46.212 783.177 Q39.7508 783.177 36.0905 785.851 Q32.3984 788.524 32.3984 793.171 Q32.3984 797.818 36.0905 800.492 Q39.7508 803.133 46.212 803.133 Z" fill="#000000" fill-rule="nonzero" fill-opacity="1"></path><path clip-path="url(#clip710)" d="M28.3562 765.257 L28.3562 759.401 L64.0042 759.401 L64.0042 765.257 L28.3562 765.257 M14.479 765.257 L14.479 759.401 L21.895 759.401 L21.895 765.257 L14.479 765.257 Z" fill="#000000" fill-rule="nonzero" fill-opacity="1"></path><path clip-path="url(#clip710)" d="M29.4065 724.421 L34.9447 724.421 Q33.6716 726.904 33.035 729.578 Q32.3984 732.251 32.3984 735.116 Q32.3984 739.476 33.7352 741.673 Q35.072 743.837 37.7456 743.837 Q39.7826 743.837 40.9603 742.277 Q42.1061 740.718 43.1565 736.007 L43.6021 734.002 Q44.9389 727.763 47.3897 725.153 Q49.8086 722.512 54.1691 722.512 Q59.1344 722.512 62.0308 726.458 Q64.9272 730.373 64.9272 737.248 Q64.9272 740.113 64.3543 743.232 Q63.8132 746.319 62.6992 749.757 L56.6518 749.757 Q58.3387 746.51 59.198 743.359 Q60.0256 740.208 60.0256 737.121 Q60.0256 732.983 58.6251 730.755 Q57.1929 728.527 54.6147 728.527 Q52.2276 728.527 50.9545 730.151 Q49.6813 731.742 48.5037 737.185 L48.0262 739.222 Q46.8804 744.664 44.5251 747.083 Q42.138 749.502 38.0002 749.502 Q32.9713 749.502 30.2341 745.938 Q27.4968 742.373 27.4968 735.816 Q27.4968 732.57 27.9743 729.705 Q28.4517 726.84 29.4065 724.421 Z" fill="#000000" fill-rule="nonzero" fill-opacity="1"></path><path clip-path="url(#clip710)" d="M18.2347 707.393 L28.3562 707.393 L28.3562 695.33 L32.9077 695.33 L32.9077 707.393 L52.2594 707.393 Q56.6199 707.393 57.8613 706.216 Q59.1026 705.006 59.1026 701.346 L59.1026 695.33 L64.0042 695.33 L64.0042 701.346 Q64.0042 708.125 61.4897 710.703 Q58.9434 713.281 52.2594 713.281 L32.9077 713.281 L32.9077 717.578 L28.3562 717.578 L28.3562 713.281 L18.2347 713.281 L18.2347 707.393 Z" fill="#000000" fill-rule="nonzero" fill-opacity="1"></path><path clip-path="url(#clip710)" d="M46.0847 671.427 Q46.0847 678.525 47.7079 681.262 Q49.3312 683.999 53.2461 683.999 Q56.3653 683.999 58.2114 681.962 Q60.0256 679.893 60.0256 676.36 Q60.0256 671.491 56.5881 668.562 Q53.1188 665.602 47.3897 665.602 L46.0847 665.602 L46.0847 671.427 M43.6657 659.746 L64.0042 659.746 L64.0042 665.602 L58.5933 665.602 Q61.8398 667.608 63.3994 670.599 Q64.9272 673.591 64.9272 677.92 Q64.9272 683.394 61.8716 686.641 Q58.7843 689.856 53.6281 689.856 Q47.6125 689.856 44.5569 685.845 Q41.5014 681.803 41.5014 673.814 L41.5014 665.602 L40.9285 665.602 Q36.8862 665.602 34.6901 668.276 Q32.4621 670.918 32.4621 675.724 Q32.4621 678.779 33.1941 681.676 Q33.9262 684.572 35.3903 687.246 L29.9795 687.246 Q28.7381 684.031 28.1334 681.007 Q27.4968 677.984 27.4968 675.119 Q27.4968 667.385 31.5072 663.565 Q35.5176 659.746 43.6657 659.746 Z" fill="#000000" fill-rule="nonzero" fill-opacity="1"></path><path clip-path="url(#clip710)" d="M42.4881 618.05 L64.0042 618.05 L64.0042 623.907 L42.679 623.907 Q37.6183 623.907 35.1038 625.88 Q32.5894 627.854 32.5894 631.8 Q32.5894 636.543 35.6131 639.28 Q38.6368 642.017 43.8567 642.017 L64.0042 642.017 L64.0042 647.906 L28.3562 647.906 L28.3562 642.017 L33.8944 642.017 Q30.6797 639.917 29.0883 637.084 Q27.4968 634.219 27.4968 630.495 Q27.4968 624.353 31.3163 621.202 Q35.1038 618.05 42.4881 618.05 Z" fill="#000000" fill-rule="nonzero" fill-opacity="1"></path><path clip-path="url(#clip710)" d="M29.7248 580.716 L35.1993 580.716 Q33.8307 583.198 33.1623 585.713 Q32.4621 588.195 32.4621 590.742 Q32.4621 596.439 36.0905 599.59 Q39.6872 602.741 46.212 602.741 Q52.7369 602.741 56.3653 599.59 Q59.9619 596.439 59.9619 590.742 Q59.9619 588.195 59.2935 585.713 Q58.5933 583.198 57.2247 580.716 L62.6355 580.716 Q63.7814 583.166 64.3543 585.808 Q64.9272 588.418 64.9272 591.378 Q64.9272 599.431 59.8664 604.173 Q54.8057 608.916 46.212 608.916 Q37.491 608.916 32.4939 604.141 Q27.4968 599.335 27.4968 590.996 Q27.4968 588.291 28.0697 585.713 Q28.6108 583.135 29.7248 580.716 Z" fill="#000000" fill-rule="nonzero" fill-opacity="1"></path><path clip-path="url(#clip710)" d="M44.7161 540.039 L47.5806 540.039 L47.5806 566.966 Q53.6281 566.584 56.8109 563.337 Q59.9619 560.059 59.9619 554.234 Q59.9619 550.86 59.1344 547.709 Q58.3069 544.527 56.6518 541.407 L62.1899 541.407 Q63.5267 544.558 64.227 547.869 Q64.9272 551.179 64.9272 554.584 Q64.9272 563.114 59.9619 568.112 Q54.9967 573.077 46.5303 573.077 Q37.7774 573.077 32.6531 568.366 Q27.4968 563.624 27.4968 555.603 Q27.4968 548.41 32.1438 544.24 Q36.7589 540.039 44.7161 540.039 M42.9973 545.895 Q38.1912 545.959 35.3266 548.601 Q32.4621 551.211 32.4621 555.539 Q32.4621 560.441 35.2312 563.401 Q38.0002 566.329 43.0292 566.775 L42.9973 545.895 Z" fill="#000000" fill-rule="nonzero" fill-opacity="1"></path><path clip-path="url(#clip710)" d="M344.537 16.7545 L344.537 25.383 Q340.405 21.5346 335.706 19.6307 Q331.047 17.7268 325.781 17.7268 Q315.411 17.7268 309.901 24.0867 Q304.392 30.4061 304.392 42.3968 Q304.392 54.3469 309.901 60.7069 Q315.411 67.0263 325.781 67.0263 Q331.047 67.0263 335.706 65.1223 Q340.405 63.2184 344.537 59.3701 L344.537 67.9175 Q340.243 70.8341 335.422 72.2924 Q330.642 73.7508 325.295 73.7508 Q311.562 73.7508 303.663 65.3654 Q295.764 56.9395 295.764 42.3968 Q295.764 27.8135 303.663 19.4281 Q311.562 11.0023 325.295 11.0023 Q330.723 11.0023 335.503 12.4606 Q340.324 13.8784 344.537 16.7545 Z" fill="#000000" fill-rule="nonzero" fill-opacity="1"></path><path clip-path="url(#clip710)" d="M374.432 32.4315 Q368.437 32.4315 364.953 37.1306 Q361.469 41.7891 361.469 49.9314 Q361.469 58.0738 364.913 62.7728 Q368.396 67.4314 374.432 67.4314 Q380.387 67.4314 383.871 62.7323 Q387.355 58.0333 387.355 49.9314 Q387.355 41.8701 383.871 37.1711 Q380.387 32.4315 374.432 32.4315 M374.432 26.1121 Q384.154 26.1121 389.704 32.4315 Q395.254 38.7509 395.254 49.9314 Q395.254 61.0714 389.704 67.4314 Q384.154 73.7508 374.432 73.7508 Q364.67 73.7508 359.12 67.4314 Q353.611 61.0714 353.611 49.9314 Q353.611 38.7509 359.12 32.4315 Q364.67 26.1121 374.432 26.1121 Z" fill="#000000" fill-rule="nonzero" fill-opacity="1"></path><path clip-path="url(#clip710)" d="M445.323 45.1919 L445.323 72.576 L437.869 72.576 L437.869 45.4349 Q437.869 38.994 435.358 35.7938 Q432.846 32.5936 427.823 32.5936 Q421.787 32.5936 418.304 36.4419 Q414.82 40.2903 414.82 46.9338 L414.82 72.576 L407.326 72.576 L407.326 27.2059 L414.82 27.2059 L414.82 34.2544 Q417.493 30.163 421.099 28.1376 Q424.745 26.1121 429.484 26.1121 Q437.302 26.1121 441.313 30.9732 Q445.323 35.7938 445.323 45.1919 Z" fill="#000000" fill-rule="nonzero" fill-opacity="1"></path><path clip-path="url(#clip710)" d="M454.843 27.2059 L462.742 27.2059 L476.92 65.2844 L491.098 27.2059 L498.998 27.2059 L481.984 72.576 L471.857 72.576 L454.843 27.2059 Z" fill="#000000" fill-rule="nonzero" fill-opacity="1"></path><path clip-path="url(#clip710)" d="M548.095 48.0275 L548.095 51.6733 L513.824 51.6733 Q514.31 59.3701 518.442 63.421 Q522.614 67.4314 530.028 67.4314 Q534.321 67.4314 538.332 66.3781 Q542.383 65.3249 546.353 63.2184 L546.353 70.267 Q542.342 71.9684 538.129 72.8596 Q533.916 73.7508 529.582 73.7508 Q518.725 73.7508 512.366 67.4314 Q506.046 61.1119 506.046 50.3365 Q506.046 39.1965 512.042 32.6746 Q518.077 26.1121 528.286 26.1121 Q537.441 26.1121 542.747 32.0264 Q548.095 37.9003 548.095 48.0275 M540.641 45.84 Q540.56 39.7232 537.198 36.0774 Q533.876 32.4315 528.367 32.4315 Q522.128 32.4315 518.361 35.9558 Q514.634 39.4801 514.067 45.8805 L540.641 45.84 Z" fill="#000000" fill-rule="nonzero" fill-opacity="1"></path><path clip-path="url(#clip710)" d="M586.619 34.1734 Q585.363 33.4443 583.864 33.1202 Q582.406 32.7556 580.623 32.7556 Q574.304 32.7556 570.901 36.8875 Q567.539 40.9789 567.539 48.6757 L567.539 72.576 L560.045 72.576 L560.045 27.2059 L567.539 27.2059 L567.539 34.2544 Q569.888 30.1225 573.656 28.1376 Q577.423 26.1121 582.811 26.1121 Q583.58 26.1121 584.512 26.2337 Q585.444 26.3147 586.578 26.5172 L586.619 34.1734 Z" fill="#000000" fill-rule="nonzero" fill-opacity="1"></path><path clip-path="url(#clip710)" d="M622.834 49.3643 Q622.834 41.2625 619.471 36.8065 Q616.15 32.3505 610.114 32.3505 Q604.119 32.3505 600.756 36.8065 Q597.435 41.2625 597.435 49.3643 Q597.435 57.4256 600.756 61.8816 Q604.119 66.3376 610.114 66.3376 Q616.15 66.3376 619.471 61.8816 Q622.834 57.4256 622.834 49.3643 M630.287 66.9452 Q630.287 78.5308 625.143 84.1616 Q619.998 89.8329 609.385 89.8329 Q605.455 89.8329 601.972 89.2252 Q598.488 88.6581 595.207 87.4428 L595.207 80.1917 Q598.488 81.9741 601.688 82.8248 Q604.888 83.6755 608.21 83.6755 Q615.542 83.6755 619.188 79.8271 Q622.834 76.0193 622.834 68.282 L622.834 64.5957 Q620.525 68.6061 616.919 70.5911 Q613.314 72.576 608.291 72.576 Q599.946 72.576 594.842 66.2161 Q589.738 59.8562 589.738 49.3643 Q589.738 38.832 594.842 32.472 Q599.946 26.1121 608.291 26.1121 Q613.314 26.1121 616.919 28.0971 Q620.525 30.082 622.834 34.0924 L622.834 27.2059 L630.287 27.2059 L630.287 66.9452 Z" fill="#000000" fill-rule="nonzero" fill-opacity="1"></path><path clip-path="url(#clip710)" d="M684.448 48.0275 L684.448 51.6733 L650.177 51.6733 Q650.663 59.3701 654.795 63.421 Q658.968 67.4314 666.381 67.4314 Q670.675 67.4314 674.685 66.3781 Q678.736 65.3249 682.706 63.2184 L682.706 70.267 Q678.696 71.9684 674.483 72.8596 Q670.27 73.7508 665.935 73.7508 Q655.079 73.7508 648.719 67.4314 Q642.4 61.1119 642.4 50.3365 Q642.4 39.1965 648.395 32.6746 Q654.431 26.1121 664.639 26.1121 Q673.794 26.1121 679.101 32.0264 Q684.448 37.9003 684.448 48.0275 M676.994 45.84 Q676.913 39.7232 673.551 36.0774 Q670.229 32.4315 664.72 32.4315 Q658.482 32.4315 654.714 35.9558 Q650.988 39.4801 650.42 45.8805 L676.994 45.84 Z" fill="#000000" fill-rule="nonzero" fill-opacity="1"></path><path clip-path="url(#clip710)" d="M734.396 45.1919 L734.396 72.576 L726.942 72.576 L726.942 45.4349 Q726.942 38.994 724.43 35.7938 Q721.919 32.5936 716.896 32.5936 Q710.86 32.5936 707.376 36.4419 Q703.892 40.2903 703.892 46.9338 L703.892 72.576 L696.398 72.576 L696.398 27.2059 L703.892 27.2059 L703.892 34.2544 Q706.566 30.163 710.171 28.1376 Q713.817 26.1121 718.557 26.1121 Q726.375 26.1121 730.385 30.9732 Q734.396 35.7938 734.396 45.1919 Z" fill="#000000" fill-rule="nonzero" fill-opacity="1"></path><path clip-path="url(#clip710)" d="M781.913 28.9478 L781.913 35.9153 Q778.753 34.1734 775.553 33.3227 Q772.393 32.4315 769.152 32.4315 Q761.901 32.4315 757.891 37.0496 Q753.88 41.6271 753.88 49.9314 Q753.88 58.2358 757.891 62.8538 Q761.901 67.4314 769.152 67.4314 Q772.393 67.4314 775.553 66.5807 Q778.753 65.6895 781.913 63.9476 L781.913 70.8341 Q778.794 72.2924 775.431 73.0216 Q772.11 73.7508 768.342 73.7508 Q758.093 73.7508 752.058 67.3098 Q746.022 60.8689 746.022 49.9314 Q746.022 38.832 752.098 32.472 Q758.215 26.1121 768.828 26.1121 Q772.272 26.1121 775.553 26.8413 Q778.834 27.5299 781.913 28.9478 Z" fill="#000000" fill-rule="nonzero" fill-opacity="1"></path><path clip-path="url(#clip710)" d="M833.683 48.0275 L833.683 51.6733 L799.413 51.6733 Q799.899 59.3701 804.031 63.421 Q808.203 67.4314 815.616 67.4314 Q819.91 67.4314 823.921 66.3781 Q827.972 65.3249 831.941 63.2184 L831.941 70.267 Q827.931 71.9684 823.718 72.8596 Q819.505 73.7508 815.171 73.7508 Q804.314 73.7508 797.954 67.4314 Q791.635 61.1119 791.635 50.3365 Q791.635 39.1965 797.63 32.6746 Q803.666 26.1121 813.874 26.1121 Q823.029 26.1121 828.336 32.0264 Q833.683 37.9003 833.683 48.0275 M826.23 45.84 Q826.149 39.7232 822.786 36.0774 Q819.465 32.4315 813.955 32.4315 Q807.717 32.4315 803.95 35.9558 Q800.223 39.4801 799.656 45.8805 L826.23 45.84 Z" fill="#000000" fill-rule="nonzero" fill-opacity="1"></path><path clip-path="url(#clip710)" d="M879.661 14.324 L879.661 27.2059 L895.014 27.2059 L895.014 32.9987 L879.661 32.9987 L879.661 57.6282 Q879.661 63.1779 881.16 64.7578 Q882.699 66.3376 887.358 66.3376 L895.014 66.3376 L895.014 72.576 L887.358 72.576 Q878.729 72.576 875.448 69.3758 Q872.167 66.1351 872.167 57.6282 L872.167 32.9987 L866.698 32.9987 L866.698 27.2059 L872.167 27.2059 L872.167 14.324 L879.661 14.324 Z" fill="#000000" fill-rule="nonzero" fill-opacity="1"></path><path clip-path="url(#clip710)" d="M922.398 32.4315 Q916.403 32.4315 912.919 37.1306 Q909.435 41.7891 909.435 49.9314 Q909.435 58.0738 912.878 62.7728 Q916.362 67.4314 922.398 67.4314 Q928.353 67.4314 931.837 62.7323 Q935.32 58.0333 935.32 49.9314 Q935.32 41.8701 931.837 37.1711 Q928.353 32.4315 922.398 32.4315 M922.398 26.1121 Q932.12 26.1121 937.67 32.4315 Q943.22 38.7509 943.22 49.9314 Q943.22 61.0714 937.67 67.4314 Q932.12 73.7508 922.398 73.7508 Q912.635 73.7508 907.086 67.4314 Q901.576 61.0714 901.576 49.9314 Q901.576 38.7509 907.086 32.4315 Q912.635 26.1121 922.398 26.1121 Z" fill="#000000" fill-rule="nonzero" fill-opacity="1"></path><path clip-path="url(#clip710)" d="M1023.51 63.9476 L1023.51 47.7034 L1010.14 47.7034 L1010.14 40.9789 L1031.61 40.9789 L1031.61 66.9452 Q1026.87 70.3075 1021.16 72.0494 Q1015.45 73.7508 1008.97 73.7508 Q994.788 73.7508 986.767 65.4869 Q978.787 57.1826 978.787 42.3968 Q978.787 27.5705 986.767 19.3066 Q994.788 11.0023 1008.97 11.0023 Q1014.88 11.0023 1020.19 12.4606 Q1025.53 13.9189 1030.03 16.7545 L1030.03 25.464 Q1025.49 21.6156 1020.39 19.6712 Q1015.29 17.7268 1009.65 17.7268 Q998.555 17.7268 992.965 23.9246 Q987.415 30.1225 987.415 42.3968 Q987.415 54.6305 992.965 60.8284 Q998.555 67.0263 1009.65 67.0263 Q1013.99 67.0263 1017.39 66.2971 Q1020.79 65.5274 1023.51 63.9476 Z" fill="#000000" fill-rule="nonzero" fill-opacity="1"></path><path clip-path="url(#clip710)" d="M1046.23 27.2059 L1053.69 27.2059 L1053.69 72.576 L1046.23 72.576 L1046.23 27.2059 M1046.23 9.54393 L1053.69 9.54393 L1053.69 18.9825 L1046.23 18.9825 L1046.23 9.54393 Z" fill="#000000" fill-rule="nonzero" fill-opacity="1"></path><path clip-path="url(#clip710)" d="M1101.85 49.9314 Q1101.85 41.7081 1098.45 37.0496 Q1095.09 32.3505 1089.17 32.3505 Q1083.26 32.3505 1079.86 37.0496 Q1076.49 41.7081 1076.49 49.9314 Q1076.49 58.1548 1079.86 62.8538 Q1083.26 67.5124 1089.17 67.5124 Q1095.09 67.5124 1098.45 62.8538 Q1101.85 58.1548 1101.85 49.9314 M1076.49 34.0924 Q1078.84 30.0415 1082.41 28.0971 Q1086.01 26.1121 1091 26.1121 Q1099.26 26.1121 1104.41 32.6746 Q1109.59 39.2371 1109.59 49.9314 Q1109.59 60.6258 1104.41 67.1883 Q1099.26 73.7508 1091 73.7508 Q1086.01 73.7508 1082.41 71.8063 Q1078.84 69.8214 1076.49 65.7705 L1076.49 72.576 L1069 72.576 L1069 9.54393 L1076.49 9.54393 L1076.49 34.0924 Z" fill="#000000" fill-rule="nonzero" fill-opacity="1"></path><path clip-path="url(#clip710)" d="M1154.51 49.9314 Q1154.51 41.7081 1151.11 37.0496 Q1147.75 32.3505 1141.84 32.3505 Q1135.92 32.3505 1132.52 37.0496 Q1129.16 41.7081 1129.16 49.9314 Q1129.16 58.1548 1132.52 62.8538 Q1135.92 67.5124 1141.84 67.5124 Q1147.75 67.5124 1151.11 62.8538 Q1154.51 58.1548 1154.51 49.9314 M1129.16 34.0924 Q1131.51 30.0415 1135.07 28.0971 Q1138.68 26.1121 1143.66 26.1121 Q1151.92 26.1121 1157.07 32.6746 Q1162.25 39.2371 1162.25 49.9314 Q1162.25 60.6258 1157.07 67.1883 Q1151.92 73.7508 1143.66 73.7508 Q1138.68 73.7508 1135.07 71.8063 Q1131.51 69.8214 1129.16 65.7705 L1129.16 72.576 L1121.66 72.576 L1121.66 9.54393 L1129.16 9.54393 L1129.16 34.0924 Z" fill="#000000" fill-rule="nonzero" fill-opacity="1"></path><path clip-path="url(#clip710)" d="M1203.53 28.5427 L1203.53 35.5912 Q1200.37 33.9709 1196.97 33.1607 Q1193.57 32.3505 1189.92 32.3505 Q1184.37 32.3505 1181.57 34.0519 Q1178.82 35.7533 1178.82 39.156 Q1178.82 41.7486 1180.81 43.2475 Q1182.79 44.7058 1188.79 46.0426 L1191.34 46.6097 Q1199.28 48.3111 1202.6 51.4303 Q1205.96 54.509 1205.96 60.0587 Q1205.96 66.3781 1200.94 70.0644 Q1195.96 73.7508 1187.21 73.7508 Q1183.56 73.7508 1179.59 73.0216 Q1175.66 72.3329 1171.29 70.9151 L1171.29 63.2184 Q1175.42 65.3654 1179.43 66.4591 Q1183.44 67.5124 1187.37 67.5124 Q1192.63 67.5124 1195.47 65.73 Q1198.31 63.9071 1198.31 60.6258 Q1198.31 57.5877 1196.24 55.9673 Q1194.21 54.3469 1187.29 52.8481 L1184.69 52.2405 Q1177.77 50.7821 1174.69 47.7845 Q1171.61 44.7463 1171.61 39.4801 Q1171.61 33.0797 1176.15 29.5959 Q1180.68 26.1121 1189.03 26.1121 Q1193.16 26.1121 1196.81 26.7198 Q1200.45 27.3274 1203.53 28.5427 Z" fill="#000000" fill-rule="nonzero" fill-opacity="1"></path><path clip-path="url(#clip710)" d="M1273.13 28.5427 L1273.13 35.5912 Q1269.97 33.9709 1266.56 33.1607 Q1263.16 32.3505 1259.51 32.3505 Q1253.96 32.3505 1251.17 34.0519 Q1248.41 35.7533 1248.41 39.156 Q1248.41 41.7486 1250.4 43.2475 Q1252.38 44.7058 1258.38 46.0426 L1260.93 46.6097 Q1268.87 48.3111 1272.19 51.4303 Q1275.56 54.509 1275.56 60.0587 Q1275.56 66.3781 1270.53 70.0644 Q1265.55 73.7508 1256.8 73.7508 Q1253.15 73.7508 1249.18 73.0216 Q1245.26 72.3329 1240.88 70.9151 L1240.88 63.2184 Q1245.01 65.3654 1249.02 66.4591 Q1253.03 67.5124 1256.96 67.5124 Q1262.23 67.5124 1265.06 65.73 Q1267.9 63.9071 1267.9 60.6258 Q1267.9 57.5877 1265.83 55.9673 Q1263.81 54.3469 1256.88 52.8481 L1254.29 52.2405 Q1247.36 50.7821 1244.28 47.7845 Q1241.2 44.7463 1241.2 39.4801 Q1241.2 33.0797 1245.74 29.5959 Q1250.28 26.1121 1258.62 26.1121 Q1262.76 26.1121 1266.4 26.7198 Q1270.05 27.3274 1273.13 28.5427 Z" fill="#000000" fill-rule="nonzero" fill-opacity="1"></path><path clip-path="url(#clip710)" d="M1294.8 14.324 L1294.8 27.2059 L1310.15 27.2059 L1310.15 32.9987 L1294.8 32.9987 L1294.8 57.6282 Q1294.8 63.1779 1296.3 64.7578 Q1297.84 66.3376 1302.49 66.3376 L1310.15 66.3376 L1310.15 72.576 L1302.49 72.576 Q1293.87 72.576 1290.58 69.3758 Q1287.3 66.1351 1287.3 57.6282 L1287.3 32.9987 L1281.83 32.9987 L1281.83 27.2059 L1287.3 27.2059 L1287.3 14.324 L1294.8 14.324 Z" fill="#000000" fill-rule="nonzero" fill-opacity="1"></path><path clip-path="url(#clip710)" d="M1340.57 49.7694 Q1331.54 49.7694 1328.06 51.8354 Q1324.57 53.9013 1324.57 58.8839 Q1324.57 62.8538 1327.16 65.2034 Q1329.8 67.5124 1334.29 67.5124 Q1340.49 67.5124 1344.22 63.1374 Q1347.99 58.7219 1347.99 51.4303 L1347.99 49.7694 L1340.57 49.7694 M1355.44 46.6907 L1355.44 72.576 L1347.99 72.576 L1347.99 65.6895 Q1345.43 69.8214 1341.63 71.8063 Q1337.82 73.7508 1332.31 73.7508 Q1325.34 73.7508 1321.21 69.8619 Q1317.12 65.9325 1317.12 59.3701 Q1317.12 51.7138 1322.22 47.825 Q1327.37 43.9361 1337.53 43.9361 L1347.99 43.9361 L1347.99 43.2069 Q1347.99 38.0623 1344.58 35.2672 Q1341.22 32.4315 1335.1 32.4315 Q1331.22 32.4315 1327.53 33.3632 Q1323.84 34.295 1320.44 36.1584 L1320.44 29.2718 Q1324.53 27.692 1328.38 26.9223 Q1332.23 26.1121 1335.87 26.1121 Q1345.72 26.1121 1350.58 31.2163 Q1355.44 36.3204 1355.44 46.6907 Z" fill="#000000" fill-rule="nonzero" fill-opacity="1"></path><path clip-path="url(#clip710)" d="M1378.17 14.324 L1378.17 27.2059 L1393.52 27.2059 L1393.52 32.9987 L1378.17 32.9987 L1378.17 57.6282 Q1378.17 63.1779 1379.66 64.7578 Q1381.2 66.3376 1385.86 66.3376 L1393.52 66.3376 L1393.52 72.576 L1385.86 72.576 Q1377.23 72.576 1373.95 69.3758 Q1370.67 66.1351 1370.67 57.6282 L1370.67 32.9987 L1365.2 32.9987 L1365.2 27.2059 L1370.67 27.2059 L1370.67 14.324 L1378.17 14.324 Z" fill="#000000" fill-rule="nonzero" fill-opacity="1"></path><path clip-path="url(#clip710)" d="M1442.13 48.0275 L1442.13 51.6733 L1407.86 51.6733 Q1408.34 59.3701 1412.48 63.421 Q1416.65 67.4314 1424.06 67.4314 Q1428.36 67.4314 1432.37 66.3781 Q1436.42 65.3249 1440.39 63.2184 L1440.39 70.267 Q1436.38 71.9684 1432.16 72.8596 Q1427.95 73.7508 1423.62 73.7508 Q1412.76 73.7508 1406.4 67.4314 Q1400.08 61.1119 1400.08 50.3365 Q1400.08 39.1965 1406.08 32.6746 Q1412.11 26.1121 1422.32 26.1121 Q1431.48 26.1121 1436.78 32.0264 Q1442.13 37.9003 1442.13 48.0275 M1434.68 45.84 Q1434.59 39.7232 1431.23 36.0774 Q1427.91 32.4315 1422.4 32.4315 Q1416.16 32.4315 1412.4 35.9558 Q1408.67 39.4801 1408.1 45.8805 L1434.68 45.84 Z" fill="#000000" fill-rule="nonzero" fill-opacity="1"></path><path clip-path="url(#clip710)" d="M1456.27 62.2867 L1464.81 62.2867 L1464.81 69.2543 L1458.17 82.2172 L1452.95 82.2172 L1456.27 69.2543 L1456.27 62.2867 Z" fill="#000000" fill-rule="nonzero" fill-opacity="1"></path><path clip-path="url(#clip710)" d="M1544.82 45.1919 L1544.82 72.576 L1537.37 72.576 L1537.37 45.4349 Q1537.37 38.994 1534.85 35.7938 Q1532.34 32.5936 1527.32 32.5936 Q1521.28 32.5936 1517.8 36.4419 Q1514.32 40.2903 1514.32 46.9338 L1514.32 72.576 L1506.82 72.576 L1506.82 27.2059 L1514.32 27.2059 L1514.32 34.2544 Q1516.99 30.163 1520.6 28.1376 Q1524.24 26.1121 1528.98 26.1121 Q1536.8 26.1121 1540.81 30.9732 Q1544.82 35.7938 1544.82 45.1919 Z" fill="#000000" fill-rule="nonzero" fill-opacity="1"></path><path clip-path="url(#clip710)" d="M1583.22 19.2256 L1562.56 51.5113 L1583.22 51.5113 L1583.22 19.2256 M1581.08 12.096 L1591.36 12.096 L1591.36 51.5113 L1599.99 51.5113 L1599.99 58.3168 L1591.36 58.3168 L1591.36 72.576 L1583.22 72.576 L1583.22 58.3168 L1555.92 58.3168 L1555.92 50.4176 L1581.08 12.096 Z" fill="#000000" fill-rule="nonzero" fill-opacity="1"></path><path clip-path="url(#clip710)" d="M1638.76 34.1734 Q1637.5 33.4443 1636.01 33.1202 Q1634.55 32.7556 1632.76 32.7556 Q1626.45 32.7556 1623.04 36.8875 Q1619.68 40.9789 1619.68 48.6757 L1619.68 72.576 L1612.19 72.576 L1612.19 27.2059 L1619.68 27.2059 L1619.68 34.2544 Q1622.03 30.1225 1625.8 28.1376 Q1629.56 26.1121 1634.95 26.1121 Q1635.72 26.1121 1636.65 26.2337 Q1637.59 26.3147 1638.72 26.5172 L1638.76 34.1734 Z" fill="#000000" fill-rule="nonzero" fill-opacity="1"></path><path clip-path="url(#clip710)" d="M1665.13 43.8551 Q1659.3 43.8551 1655.94 46.9743 Q1652.61 50.0935 1652.61 55.5622 Q1652.61 61.0309 1655.94 64.1501 Q1659.3 67.2693 1665.13 67.2693 Q1670.96 67.2693 1674.33 64.1501 Q1677.69 60.9904 1677.69 55.5622 Q1677.69 50.0935 1674.33 46.9743 Q1671.01 43.8551 1665.13 43.8551 M1656.95 40.3713 Q1651.68 39.075 1648.73 35.4697 Q1645.81 31.8644 1645.81 26.6793 Q1645.81 19.4281 1650.95 15.2152 Q1656.14 11.0023 1665.13 11.0023 Q1674.16 11.0023 1679.31 15.2152 Q1684.45 19.4281 1684.45 26.6793 Q1684.45 31.8644 1681.5 35.4697 Q1678.58 39.075 1673.35 40.3713 Q1679.27 41.7486 1682.55 45.759 Q1685.87 49.7694 1685.87 55.5622 Q1685.87 64.3527 1680.48 69.0517 Q1675.14 73.7508 1665.13 73.7508 Q1655.13 73.7508 1649.74 69.0517 Q1644.39 64.3527 1644.39 55.5622 Q1644.39 49.7694 1647.71 45.759 Q1651.03 41.7486 1656.95 40.3713 M1653.95 27.4489 Q1653.95 32.148 1656.87 34.7811 Q1659.82 37.4142 1665.13 37.4142 Q1670.4 37.4142 1673.35 34.7811 Q1676.35 32.148 1676.35 27.4489 Q1676.35 22.7499 1673.35 20.1168 Q1670.4 17.4837 1665.13 17.4837 Q1659.82 17.4837 1656.87 20.1168 Q1653.95 22.7499 1653.95 27.4489 Z" fill="#000000" fill-rule="nonzero" fill-opacity="1"></path><path clip-path="url(#clip710)" d="M1695.59 46.5287 L1717.43 46.5287 L1717.43 53.1722 L1695.59 53.1722 L1695.59 46.5287 Z" fill="#000000" fill-rule="nonzero" fill-opacity="1"></path><path clip-path="url(#clip710)" d="M1729.62 12.096 L1737.8 12.096 L1737.8 36.8875 L1767.54 36.8875 L1767.54 12.096 L1775.72 12.096 L1775.72 72.576 L1767.54 72.576 L1767.54 43.7741 L1737.8 43.7741 L1737.8 72.576 L1729.62 72.576 L1729.62 12.096 Z" fill="#000000" fill-rule="nonzero" fill-opacity="1"></path><path clip-path="url(#clip710)" d="M1830.49 48.0275 L1830.49 51.6733 L1796.22 51.6733 Q1796.7 59.3701 1800.84 63.421 Q1805.01 67.4314 1812.42 67.4314 Q1816.72 67.4314 1820.73 66.3781 Q1824.78 65.3249 1828.75 63.2184 L1828.75 70.267 Q1824.74 71.9684 1820.52 72.8596 Q1816.31 73.7508 1811.98 73.7508 Q1801.12 73.7508 1794.76 67.4314 Q1788.44 61.1119 1788.44 50.3365 Q1788.44 39.1965 1794.44 32.6746 Q1800.47 26.1121 1810.68 26.1121 Q1819.84 26.1121 1825.14 32.0264 Q1830.49 37.9003 1830.49 48.0275 M1823.04 45.84 Q1822.95 39.7232 1819.59 36.0774 Q1816.27 32.4315 1810.76 32.4315 Q1804.52 32.4315 1800.76 35.9558 Q1797.03 39.4801 1796.46 45.8805 L1823.04 45.84 Z" fill="#000000" fill-rule="nonzero" fill-opacity="1"></path><path clip-path="url(#clip710)" d="M1842.72 27.2059 L1850.18 27.2059 L1850.18 72.576 L1842.72 72.576 L1842.72 27.2059 M1842.72 9.54393 L1850.18 9.54393 L1850.18 18.9825 L1842.72 18.9825 L1842.72 9.54393 Z" fill="#000000" fill-rule="nonzero" fill-opacity="1"></path><path clip-path="url(#clip710)" d="M1894.7 28.5427 L1894.7 35.5912 Q1891.54 33.9709 1888.13 33.1607 Q1884.73 32.3505 1881.09 32.3505 Q1875.54 32.3505 1872.74 34.0519 Q1869.99 35.7533 1869.99 39.156 Q1869.99 41.7486 1871.97 43.2475 Q1873.96 44.7058 1879.95 46.0426 L1882.5 46.6097 Q1890.44 48.3111 1893.76 51.4303 Q1897.13 54.509 1897.13 60.0587 Q1897.13 66.3781 1892.1 70.0644 Q1887.12 73.7508 1878.37 73.7508 Q1874.73 73.7508 1870.76 73.0216 Q1866.83 72.3329 1862.45 70.9151 L1862.45 63.2184 Q1866.58 65.3654 1870.59 66.4591 Q1874.6 67.5124 1878.53 67.5124 Q1883.8 67.5124 1886.63 65.73 Q1889.47 63.9071 1889.47 60.6258 Q1889.47 57.5877 1887.4 55.9673 Q1885.38 54.3469 1878.45 52.8481 L1875.86 52.2405 Q1868.93 50.7821 1865.85 47.7845 Q1862.78 44.7463 1862.78 39.4801 Q1862.78 33.0797 1867.31 29.5959 Q1871.85 26.1121 1880.19 26.1121 Q1884.33 26.1121 1887.97 26.7198 Q1891.62 27.3274 1894.7 28.5427 Z" fill="#000000" fill-rule="nonzero" fill-opacity="1"></path><path clip-path="url(#clip710)" d="M1947.8 48.0275 L1947.8 51.6733 L1913.53 51.6733 Q1914.02 59.3701 1918.15 63.421 Q1922.32 67.4314 1929.74 67.4314 Q1934.03 67.4314 1938.04 66.3781 Q1942.09 65.3249 1946.06 63.2184 L1946.06 70.267 Q1942.05 71.9684 1937.84 72.8596 Q1933.63 73.7508 1929.29 73.7508 Q1918.43 73.7508 1912.07 67.4314 Q1905.76 61.1119 1905.76 50.3365 Q1905.76 39.1965 1911.75 32.6746 Q1917.79 26.1121 1927.99 26.1121 Q1937.15 26.1121 1942.46 32.0264 Q1947.8 37.9003 1947.8 48.0275 M1940.35 45.84 Q1940.27 39.7232 1936.91 36.0774 Q1933.58 32.4315 1928.08 32.4315 Q1921.84 32.4315 1918.07 35.9558 Q1914.34 39.4801 1913.78 45.8805 L1940.35 45.84 Z" fill="#000000" fill-rule="nonzero" fill-opacity="1"></path><path clip-path="url(#clip710)" d="M1997.75 45.1919 L1997.75 72.576 L1990.3 72.576 L1990.3 45.4349 Q1990.3 38.994 1987.79 35.7938 Q1985.27 32.5936 1980.25 32.5936 Q1974.22 32.5936 1970.73 36.4419 Q1967.25 40.2903 1967.25 46.9338 L1967.25 72.576 L1959.75 72.576 L1959.75 27.2059 L1967.25 27.2059 L1967.25 34.2544 Q1969.92 30.163 1973.53 28.1376 Q1977.17 26.1121 1981.91 26.1121 Q1989.73 26.1121 1993.74 30.9732 Q1997.75 35.7938 1997.75 45.1919 Z" fill="#000000" fill-rule="nonzero" fill-opacity="1"></path><path clip-path="url(#clip710)" d="M2045.19 49.9314 Q2045.19 41.7081 2041.78 37.0496 Q2038.42 32.3505 2032.51 32.3505 Q2026.59 32.3505 2023.19 37.0496 Q2019.83 41.7081 2019.83 49.9314 Q2019.83 58.1548 2023.19 62.8538 Q2026.59 67.5124 2032.51 67.5124 Q2038.42 67.5124 2041.78 62.8538 Q2045.19 58.1548 2045.19 49.9314 M2019.83 34.0924 Q2022.18 30.0415 2025.74 28.0971 Q2029.35 26.1121 2034.33 26.1121 Q2042.59 26.1121 2047.74 32.6746 Q2052.92 39.2371 2052.92 49.9314 Q2052.92 60.6258 2047.74 67.1883 Q2042.59 73.7508 2034.33 73.7508 Q2029.35 73.7508 2025.74 71.8063 Q2022.18 69.8214 2019.83 65.7705 L2019.83 72.576 L2012.33 72.576 L2012.33 9.54393 L2019.83 9.54393 L2019.83 34.0924 Z" fill="#000000" fill-rule="nonzero" fill-opacity="1"></path><path clip-path="url(#clip710)" d="M2104.09 48.0275 L2104.09 51.6733 L2069.82 51.6733 Q2070.3 59.3701 2074.43 63.421 Q2078.61 67.4314 2086.02 67.4314 Q2090.31 67.4314 2094.32 66.3781 Q2098.38 65.3249 2102.35 63.2184 L2102.35 70.267 Q2098.34 71.9684 2094.12 72.8596 Q2089.91 73.7508 2085.57 73.7508 Q2074.72 73.7508 2068.36 67.4314 Q2062.04 61.1119 2062.04 50.3365 Q2062.04 39.1965 2068.03 32.6746 Q2074.07 26.1121 2084.28 26.1121 Q2093.43 26.1121 2098.74 32.0264 Q2104.09 37.9003 2104.09 48.0275 M2096.63 45.84 Q2096.55 39.7232 2093.19 36.0774 Q2089.87 32.4315 2084.36 32.4315 Q2078.12 32.4315 2074.35 35.9558 Q2070.63 39.4801 2070.06 45.8805 L2096.63 45.84 Z" fill="#000000" fill-rule="nonzero" fill-opacity="1"></path><path clip-path="url(#clip710)" d="M2142.61 34.1734 Q2141.36 33.4443 2139.86 33.1202 Q2138.4 32.7556 2136.62 32.7556 Q2130.3 32.7556 2126.89 36.8875 Q2123.53 40.9789 2123.53 48.6757 L2123.53 72.576 L2116.04 72.576 L2116.04 27.2059 L2123.53 27.2059 L2123.53 34.2544 Q2125.88 30.1225 2129.65 28.1376 Q2133.42 26.1121 2138.8 26.1121 Q2139.57 26.1121 2140.51 26.2337 Q2141.44 26.3147 2142.57 26.5172 L2142.61 34.1734 Z" fill="#000000" fill-rule="nonzero" fill-opacity="1"></path><path clip-path="url(#clip710)" d="M2178.83 49.3643 Q2178.83 41.2625 2175.46 36.8065 Q2172.14 32.3505 2166.11 32.3505 Q2160.11 32.3505 2156.75 36.8065 Q2153.43 41.2625 2153.43 49.3643 Q2153.43 57.4256 2156.75 61.8816 Q2160.11 66.3376 2166.11 66.3376 Q2172.14 66.3376 2175.46 61.8816 Q2178.83 57.4256 2178.83 49.3643 M2186.28 66.9452 Q2186.28 78.5308 2181.14 84.1616 Q2175.99 89.8329 2165.38 89.8329 Q2161.45 89.8329 2157.96 89.2252 Q2154.48 88.6581 2151.2 87.4428 L2151.2 80.1917 Q2154.48 81.9741 2157.68 82.8248 Q2160.88 83.6755 2164.2 83.6755 Q2171.53 83.6755 2175.18 79.8271 Q2178.83 76.0193 2178.83 68.282 L2178.83 64.5957 Q2176.52 68.6061 2172.91 70.5911 Q2169.31 72.576 2164.28 72.576 Q2155.94 72.576 2150.83 66.2161 Q2145.73 59.8562 2145.73 49.3643 Q2145.73 38.832 2150.83 32.472 Q2155.94 26.1121 2164.28 26.1121 Q2169.31 26.1121 2172.91 28.0971 Q2176.52 30.082 2178.83 34.0924 L2178.83 27.2059 L2186.28 27.2059 L2186.28 66.9452 Z" fill="#000000" fill-rule="nonzero" fill-opacity="1"></path><path clip-path="url(#clip710)" d="M2197.87 46.5287 L2219.7 46.5287 L2219.7 53.1722 L2197.87 53.1722 L2197.87 46.5287 Z" fill="#000000" fill-rule="nonzero" fill-opacity="1"></path><path clip-path="url(#clip710)" d="M2228.41 12.096 L2275.93 12.096 L2275.93 18.3344 L2237.69 65.6895 L2276.86 65.6895 L2276.86 72.576 L2227.48 72.576 L2227.48 66.3376 L2265.72 18.9825 L2228.41 18.9825 L2228.41 12.096 Z" fill="#000000" fill-rule="nonzero" fill-opacity="1"></path><polyline clip-path="url(#clip712)" style="stroke:#800080; stroke-linecap:round; stroke-linejoin:round; stroke-width:4; stroke-opacity:1; fill:none" points="280.231,209.896 300.353,284.534 320.474,354.438 340.596,429.304 360.717,430.878 380.839,452.475 400.961,481.396 421.082,499.3 441.204,588.88 461.325,618.356 481.447,669.114 501.569,694.536 521.69,745.408 541.812,804.127 561.933,830.286 582.055,848.699 602.177,851.619 622.298,863.883 642.42,887.518 662.541,898.413 682.663,901.974 702.785,921.862 722.906,931.406 743.028,946.559 763.149,949.318 783.271,992.865 803.393,1015.32 823.514,1017.48 843.636,1035.2 863.757,1045.52 883.879,1054.41 904.001,1066.58 924.122,1079.85 944.244,1081.14 964.365,1090.42 984.487,1097.61 1004.61,1103.75 1024.73,1112.44 1044.85,1119.84 1064.97,1125.76 1085.1,1126.87 1105.22,1136.03 1125.34,1146.03 1145.46,1161.55 1165.58,1174.34 1185.7,1178.72 1205.82,1186.84 1225.95,1195.45 1246.07,1201.55 1266.19,1206.74 1286.31,1217.12 1306.43,1217.97 1326.55,1225.23 1346.68,1231.5 1366.8,1236.88 1386.92,1237.97 1407.04,1241.6 1427.16,1242.21 1447.28,1242.73 1467.41,1243.2 1487.53,1249.98 1507.65,1254.49 1527.77,1258.21 1547.89,1261.07 1568.01,1261.88 1588.14,1268.9 1608.26,1274.61 1628.38,1279.14 1648.5,1282.82 1668.62,1294.69 1688.74,1296.62 1708.86,1300.74 1728.99,1309.46 1749.11,1314.78 1769.23,1317.22 1789.35,1320.57 1809.47,1320.59 1829.59,1322.21 1849.72,1325.49 1869.84,1327.46 1889.96,1327.46 1910.08,1328.69 1930.2,1329.37 1950.32,1329.98 1970.45,1331.32 1990.57,1332.11 2010.69,1332.71 2030.81,1334 2050.93,1335 2071.05,1335.77 2091.18,1335.76 2111.3,1335.64 2131.42,1336.12 2151.54,1337.13 2171.66,1337.09 2191.78,1336.9 2211.9,1336.87 2232.03,1337.28 2252.15,1337.72 2272.27,1337.81 2292.39,1337.97 "></polyline>
<polyline clip-path="url(#clip712)" style="stroke:#e26f46; stroke-linecap:round; stroke-linejoin:round; stroke-width:4; stroke-opacity:1; fill:none" points="280.231,209.896 300.353,284.802 320.474,354.95 340.596,429.873 360.717,431.493 380.839,453.21 400.961,482.273 421.082,500.271 441.204,589.758 461.325,619.347 481.447,670.334 501.569,695.802 521.69,746.747 541.812,805.41 561.933,831.673 582.055,850.112 602.177,853.079 622.298,865.419 642.42,889.124 662.541,900.053 682.663,903.649 702.785,923.529 722.906,933.098 743.028,948.248 763.149,951.041 783.271,994.508 803.393,1017.02 823.514,1019.21 843.636,1036.92 863.757,1047.3 883.879,1056.2 904.001,1068.39 924.122,1081.6 944.244,1082.9 964.365,1092.14 984.487,1099.35 1004.61,1105.5 1024.73,1114.21 1044.85,1121.65 1064.97,1127.57 1085.1,1128.69 1105.22,1137.85 1125.34,1147.78 1145.46,1163.35 1165.58,1176.18 1185.7,1180.62 1205.82,1188.7 1225.95,1197.26 1246.07,1203.34 1266.19,1208.53 1286.31,1218.94 1306.43,1219.79 1326.55,1226.99 1346.68,1233.22 1366.8,1238.58 1386.92,1239.69 1407.04,1243.34 1427.16,1243.94 1447.28,1244.46 1467.41,1244.94 1487.53,1251.75 1507.65,1256.36 1527.77,1260.08 1547.89,1262.93 1568.01,1263.74 1588.14,1270.68 1608.26,1276.33 1628.38,1280.8 1648.5,1284.45 1668.62,1296.27 1688.74,1298.19 1708.86,1302.25 1728.99,1310.63 1749.11,1315.93 1769.23,1318.29 1789.35,1321.62 1809.47,1321.63 1829.59,1323.21 1849.72,1326.45 1869.84,1328.38 1889.96,1328.37 1910.08,1329.48 1930.2,1330.13 1950.32,1330.71 1970.45,1332.06 1990.57,1332.86 2010.69,1333.46 2030.81,1334.69 2050.93,1335.64 2071.05,1336.42 2091.18,1336.39 2111.3,1336.26 2131.42,1336.72 2151.54,1337.55 2171.66,1337.49 2191.78,1337.28 2211.9,1337.23 2232.03,1337.61 2252.15,1338.03 2272.27,1338.1 2292.39,1338.24 "></polyline>
<polyline clip-path="url(#clip712)" style="stroke:#3da44d; stroke-linecap:round; stroke-linejoin:round; stroke-width:4; stroke-opacity:1; fill:none" points="280.231,209.896 300.353,286.315 320.474,357.821 340.596,432.929 360.717,434.744 380.839,457.093 400.961,486.464 421.082,504.956 441.204,594.535 461.325,624.238 481.447,676.141 501.569,701.971 521.69,753.357 541.812,812.109 561.933,838.792 582.055,857.438 602.177,860.586 622.298,873.285 642.42,897.348 662.541,908.449 682.663,912.191 702.785,932.105 722.906,941.781 743.028,956.959 763.149,959.88 783.271,1003.11 803.393,1025.84 823.514,1028.14 843.636,1045.76 863.757,1056.36 883.879,1065.28 904.001,1077.57 924.122,1090.57 944.244,1091.9 964.365,1100.97 984.487,1108.21 1004.61,1114.39 1024.73,1123.18 1044.85,1130.7 1064.97,1136.65 1085.1,1137.78 1105.22,1146.91 1125.34,1156.57 1145.46,1172.32 1165.58,1185.3 1185.7,1189.87 1205.82,1197.78 1225.95,1206.11 1246.07,1212.12 1266.19,1217.27 1286.31,1227.78 1306.43,1228.6 1326.55,1235.55 1346.68,1241.56 1366.8,1246.76 1386.92,1247.88 1407.04,1251.59 1427.16,1252.19 1447.28,1252.72 1467.41,1253.2 1487.53,1260.1 1507.65,1264.86 1527.77,1268.53 1547.89,1271.3 1568.01,1272.08 1588.14,1278.67 1608.26,1283.96 1628.38,1288.1 1648.5,1291.59 1668.62,1303.17 1688.74,1304.98 1708.86,1308.7 1728.99,1315.54 1749.11,1320.66 1769.23,1322.82 1789.35,1325.98 1809.47,1325.96 1829.59,1327.43 1849.72,1330.37 1869.84,1332.03 1889.96,1331.79 1910.08,1332.58 1930.2,1333.12 1950.32,1333.58 1970.45,1334.92 1990.57,1335.69 2010.69,1336.27 2030.81,1337.28 2050.93,1337.91 2071.05,1338.24 2091.18,1338.13 2111.3,1337.93 2131.42,1338.28 2151.54,1338.89 2171.66,1338.76 2191.78,1338.49 2211.9,1338.36 2232.03,1338.6 2252.15,1338.92 2272.27,1338.93 2292.39,1338.98 "></polyline>
<polyline clip-path="url(#clip712)" style="stroke:#c271d2; stroke-linecap:round; stroke-linejoin:round; stroke-width:4; stroke-opacity:1; fill:none" points="280.231,209.896 300.353,292.862 320.474,370.168 340.596,445.918 360.717,448.511 380.839,473.621 400.961,503.667 421.082,524.308 441.204,614.875 461.325,644.347 481.447,699.615 501.569,727.076 521.69,780.385 541.812,839.927 561.933,868.163 582.055,887.645 602.177,891.479 622.298,905.549 642.42,930.922 662.541,942.674 682.663,946.947 702.785,966.994 722.906,977.014 743.028,992.288 763.149,995.659 783.271,1038.05 803.393,1061.37 823.514,1064.04 843.636,1081.11 863.757,1092.29 883.879,1101.28 904.001,1113.75 924.122,1125.89 944.244,1127.34 964.365,1135.77 984.487,1143.02 1004.61,1149.21 1024.73,1158.13 1044.85,1165.76 1064.97,1171.7 1085.1,1172.91 1105.22,1181.76 1125.34,1190.33 1145.46,1206.54 1165.58,1219.86 1185.7,1224.69 1205.82,1231.83 1225.95,1239.11 1246.07,1244.77 1266.19,1249.63 1286.31,1260.24 1306.43,1260.97 1326.55,1266.74 1346.68,1271.59 1366.8,1275.62 1386.92,1276.54 1407.04,1280.02 1427.16,1280.48 1447.28,1280.87 1467.41,1281.2 1487.53,1287.36 1507.65,1291.55 1527.77,1294.81 1547.89,1296.62 1568.01,1296.86 1588.14,1301.81 1608.26,1305.74 1628.38,1308.83 1648.5,1310.75 1668.62,1319.93 1688.74,1320.81 1708.86,1323.59 1728.99,1328.84 1749.11,1332.71 1769.23,1333.96 1789.35,1336.62 1809.47,1336.27 1829.59,1336.94 1849.72,1339.05 1869.84,1340.03 1889.96,1339.73 1910.08,1339.72 1930.2,1339.49 1950.32,1339.62 1970.45,1340.21 1990.57,1340.43 2010.69,1340.55 2030.81,1340.78 2050.93,1340.89 2071.05,1341.06 2091.18,1340.84 2111.3,1340.59 2131.42,1340.64 2151.54,1340.85 2171.66,1340.5 2191.78,1340.11 2211.9,1339.75 2232.03,1339.69 2252.15,1339.78 2272.27,1339.59 2292.39,1339.46 "></polyline>
<polyline clip-path="url(#clip712)" style="stroke:#ac8d18; stroke-linecap:round; stroke-linejoin:round; stroke-width:4; stroke-opacity:1; fill:none" points="280.231,209.896 300.353,313.503 320.474,408.522 340.596,486.481 360.717,491.891 380.839,526.951 400.961,558.34 421.082,586.821 441.204,679.273 461.325,706.845 481.447,770.98 501.569,803.06 521.69,861.594 541.812,922.423 561.933,953.348 582.055,974.464 602.177,981.283 622.298,999.4 642.42,1024.92 662.541,1039.91 682.663,1045.6 702.785,1065.27 722.906,1075.55 743.028,1090.77 763.149,1095.27 783.271,1133.64 803.393,1156.08 823.514,1160.55 843.636,1174.45 863.757,1185.78 883.879,1194.33 904.001,1205.98 924.122,1215.11 944.244,1217.04 964.365,1223.64 984.487,1230.19 1004.61,1235.57 1024.73,1243.86 1044.85,1250.41 1064.97,1255.03 1085.1,1255.84 1105.22,1262.67 1125.34,1267.48 1145.46,1279.04 1165.58,1287.63 1185.7,1290.75 1205.82,1295.74 1225.95,1298.78 1246.07,1302.64 1266.19,1305.82 1286.31,1311.48 1306.43,1311.33 1326.55,1313.32 1346.68,1314.9 1366.8,1316.17 1386.92,1316.55 1407.04,1318.56 1427.16,1318.56 1447.28,1318.58 1467.41,1318.64 1487.53,1322.64 1507.65,1325.5 1527.77,1327.62 1547.89,1328.98 1568.01,1328.76 1588.14,1330.32 1608.26,1331.45 1628.38,1332.25 1648.5,1332.81 1668.62,1335.83 1688.74,1336.44 1708.86,1336.89 1728.99,1338.02 1749.11,1338.64 1769.23,1338.58 1789.35,1338.86 1809.47,1338.49 1829.59,1338.14 1849.72,1338.33 1869.84,1338.25 1889.96,1337.89 1910.08,1337.47 1930.2,1337.03 1950.32,1336.88 1970.45,1336.77 1990.57,1336.57 2010.69,1336.38 2030.81,1336.13 2050.93,1335.89 2071.05,1335.71 2091.18,1335.42 2111.3,1335.16 2131.42,1335.02 2151.54,1334.86 2171.66,1334.52 2191.78,1334.26 2211.9,1333.92 2232.03,1333.73 2252.15,1333.59 2272.27,1333.44 2292.39,1333.26 "></polyline>
<polyline clip-path="url(#clip712)" style="stroke:#00a9ad; stroke-linecap:round; stroke-linejoin:round; stroke-width:4; stroke-opacity:1; fill:none" points="280.231,209.896 300.353,326.904 320.474,434.789 340.596,521.014 360.717,531.703 380.839,582.477 400.961,615.728 421.082,655.88 441.204,747.125 461.325,773.32 481.447,843.492 501.569,878.908 521.69,938.928 541.812,997.326 561.933,1029.15 582.055,1051.75 602.177,1061.28 622.298,1081.3 642.42,1104.17 662.541,1119.91 682.663,1127.77 702.785,1142.99 722.906,1153.91 743.028,1165.78 763.149,1171.08 783.271,1199.25 803.393,1216.66 823.514,1220.89 843.636,1233.1 863.757,1242.71 883.879,1249.92 904.001,1259.3 924.122,1264.81 944.244,1266.61 964.365,1270.86 984.487,1276.21 1004.61,1280.39 1024.73,1287.06 1044.85,1292.44 1064.97,1296.08 1085.1,1297.21 1105.22,1302.12 1125.34,1304.88 1145.46,1311.73 1165.58,1316.94 1185.7,1319.25 1205.82,1322.27 1225.95,1323.71 1246.07,1325.79 1266.19,1327.38 1286.31,1328.86 1306.43,1328.92 1326.55,1329.57 1346.68,1330.07 1366.8,1330.47 1386.92,1330.46 1407.04,1331.83 1427.16,1331.85 1447.28,1331.87 1467.41,1331.91 1487.53,1331.88 1507.65,1331.65 1527.77,1331.13 1547.89,1331.85 1568.01,1331.62 1588.14,1332.12 1608.26,1332.47 1628.38,1332.7 1648.5,1332.77 1668.62,1333.31 1688.74,1333.62 1708.86,1333.78 1728.99,1333.92 1749.11,1333.93 1769.23,1333.88 1789.35,1333.83 1809.47,1333.69 1829.59,1333.3 1849.72,1333.3 1869.84,1333.24 1889.96,1333.13 1910.08,1332.86 1930.2,1332.61 1950.32,1332.61 1970.45,1332.58 1990.57,1332.52 2010.69,1332.47 2030.81,1332.41 2050.93,1332.35 2071.05,1332.3 2091.18,1332.24 2111.3,1332.19 2131.42,1332.17 2151.54,1332.14 2171.66,1331.99 2191.78,1331.94 2211.9,1331.81 2232.03,1331.78 2252.15,1331.75 2272.27,1331.74 2292.39,1331.71 "></polyline>
<polyline clip-path="url(#clip712)" style="stroke:#ed5d92; stroke-linecap:round; stroke-linejoin:round; stroke-width:4; stroke-opacity:1; fill:none" points="280.231,209.896 300.353,327.091 320.474,435.184 340.596,521.595 360.717,532.457 380.839,583.799 400.961,617.164 421.082,657.746 441.204,748.936 461.325,775.243 481.447,845.504 501.569,880.996 521.69,940.956 541.812,999.227 561.933,1031.06 582.055,1053.76 602.177,1063.35 622.298,1083.28 642.42,1106.11 662.541,1121.77 682.663,1129.46 702.785,1144.46 722.906,1155.31 743.028,1167.24 763.149,1172.41 783.271,1200.38 803.393,1217.95 823.514,1222.18 843.636,1234.39 863.757,1243.99 883.879,1251.2 904.001,1260.55 924.122,1266.05 944.244,1267.87 964.365,1272.11 984.487,1277.46 1004.61,1281.63 1024.73,1288.28 1044.85,1293.64 1064.97,1297.26 1085.1,1298.4 1105.22,1303.27 1125.34,1306.01 1145.46,1312.76 1165.58,1317.89 1185.7,1320.18 1205.82,1323.15 1225.95,1324.57 1246.07,1326.62 1266.19,1328.2 1286.31,1329.63 1306.43,1329.69 1326.55,1330.34 1346.68,1330.85 1366.8,1331.25 1386.92,1331.23 1407.04,1332.54 1427.16,1332.56 1447.28,1332.59 1467.41,1332.63 1487.53,1332.59 1507.65,1332.35 1527.77,1331.84 1547.89,1332.56 1568.01,1332.32 1588.14,1332.82 1608.26,1333.17 1628.38,1333.42 1648.5,1333.49 1668.62,1334.01 1688.74,1334.31 1708.86,1334.48 1728.99,1334.61 1749.11,1334.63 1769.23,1334.58 1789.35,1334.54 1809.47,1334.39 1829.59,1334.03 1849.72,1334.03 1869.84,1333.98 1889.96,1333.87 1910.08,1333.61 1930.2,1333.39 1950.32,1333.4 1970.45,1333.37 1990.57,1333.32 2010.69,1333.28 2030.81,1333.2 2050.93,1333.13 2071.05,1333.08 2091.18,1333.02 2111.3,1332.96 2131.42,1332.96 2151.54,1332.93 2171.66,1332.8 2191.78,1332.75 2211.9,1332.63 2232.03,1332.59 2252.15,1332.57 2272.27,1332.56 2292.39,1332.52 "></polyline>
<polyline clip-path="url(#clip712)" style="stroke:#c68125; stroke-linecap:round; stroke-linejoin:round; stroke-width:4; stroke-opacity:1; fill:none" points="280.231,209.896 300.353,327.091 320.474,435.184 340.596,521.595 360.717,532.457 380.839,583.799 400.961,617.164 421.082,657.746 441.204,748.936 461.325,775.243 481.447,845.504 501.569,880.996 521.69,940.956 541.812,999.227 561.933,1031.06 582.055,1053.76 602.177,1063.35 622.298,1083.28 642.42,1106.11 662.541,1121.77 682.663,1129.46 702.785,1144.46 722.906,1155.31 743.028,1167.24 763.149,1172.41 783.271,1200.38 803.393,1217.95 823.514,1222.18 843.636,1234.39 863.757,1243.99 883.879,1251.2 904.001,1260.55 924.122,1266.05 944.244,1267.87 964.365,1272.11 984.487,1277.46 1004.61,1281.63 1024.73,1288.28 1044.85,1293.64 1064.97,1297.26 1085.1,1298.4 1105.22,1303.27 1125.34,1306.01 1145.46,1312.76 1165.58,1317.89 1185.7,1320.18 1205.82,1323.15 1225.95,1324.57 1246.07,1326.62 1266.19,1328.2 1286.31,1329.63 1306.43,1329.69 1326.55,1330.34 1346.68,1330.85 1366.8,1331.25 1386.92,1331.23 1407.04,1332.54 1427.16,1332.56 1447.28,1332.59 1467.41,1332.63 1487.53,1332.59 1507.65,1332.35 1527.77,1331.84 1547.89,1332.56 1568.01,1332.32 1588.14,1332.82 1608.26,1333.17 1628.38,1333.42 1648.5,1333.49 1668.62,1334.01 1688.74,1334.31 1708.86,1334.48 1728.99,1334.61 1749.11,1334.63 1769.23,1334.58 1789.35,1334.54 1809.47,1334.39 1829.59,1334.03 1849.72,1334.03 1869.84,1333.98 1889.96,1333.87 1910.08,1333.61 1930.2,1333.39 1950.32,1333.4 1970.45,1333.37 1990.57,1333.32 2010.69,1333.28 2030.81,1333.2 2050.93,1333.13 2071.05,1333.08 2091.18,1333.02 2111.3,1332.96 2131.42,1332.96 2151.54,1332.93 2171.66,1332.8 2191.78,1332.75 2211.9,1332.63 2232.03,1332.59 2252.15,1332.57 2272.27,1332.56 2292.39,1332.52 "></polyline>
<polyline clip-path="url(#clip712)" style="stroke:#00a98d; stroke-linecap:round; stroke-linejoin:round; stroke-width:4; stroke-opacity:1; fill:none" points="280.231,209.896 300.353,327.091 320.474,435.184 340.596,521.595 360.717,532.457 380.839,583.799 400.961,617.164 421.082,657.746 441.204,748.936 461.325,775.243 481.447,845.504 501.569,880.996 521.69,940.956 541.812,999.227 561.933,1031.06 582.055,1053.76 602.177,1063.35 622.298,1083.28 642.42,1106.11 662.541,1121.77 682.663,1129.46 702.785,1144.46 722.906,1155.31 743.028,1167.24 763.149,1172.41 783.271,1200.38 803.393,1217.95 823.514,1222.18 843.636,1234.39 863.757,1243.99 883.879,1251.2 904.001,1260.55 924.122,1266.05 944.244,1267.87 964.365,1272.11 984.487,1277.46 1004.61,1281.63 1024.73,1288.28 1044.85,1293.64 1064.97,1297.26 1085.1,1298.4 1105.22,1303.27 1125.34,1306.01 1145.46,1312.76 1165.58,1317.89 1185.7,1320.18 1205.82,1323.15 1225.95,1324.57 1246.07,1326.62 1266.19,1328.2 1286.31,1329.63 1306.43,1329.69 1326.55,1330.34 1346.68,1330.85 1366.8,1331.25 1386.92,1331.23 1407.04,1332.54 1427.16,1332.56 1447.28,1332.59 1467.41,1332.63 1487.53,1332.59 1507.65,1332.35 1527.77,1331.84 1547.89,1332.56 1568.01,1332.32 1588.14,1332.82 1608.26,1333.17 1628.38,1333.42 1648.5,1333.49 1668.62,1334.01 1688.74,1334.31 1708.86,1334.48 1728.99,1334.61 1749.11,1334.63 1769.23,1334.58 1789.35,1334.54 1809.47,1334.39 1829.59,1334.03 1849.72,1334.03 1869.84,1333.98 1889.96,1333.87 1910.08,1333.61 1930.2,1333.39 1950.32,1333.4 1970.45,1333.37 1990.57,1333.32 2010.69,1333.28 2030.81,1333.2 2050.93,1333.13 2071.05,1333.08 2091.18,1333.02 2111.3,1332.96 2131.42,1332.96 2151.54,1332.93 2171.66,1332.8 2191.78,1332.75 2211.9,1332.63 2232.03,1332.59 2252.15,1332.57 2272.27,1332.56 2292.39,1332.52 "></polyline>
<path clip-path="url(#clip710)" d="M1985.96 685.196 L2281.66 685.196 L2281.66 166.796 L1985.96 166.796  Z" fill="#ffffff" fill-rule="evenodd" fill-opacity="1"></path>
<polyline clip-path="url(#clip710)" style="stroke:#000000; stroke-linecap:round; stroke-linejoin:round; stroke-width:4; stroke-opacity:1; fill:none" points="1985.96,685.196 2281.66,685.196 2281.66,166.796 1985.96,166.796 1985.96,685.196 "></polyline>
<polyline clip-path="url(#clip710)" style="stroke:#800080; stroke-linecap:round; stroke-linejoin:round; stroke-width:4; stroke-opacity:1; fill:none" points="2009.66,218.636 2151.86,218.636 "></polyline>
<path clip-path="url(#clip710)" d="M2190.74 213.971 Q2190.02 213.555 2189.16 213.37 Q2188.33 213.161 2187.31 213.161 Q2183.7 213.161 2181.76 215.522 Q2179.84 217.86 2179.84 222.258 L2179.84 235.916 L2175.55 235.916 L2175.55 209.99 L2179.84 209.99 L2179.84 214.018 Q2181.18 211.657 2183.33 210.522 Q2185.48 209.365 2188.56 209.365 Q2189 209.365 2189.54 209.434 Q2190.07 209.481 2190.72 209.596 L2190.74 213.971 Z" fill="#000000" fill-rule="nonzero" fill-opacity="1"></path><path clip-path="url(#clip710)" d="M2195.76 214.388 L2225.44 214.388 L2225.44 218.277 L2195.76 218.277 L2195.76 214.388 M2195.76 223.832 L2225.44 223.832 L2225.44 227.768 L2195.76 227.768 L2195.76 223.832 Z" fill="#000000" fill-rule="nonzero" fill-opacity="1"></path><path clip-path="url(#clip710)" d="M2236.34 231.981 L2243.98 231.981 L2243.98 205.615 L2235.67 207.282 L2235.67 203.022 L2243.93 201.356 L2248.61 201.356 L2248.61 231.981 L2256.25 231.981 L2256.25 235.916 L2236.34 235.916 L2236.34 231.981 Z" fill="#000000" fill-rule="nonzero" fill-opacity="1"></path><polyline clip-path="url(#clip710)" style="stroke:#e26f46; stroke-linecap:round; stroke-linejoin:round; stroke-width:4; stroke-opacity:1; fill:none" points="2009.66,270.476 2151.86,270.476 "></polyline>
<path clip-path="url(#clip710)" d="M2190.74 265.811 Q2190.02 265.395 2189.16 265.21 Q2188.33 265.001 2187.31 265.001 Q2183.7 265.001 2181.76 267.362 Q2179.84 269.7 2179.84 274.098 L2179.84 287.756 L2175.55 287.756 L2175.55 261.83 L2179.84 261.83 L2179.84 265.858 Q2181.18 263.497 2183.33 262.362 Q2185.48 261.205 2188.56 261.205 Q2189 261.205 2189.54 261.274 Q2190.07 261.321 2190.72 261.436 L2190.74 265.811 Z" fill="#000000" fill-rule="nonzero" fill-opacity="1"></path><path clip-path="url(#clip710)" d="M2195.76 266.228 L2225.44 266.228 L2225.44 270.117 L2195.76 270.117 L2195.76 266.228 M2195.76 275.672 L2225.44 275.672 L2225.44 279.608 L2195.76 279.608 L2195.76 275.672 Z" fill="#000000" fill-rule="nonzero" fill-opacity="1"></path><path clip-path="url(#clip710)" d="M2239.56 283.821 L2255.88 283.821 L2255.88 287.756 L2233.93 287.756 L2233.93 283.821 Q2236.6 281.066 2241.18 276.436 Q2245.78 271.784 2246.97 270.441 Q2249.21 267.918 2250.09 266.182 Q2250.99 264.423 2250.99 262.733 Q2250.99 259.978 2249.05 258.242 Q2247.13 256.506 2244.03 256.506 Q2241.83 256.506 2239.37 257.27 Q2236.94 258.034 2234.16 259.585 L2234.16 254.862 Q2236.99 253.728 2239.44 253.149 Q2241.9 252.571 2243.93 252.571 Q2249.3 252.571 2252.5 255.256 Q2255.69 257.941 2255.69 262.432 Q2255.69 264.561 2254.88 266.483 Q2254.1 268.381 2251.99 270.973 Q2251.41 271.645 2248.31 274.862 Q2245.21 278.057 2239.56 283.821 Z" fill="#000000" fill-rule="nonzero" fill-opacity="1"></path><polyline clip-path="url(#clip710)" style="stroke:#3da44d; stroke-linecap:round; stroke-linejoin:round; stroke-width:4; stroke-opacity:1; fill:none" points="2009.66,322.316 2151.86,322.316 "></polyline>
<path clip-path="url(#clip710)" d="M2190.74 317.651 Q2190.02 317.235 2189.16 317.05 Q2188.33 316.841 2187.31 316.841 Q2183.7 316.841 2181.76 319.202 Q2179.84 321.54 2179.84 325.938 L2179.84 339.596 L2175.55 339.596 L2175.55 313.67 L2179.84 313.67 L2179.84 317.698 Q2181.18 315.337 2183.33 314.202 Q2185.48 313.045 2188.56 313.045 Q2189 313.045 2189.54 313.114 Q2190.07 313.161 2190.72 313.276 L2190.74 317.651 Z" fill="#000000" fill-rule="nonzero" fill-opacity="1"></path><path clip-path="url(#clip710)" d="M2195.76 318.068 L2225.44 318.068 L2225.44 321.957 L2195.76 321.957 L2195.76 318.068 M2195.76 327.512 L2225.44 327.512 L2225.44 331.448 L2195.76 331.448 L2195.76 327.512 Z" fill="#000000" fill-rule="nonzero" fill-opacity="1"></path><path clip-path="url(#clip710)" d="M2249.7 320.962 Q2253.05 321.679 2254.93 323.948 Q2256.83 326.216 2256.83 329.549 Q2256.83 334.665 2253.31 337.466 Q2249.79 340.267 2243.31 340.267 Q2241.13 340.267 2238.82 339.827 Q2236.53 339.411 2234.07 338.554 L2234.07 334.04 Q2236.02 335.174 2238.33 335.753 Q2240.65 336.332 2243.17 336.332 Q2247.57 336.332 2249.86 334.596 Q2252.17 332.86 2252.17 329.549 Q2252.17 326.494 2250.02 324.781 Q2247.89 323.045 2244.07 323.045 L2240.04 323.045 L2240.04 319.202 L2244.26 319.202 Q2247.71 319.202 2249.53 317.837 Q2251.36 316.448 2251.36 313.855 Q2251.36 311.193 2249.47 309.781 Q2247.59 308.346 2244.07 308.346 Q2242.15 308.346 2239.95 308.763 Q2237.75 309.179 2235.11 310.059 L2235.11 305.892 Q2237.78 305.151 2240.09 304.781 Q2242.43 304.411 2244.49 304.411 Q2249.81 304.411 2252.91 306.841 Q2256.02 309.249 2256.02 313.369 Q2256.02 316.239 2254.37 318.23 Q2252.73 320.198 2249.7 320.962 Z" fill="#000000" fill-rule="nonzero" fill-opacity="1"></path><polyline clip-path="url(#clip710)" style="stroke:#c271d2; stroke-linecap:round; stroke-linejoin:round; stroke-width:4; stroke-opacity:1; fill:none" points="2009.66,374.156 2151.86,374.156 "></polyline>
<path clip-path="url(#clip710)" d="M2190.74 369.491 Q2190.02 369.075 2189.16 368.89 Q2188.33 368.681 2187.31 368.681 Q2183.7 368.681 2181.76 371.042 Q2179.84 373.38 2179.84 377.778 L2179.84 391.436 L2175.55 391.436 L2175.55 365.51 L2179.84 365.51 L2179.84 369.538 Q2181.18 367.177 2183.33 366.042 Q2185.48 364.885 2188.56 364.885 Q2189 364.885 2189.54 364.954 Q2190.07 365.001 2190.72 365.116 L2190.74 369.491 Z" fill="#000000" fill-rule="nonzero" fill-opacity="1"></path><path clip-path="url(#clip710)" d="M2195.76 369.908 L2225.44 369.908 L2225.44 373.797 L2195.76 373.797 L2195.76 369.908 M2195.76 379.352 L2225.44 379.352 L2225.44 383.288 L2195.76 383.288 L2195.76 379.352 Z" fill="#000000" fill-rule="nonzero" fill-opacity="1"></path><path clip-path="url(#clip710)" d="M2248.38 360.95 L2236.57 379.399 L2248.38 379.399 L2248.38 360.95 M2247.15 356.876 L2253.03 356.876 L2253.03 379.399 L2257.96 379.399 L2257.96 383.288 L2253.03 383.288 L2253.03 391.436 L2248.38 391.436 L2248.38 383.288 L2232.78 383.288 L2232.78 378.774 L2247.15 356.876 Z" fill="#000000" fill-rule="nonzero" fill-opacity="1"></path><polyline clip-path="url(#clip710)" style="stroke:#ac8d18; stroke-linecap:round; stroke-linejoin:round; stroke-width:4; stroke-opacity:1; fill:none" points="2009.66,425.996 2151.86,425.996 "></polyline>
<path clip-path="url(#clip710)" d="M2190.74 421.331 Q2190.02 420.915 2189.16 420.73 Q2188.33 420.521 2187.31 420.521 Q2183.7 420.521 2181.76 422.882 Q2179.84 425.22 2179.84 429.618 L2179.84 443.276 L2175.55 443.276 L2175.55 417.35 L2179.84 417.35 L2179.84 421.378 Q2181.18 419.017 2183.33 417.882 Q2185.48 416.725 2188.56 416.725 Q2189 416.725 2189.54 416.794 Q2190.07 416.841 2190.72 416.956 L2190.74 421.331 Z" fill="#000000" fill-rule="nonzero" fill-opacity="1"></path><path clip-path="url(#clip710)" d="M2195.76 421.748 L2225.44 421.748 L2225.44 425.637 L2195.76 425.637 L2195.76 421.748 M2195.76 431.192 L2225.44 431.192 L2225.44 435.128 L2195.76 435.128 L2195.76 431.192 Z" fill="#000000" fill-rule="nonzero" fill-opacity="1"></path><path clip-path="url(#clip710)" d="M2235.58 408.716 L2253.93 408.716 L2253.93 412.651 L2239.86 412.651 L2239.86 421.123 Q2240.88 420.776 2241.9 420.614 Q2242.91 420.429 2243.93 420.429 Q2249.72 420.429 2253.1 423.6 Q2256.48 426.771 2256.48 432.188 Q2256.48 437.766 2253.01 440.868 Q2249.53 443.947 2243.22 443.947 Q2241.04 443.947 2238.77 443.577 Q2236.53 443.206 2234.12 442.466 L2234.12 437.766 Q2236.2 438.901 2238.42 439.456 Q2240.65 440.012 2243.12 440.012 Q2247.13 440.012 2249.47 437.905 Q2251.8 435.799 2251.8 432.188 Q2251.8 428.577 2249.47 426.47 Q2247.13 424.364 2243.12 424.364 Q2241.25 424.364 2239.37 424.78 Q2237.52 425.197 2235.58 426.077 L2235.58 408.716 Z" fill="#000000" fill-rule="nonzero" fill-opacity="1"></path><polyline clip-path="url(#clip710)" style="stroke:#00a9ad; stroke-linecap:round; stroke-linejoin:round; stroke-width:4; stroke-opacity:1; fill:none" points="2009.66,477.836 2151.86,477.836 "></polyline>
<path clip-path="url(#clip710)" d="M2190.74 473.171 Q2190.02 472.755 2189.16 472.57 Q2188.33 472.361 2187.31 472.361 Q2183.7 472.361 2181.76 474.722 Q2179.84 477.06 2179.84 481.458 L2179.84 495.116 L2175.55 495.116 L2175.55 469.19 L2179.84 469.19 L2179.84 473.218 Q2181.18 470.857 2183.33 469.722 Q2185.48 468.565 2188.56 468.565 Q2189 468.565 2189.54 468.634 Q2190.07 468.681 2190.72 468.796 L2190.74 473.171 Z" fill="#000000" fill-rule="nonzero" fill-opacity="1"></path><path clip-path="url(#clip710)" d="M2195.76 473.588 L2225.44 473.588 L2225.44 477.477 L2195.76 477.477 L2195.76 473.588 M2195.76 483.032 L2225.44 483.032 L2225.44 486.968 L2195.76 486.968 L2195.76 483.032 Z" fill="#000000" fill-rule="nonzero" fill-opacity="1"></path><path clip-path="url(#clip710)" d="M2246.11 475.972 Q2242.96 475.972 2241.11 478.125 Q2239.28 480.278 2239.28 484.028 Q2239.28 487.755 2241.11 489.931 Q2242.96 492.083 2246.11 492.083 Q2249.26 492.083 2251.09 489.931 Q2252.94 487.755 2252.94 484.028 Q2252.94 480.278 2251.09 478.125 Q2249.26 475.972 2246.11 475.972 M2255.39 461.32 L2255.39 465.579 Q2253.63 464.746 2251.83 464.306 Q2250.04 463.866 2248.28 463.866 Q2243.66 463.866 2241.2 466.991 Q2238.77 470.116 2238.42 476.435 Q2239.79 474.421 2241.85 473.357 Q2243.91 472.269 2246.39 472.269 Q2251.6 472.269 2254.6 475.44 Q2257.64 478.588 2257.64 484.028 Q2257.64 489.352 2254.49 492.569 Q2251.34 495.787 2246.11 495.787 Q2240.11 495.787 2236.94 491.204 Q2233.77 486.597 2233.77 477.87 Q2233.77 469.676 2237.66 464.815 Q2241.55 459.931 2248.1 459.931 Q2249.86 459.931 2251.64 460.278 Q2253.45 460.625 2255.39 461.32 Z" fill="#000000" fill-rule="nonzero" fill-opacity="1"></path><polyline clip-path="url(#clip710)" style="stroke:#ed5d92; stroke-linecap:round; stroke-linejoin:round; stroke-width:4; stroke-opacity:1; fill:none" points="2009.66,529.676 2151.86,529.676 "></polyline>
<path clip-path="url(#clip710)" d="M2190.74 525.011 Q2190.02 524.595 2189.16 524.41 Q2188.33 524.201 2187.31 524.201 Q2183.7 524.201 2181.76 526.562 Q2179.84 528.9 2179.84 533.298 L2179.84 546.956 L2175.55 546.956 L2175.55 521.03 L2179.84 521.03 L2179.84 525.058 Q2181.18 522.697 2183.33 521.562 Q2185.48 520.405 2188.56 520.405 Q2189 520.405 2189.54 520.474 Q2190.07 520.521 2190.72 520.636 L2190.74 525.011 Z" fill="#000000" fill-rule="nonzero" fill-opacity="1"></path><path clip-path="url(#clip710)" d="M2195.76 525.428 L2225.44 525.428 L2225.44 529.317 L2195.76 529.317 L2195.76 525.428 M2195.76 534.872 L2225.44 534.872 L2225.44 538.808 L2195.76 538.808 L2195.76 534.872 Z" fill="#000000" fill-rule="nonzero" fill-opacity="1"></path><path clip-path="url(#clip710)" d="M2234.35 512.396 L2256.57 512.396 L2256.57 514.386 L2244.03 546.956 L2239.14 546.956 L2250.95 516.331 L2234.35 516.331 L2234.35 512.396 Z" fill="#000000" fill-rule="nonzero" fill-opacity="1"></path><polyline clip-path="url(#clip710)" style="stroke:#c68125; stroke-linecap:round; stroke-linejoin:round; stroke-width:4; stroke-opacity:1; fill:none" points="2009.66,581.516 2151.86,581.516 "></polyline>
<path clip-path="url(#clip710)" d="M2190.74 576.851 Q2190.02 576.435 2189.16 576.25 Q2188.33 576.041 2187.31 576.041 Q2183.7 576.041 2181.76 578.402 Q2179.84 580.74 2179.84 585.138 L2179.84 598.796 L2175.55 598.796 L2175.55 572.87 L2179.84 572.87 L2179.84 576.898 Q2181.18 574.537 2183.33 573.402 Q2185.48 572.245 2188.56 572.245 Q2189 572.245 2189.54 572.314 Q2190.07 572.361 2190.72 572.476 L2190.74 576.851 Z" fill="#000000" fill-rule="nonzero" fill-opacity="1"></path><path clip-path="url(#clip710)" d="M2195.76 577.268 L2225.44 577.268 L2225.44 581.157 L2195.76 581.157 L2195.76 577.268 M2195.76 586.712 L2225.44 586.712 L2225.44 590.648 L2195.76 590.648 L2195.76 586.712 Z" fill="#000000" fill-rule="nonzero" fill-opacity="1"></path><path clip-path="url(#clip710)" d="M2245.53 582.384 Q2242.2 582.384 2240.28 584.166 Q2238.38 585.949 2238.38 589.074 Q2238.38 592.199 2240.28 593.981 Q2242.2 595.763 2245.53 595.763 Q2248.86 595.763 2250.78 593.981 Q2252.71 592.175 2252.71 589.074 Q2252.71 585.949 2250.78 584.166 Q2248.89 582.384 2245.53 582.384 M2240.85 580.393 Q2237.85 579.652 2236.16 577.592 Q2234.49 575.532 2234.49 572.569 Q2234.49 568.426 2237.43 566.018 Q2240.39 563.611 2245.53 563.611 Q2250.69 563.611 2253.63 566.018 Q2256.57 568.426 2256.57 572.569 Q2256.57 575.532 2254.88 577.592 Q2253.22 579.652 2250.23 580.393 Q2253.61 581.18 2255.48 583.472 Q2257.38 585.763 2257.38 589.074 Q2257.38 594.097 2254.3 596.782 Q2251.25 599.467 2245.53 599.467 Q2239.81 599.467 2236.73 596.782 Q2233.68 594.097 2233.68 589.074 Q2233.68 585.763 2235.58 583.472 Q2237.47 581.18 2240.85 580.393 M2239.14 573.009 Q2239.14 575.694 2240.81 577.199 Q2242.5 578.703 2245.53 578.703 Q2248.54 578.703 2250.23 577.199 Q2251.94 575.694 2251.94 573.009 Q2251.94 570.324 2250.23 568.819 Q2248.54 567.314 2245.53 567.314 Q2242.5 567.314 2240.81 568.819 Q2239.14 570.324 2239.14 573.009 Z" fill="#000000" fill-rule="nonzero" fill-opacity="1"></path><polyline clip-path="url(#clip710)" style="stroke:#00a98d; stroke-linecap:round; stroke-linejoin:round; stroke-width:4; stroke-opacity:1; fill:none" points="2009.66,633.356 2151.86,633.356 "></polyline>
<path clip-path="url(#clip710)" d="M2190.74 628.691 Q2190.02 628.275 2189.16 628.09 Q2188.33 627.881 2187.31 627.881 Q2183.7 627.881 2181.76 630.242 Q2179.84 632.58 2179.84 636.978 L2179.84 650.636 L2175.55 650.636 L2175.55 624.71 L2179.84 624.71 L2179.84 628.738 Q2181.18 626.377 2183.33 625.242 Q2185.48 624.085 2188.56 624.085 Q2189 624.085 2189.54 624.154 Q2190.07 624.201 2190.72 624.316 L2190.74 628.691 Z" fill="#000000" fill-rule="nonzero" fill-opacity="1"></path><path clip-path="url(#clip710)" d="M2195.76 629.108 L2225.44 629.108 L2225.44 632.997 L2195.76 632.997 L2195.76 629.108 M2195.76 638.552 L2225.44 638.552 L2225.44 642.488 L2195.76 642.488 L2195.76 638.552 Z" fill="#000000" fill-rule="nonzero" fill-opacity="1"></path><path clip-path="url(#clip710)" d="M2235.67 649.918 L2235.67 645.659 Q2237.43 646.492 2239.23 646.932 Q2241.04 647.372 2242.78 647.372 Q2247.41 647.372 2249.84 644.27 Q2252.29 641.145 2252.64 634.802 Q2251.29 636.793 2249.23 637.858 Q2247.17 638.923 2244.67 638.923 Q2239.49 638.923 2236.46 635.798 Q2233.45 632.65 2233.45 627.21 Q2233.45 621.886 2236.6 618.668 Q2239.74 615.451 2244.97 615.451 Q2250.97 615.451 2254.12 620.057 Q2257.29 624.64 2257.29 633.39 Q2257.29 641.562 2253.4 646.446 Q2249.53 651.307 2242.98 651.307 Q2241.22 651.307 2239.42 650.96 Q2237.61 650.613 2235.67 649.918 M2244.97 635.265 Q2248.12 635.265 2249.95 633.113 Q2251.8 630.96 2251.8 627.21 Q2251.8 623.483 2249.95 621.33 Q2248.12 619.154 2244.97 619.154 Q2241.83 619.154 2239.97 621.33 Q2238.15 623.483 2238.15 627.21 Q2238.15 630.96 2239.97 633.113 Q2241.83 635.265 2244.97 635.265 Z" fill="#000000" fill-rule="nonzero" fill-opacity="1"></path></svg>