<svg xmlns="http://www.w3.org/2000/svg" xmlns:xlink="http://www.w3.org/1999/xlink" width="600" height="400" viewBox="0 0 2400 1600">
<defs>
  <clipPath id="clip170">
    <rect x="0" y="0" width="2400" height="1600"></rect>
  </clipPath>
</defs>
<path clip-path="url(#clip170)" d="M0 1600 L2400 1600 L2400 8.88178e-14 L0 8.88178e-14  Z" fill="#ffffff" fill-rule="evenodd" fill-opacity="1"></path>
<defs>
  <clipPath id="clip171">
    <rect x="480" y="0" width="1681" height="1600"></rect>
  </clipPath>
</defs>
<path clip-path="url(#clip170)" d="M219.866 1423.18 L2352.76 1423.18 L2352.76 123.472 L219.866 123.472  Z" fill="#ffffff" fill-rule="evenodd" fill-opacity="1"></path>
<defs>
  <clipPath id="clip172">
    <rect x="219" y="123" width="2134" height="1301"></rect>
  </clipPath>
</defs>
<polyline clip-path="url(#clip172)" style="stroke:#000000; stroke-linecap:round; stroke-linejoin:round; stroke-width:2; stroke-opacity:0.1; fill:none" points="280.231,1423.18 280.231,123.472 "></polyline>
<polyline clip-path="url(#clip172)" style="stroke:#000000; stroke-linecap:round; stroke-linejoin:round; stroke-width:2; stroke-opacity:0.1; fill:none" points="783.271,1423.18 783.271,123.472 "></polyline>
<polyline clip-path="url(#clip172)" style="stroke:#000000; stroke-linecap:round; stroke-linejoin:round; stroke-width:2; stroke-opacity:0.1; fill:none" points="1286.31,1423.18 1286.31,123.472 "></polyline>
<polyline clip-path="url(#clip172)" style="stroke:#000000; stroke-linecap:round; stroke-linejoin:round; stroke-width:2; stroke-opacity:0.1; fill:none" points="1789.35,1423.18 1789.35,123.472 "></polyline>
<polyline clip-path="url(#clip172)" style="stroke:#000000; stroke-linecap:round; stroke-linejoin:round; stroke-width:2; stroke-opacity:0.1; fill:none" points="2292.39,1423.18 2292.39,123.472 "></polyline>
<polyline clip-path="url(#clip170)" style="stroke:#000000; stroke-linecap:round; stroke-linejoin:round; stroke-width:4; stroke-opacity:1; fill:none" points="219.866,1423.18 2352.76,1423.18 "></polyline>
<polyline clip-path="url(#clip170)" style="stroke:#000000; stroke-linecap:round; stroke-linejoin:round; stroke-width:4; stroke-opacity:1; fill:none" points="280.231,1423.18 280.231,1404.28 "></polyline>
<polyline clip-path="url(#clip170)" style="stroke:#000000; stroke-linecap:round; stroke-linejoin:round; stroke-width:4; stroke-opacity:1; fill:none" points="783.271,1423.18 783.271,1404.28 "></polyline>
<polyline clip-path="url(#clip170)" style="stroke:#000000; stroke-linecap:round; stroke-linejoin:round; stroke-width:4; stroke-opacity:1; fill:none" points="1286.31,1423.18 1286.31,1404.28 "></polyline>
<polyline clip-path="url(#clip170)" style="stroke:#000000; stroke-linecap:round; stroke-linejoin:round; stroke-width:4; stroke-opacity:1; fill:none" points="1789.35,1423.18 1789.35,1404.28 "></polyline>
<polyline clip-path="url(#clip170)" style="stroke:#000000; stroke-linecap:round; stroke-linejoin:round; stroke-width:4; stroke-opacity:1; fill:none" points="2292.39,1423.18 2292.39,1404.28 "></polyline>
<path clip-path="url(#clip170)" d="M280.231 1454.1 Q276.62 1454.1 274.791 1457.66 Q272.986 1461.2 272.986 1468.33 Q272.986 1475.44 274.791 1479.01 Q276.62 1482.55 280.231 1482.55 Q283.865 1482.55 285.671 1479.01 Q287.5 1475.44 287.5 1468.33 Q287.5 1461.2 285.671 1457.66 Q283.865 1454.1 280.231 1454.1 M280.231 1450.39 Q286.041 1450.39 289.097 1455 Q292.175 1459.58 292.175 1468.33 Q292.175 1477.06 289.097 1481.67 Q286.041 1486.25 280.231 1486.25 Q274.421 1486.25 271.342 1481.67 Q268.287 1477.06 268.287 1468.33 Q268.287 1459.58 271.342 1455 Q274.421 1450.39 280.231 1450.39 Z" fill="#000000" fill-rule="nonzero" fill-opacity="1"></path><path clip-path="url(#clip170)" d="M777.924 1481.64 L794.243 1481.64 L794.243 1485.58 L772.299 1485.58 L772.299 1481.64 Q774.961 1478.89 779.544 1474.26 Q784.151 1469.61 785.331 1468.27 Q787.577 1465.74 788.456 1464.01 Q789.359 1462.25 789.359 1460.56 Q789.359 1457.8 787.415 1456.07 Q785.493 1454.33 782.391 1454.33 Q780.192 1454.33 777.739 1455.09 Q775.308 1455.86 772.53 1457.41 L772.53 1452.69 Q775.354 1451.55 777.808 1450.97 Q780.262 1450.39 782.299 1450.39 Q787.669 1450.39 790.864 1453.08 Q794.058 1455.77 794.058 1460.26 Q794.058 1462.39 793.248 1464.31 Q792.461 1466.2 790.354 1468.8 Q789.776 1469.47 786.674 1472.69 Q783.572 1475.88 777.924 1481.64 Z" fill="#000000" fill-rule="nonzero" fill-opacity="1"></path><path clip-path="url(#clip170)" d="M1289.32 1455.09 L1277.51 1473.54 L1289.32 1473.54 L1289.32 1455.09 M1288.09 1451.02 L1293.97 1451.02 L1293.97 1473.54 L1298.9 1473.54 L1298.9 1477.43 L1293.97 1477.43 L1293.97 1485.58 L1289.32 1485.58 L1289.32 1477.43 L1273.72 1477.43 L1273.72 1472.92 L1288.09 1451.02 Z" fill="#000000" fill-rule="nonzero" fill-opacity="1"></path><path clip-path="url(#clip170)" d="M1789.76 1466.44 Q1786.61 1466.44 1784.76 1468.59 Q1782.93 1470.74 1782.93 1474.49 Q1782.93 1478.22 1784.76 1480.39 Q1786.61 1482.55 1789.76 1482.55 Q1792.9 1482.55 1794.73 1480.39 Q1796.58 1478.22 1796.58 1474.49 Q1796.58 1470.74 1794.73 1468.59 Q1792.9 1466.44 1789.76 1466.44 M1799.04 1451.78 L1799.04 1456.04 Q1797.28 1455.21 1795.47 1454.77 Q1793.69 1454.33 1791.93 1454.33 Q1787.3 1454.33 1784.85 1457.45 Q1782.42 1460.58 1782.07 1466.9 Q1783.44 1464.89 1785.5 1463.82 Q1787.56 1462.73 1790.03 1462.73 Q1795.24 1462.73 1798.25 1465.9 Q1801.28 1469.05 1801.28 1474.49 Q1801.28 1479.82 1798.14 1483.03 Q1794.99 1486.25 1789.76 1486.25 Q1783.76 1486.25 1780.59 1481.67 Q1777.42 1477.06 1777.42 1468.33 Q1777.42 1460.14 1781.31 1455.28 Q1785.2 1450.39 1791.75 1450.39 Q1793.51 1450.39 1795.29 1450.74 Q1797.09 1451.09 1799.04 1451.78 Z" fill="#000000" fill-rule="nonzero" fill-opacity="1"></path><path clip-path="url(#clip170)" d="M2292.39 1469.17 Q2289.06 1469.17 2287.14 1470.95 Q2285.24 1472.73 2285.24 1475.86 Q2285.24 1478.98 2287.14 1480.77 Q2289.06 1482.55 2292.39 1482.55 Q2295.72 1482.55 2297.65 1480.77 Q2299.57 1478.96 2299.57 1475.86 Q2299.57 1472.73 2297.65 1470.95 Q2295.75 1469.17 2292.39 1469.17 M2287.72 1467.18 Q2284.71 1466.44 2283.02 1464.38 Q2281.35 1462.32 2281.35 1459.35 Q2281.35 1455.21 2284.29 1452.8 Q2287.25 1450.39 2292.39 1450.39 Q2297.55 1450.39 2300.49 1452.8 Q2303.43 1455.21 2303.43 1459.35 Q2303.43 1462.32 2301.74 1464.38 Q2300.08 1466.44 2297.09 1467.18 Q2300.47 1467.96 2302.34 1470.26 Q2304.24 1472.55 2304.24 1475.86 Q2304.24 1480.88 2301.16 1483.57 Q2298.11 1486.25 2292.39 1486.25 Q2286.67 1486.25 2283.59 1483.57 Q2280.54 1480.88 2280.54 1475.86 Q2280.54 1472.55 2282.44 1470.26 Q2284.34 1467.96 2287.72 1467.18 M2286 1459.79 Q2286 1462.48 2287.67 1463.98 Q2289.36 1465.49 2292.39 1465.49 Q2295.4 1465.49 2297.09 1463.98 Q2298.8 1462.48 2298.8 1459.79 Q2298.8 1457.11 2297.09 1455.6 Q2295.4 1454.1 2292.39 1454.1 Q2289.36 1454.1 2287.67 1455.6 Q2286 1457.11 2286 1459.79 Z" fill="#000000" fill-rule="nonzero" fill-opacity="1"></path><path clip-path="url(#clip170)" d="M1208.19 1520.52 L1248.39 1520.52 L1248.39 1525.93 L1231.52 1525.93 L1231.52 1568.04 L1225.06 1568.04 L1225.06 1525.93 L1208.19 1525.93 L1208.19 1520.52 Z" fill="#000000" fill-rule="nonzero" fill-opacity="1"></path><path clip-path="url(#clip170)" d="M1252.33 1532.4 L1258.19 1532.4 L1258.19 1568.04 L1252.33 1568.04 L1252.33 1532.4 M1252.33 1518.52 L1258.19 1518.52 L1258.19 1525.93 L1252.33 1525.93 L1252.33 1518.52 Z" fill="#000000" fill-rule="nonzero" fill-opacity="1"></path><path clip-path="url(#clip170)" d="M1298.2 1539.24 Q1300.4 1535.29 1303.45 1533.41 Q1306.51 1531.54 1310.64 1531.54 Q1316.21 1531.54 1319.24 1535.45 Q1322.26 1539.33 1322.26 1546.53 L1322.26 1568.04 L1316.37 1568.04 L1316.37 1546.72 Q1316.37 1541.59 1314.56 1539.11 Q1312.74 1536.63 1309.02 1536.63 Q1304.47 1536.63 1301.83 1539.65 Q1299.19 1542.68 1299.19 1547.9 L1299.19 1568.04 L1293.3 1568.04 L1293.3 1546.72 Q1293.3 1541.56 1291.48 1539.11 Q1289.67 1536.63 1285.88 1536.63 Q1281.39 1536.63 1278.75 1539.68 Q1276.11 1542.71 1276.11 1547.9 L1276.11 1568.04 L1270.22 1568.04 L1270.22 1532.4 L1276.11 1532.4 L1276.11 1537.93 Q1278.12 1534.66 1280.92 1533.1 Q1283.72 1531.54 1287.57 1531.54 Q1291.45 1531.54 1294.16 1533.51 Q1296.89 1535.48 1298.2 1539.24 Z" fill="#000000" fill-rule="nonzero" fill-opacity="1"></path><path clip-path="url(#clip170)" d="M1364.43 1548.76 L1364.43 1551.62 L1337.51 1551.62 Q1337.89 1557.67 1341.14 1560.85 Q1344.41 1564 1350.24 1564 Q1353.61 1564 1356.76 1563.17 Q1359.95 1562.35 1363.07 1560.69 L1363.07 1566.23 Q1359.91 1567.57 1356.6 1568.27 Q1353.29 1568.97 1349.89 1568.97 Q1341.36 1568.97 1336.36 1564 Q1331.4 1559.04 1331.4 1550.57 Q1331.4 1541.82 1336.11 1536.69 Q1340.85 1531.54 1348.87 1531.54 Q1356.06 1531.54 1360.23 1536.18 Q1364.43 1540.8 1364.43 1548.76 M1358.58 1547.04 Q1358.51 1542.23 1355.87 1539.37 Q1353.26 1536.5 1348.93 1536.5 Q1344.03 1536.5 1341.07 1539.27 Q1338.14 1542.04 1337.7 1547.07 L1358.58 1547.04 Z" fill="#000000" fill-rule="nonzero" fill-opacity="1"></path><polyline clip-path="url(#clip172)" style="stroke:#000000; stroke-linecap:round; stroke-linejoin:round; stroke-width:2; stroke-opacity:0.1; fill:none" points="219.866,1423.18 2352.76,1423.18 "></polyline>
<polyline clip-path="url(#clip172)" style="stroke:#000000; stroke-linecap:round; stroke-linejoin:round; stroke-width:2; stroke-opacity:0.1; fill:none" points="219.866,1163.24 2352.76,1163.24 "></polyline>
<polyline clip-path="url(#clip172)" style="stroke:#000000; stroke-linecap:round; stroke-linejoin:round; stroke-width:2; stroke-opacity:0.1; fill:none" points="219.866,903.297 2352.76,903.297 "></polyline>
<polyline clip-path="url(#clip172)" style="stroke:#000000; stroke-linecap:round; stroke-linejoin:round; stroke-width:2; stroke-opacity:0.1; fill:none" points="219.866,643.355 2352.76,643.355 "></polyline>
<polyline clip-path="url(#clip172)" style="stroke:#000000; stroke-linecap:round; stroke-linejoin:round; stroke-width:2; stroke-opacity:0.1; fill:none" points="219.866,383.414 2352.76,383.414 "></polyline>
<polyline clip-path="url(#clip172)" style="stroke:#000000; stroke-linecap:round; stroke-linejoin:round; stroke-width:2; stroke-opacity:0.1; fill:none" points="219.866,123.472 2352.76,123.472 "></polyline>
<polyline clip-path="url(#clip170)" style="stroke:#000000; stroke-linecap:round; stroke-linejoin:round; stroke-width:4; stroke-opacity:1; fill:none" points="219.866,1423.18 219.866,123.472 "></polyline>
<polyline clip-path="url(#clip170)" style="stroke:#000000; stroke-linecap:round; stroke-linejoin:round; stroke-width:4; stroke-opacity:1; fill:none" points="219.866,1423.18 238.764,1423.18 "></polyline>
<polyline clip-path="url(#clip170)" style="stroke:#000000; stroke-linecap:round; stroke-linejoin:round; stroke-width:4; stroke-opacity:1; fill:none" points="219.866,1163.24 238.764,1163.24 "></polyline>
<polyline clip-path="url(#clip170)" style="stroke:#000000; stroke-linecap:round; stroke-linejoin:round; stroke-width:4; stroke-opacity:1; fill:none" points="219.866,903.297 238.764,903.297 "></polyline>
<polyline clip-path="url(#clip170)" style="stroke:#000000; stroke-linecap:round; stroke-linejoin:round; stroke-width:4; stroke-opacity:1; fill:none" points="219.866,643.355 238.764,643.355 "></polyline>
<polyline clip-path="url(#clip170)" style="stroke:#000000; stroke-linecap:round; stroke-linejoin:round; stroke-width:4; stroke-opacity:1; fill:none" points="219.866,383.414 238.764,383.414 "></polyline>
<polyline clip-path="url(#clip170)" style="stroke:#000000; stroke-linecap:round; stroke-linejoin:round; stroke-width:4; stroke-opacity:1; fill:none" points="219.866,123.472 238.764,123.472 "></polyline>
<path clip-path="url(#clip170)" d="M126.691 1408.98 Q123.08 1408.98 121.251 1412.54 Q119.445 1416.08 119.445 1423.21 Q119.445 1430.32 121.251 1433.89 Q123.08 1437.43 126.691 1437.43 Q130.325 1437.43 132.13 1433.89 Q133.959 1430.32 133.959 1423.21 Q133.959 1416.08 132.13 1412.54 Q130.325 1408.98 126.691 1408.98 M126.691 1405.27 Q132.501 1405.27 135.556 1409.88 Q138.635 1414.46 138.635 1423.21 Q138.635 1431.94 135.556 1436.55 Q132.501 1441.13 126.691 1441.13 Q120.88 1441.13 117.802 1436.55 Q114.746 1431.94 114.746 1423.21 Q114.746 1414.46 117.802 1409.88 Q120.88 1405.27 126.691 1405.27 Z" fill="#000000" fill-rule="nonzero" fill-opacity="1"></path><path clip-path="url(#clip170)" d="M146.853 1434.58 L151.737 1434.58 L151.737 1440.46 L146.853 1440.46 L146.853 1434.58 Z" fill="#000000" fill-rule="nonzero" fill-opacity="1"></path><path clip-path="url(#clip170)" d="M171.922 1408.98 Q168.311 1408.98 166.482 1412.54 Q164.677 1416.08 164.677 1423.21 Q164.677 1430.32 166.482 1433.89 Q168.311 1437.43 171.922 1437.43 Q175.556 1437.43 177.362 1433.89 Q179.19 1430.32 179.19 1423.21 Q179.19 1416.08 177.362 1412.54 Q175.556 1408.98 171.922 1408.98 M171.922 1405.27 Q177.732 1405.27 180.788 1409.88 Q183.866 1414.46 183.866 1423.21 Q183.866 1431.94 180.788 1436.55 Q177.732 1441.13 171.922 1441.13 Q166.112 1441.13 163.033 1436.55 Q159.978 1431.94 159.978 1423.21 Q159.978 1414.46 163.033 1409.88 Q166.112 1405.27 171.922 1405.27 Z" fill="#000000" fill-rule="nonzero" fill-opacity="1"></path><path clip-path="url(#clip170)" d="M128.288 1149.04 Q124.677 1149.04 122.848 1152.6 Q121.043 1156.14 121.043 1163.27 Q121.043 1170.38 122.848 1173.94 Q124.677 1177.49 128.288 1177.49 Q131.922 1177.49 133.728 1173.94 Q135.556 1170.38 135.556 1163.27 Q135.556 1156.14 133.728 1152.6 Q131.922 1149.04 128.288 1149.04 M128.288 1145.33 Q134.098 1145.33 137.154 1149.94 Q140.232 1154.52 140.232 1163.27 Q140.232 1172 137.154 1176.61 Q134.098 1181.19 128.288 1181.19 Q122.478 1181.19 119.399 1176.61 Q116.343 1172 116.343 1163.27 Q116.343 1154.52 119.399 1149.94 Q122.478 1145.33 128.288 1145.33 Z" fill="#000000" fill-rule="nonzero" fill-opacity="1"></path><path clip-path="url(#clip170)" d="M148.45 1174.64 L153.334 1174.64 L153.334 1180.52 L148.45 1180.52 L148.45 1174.64 Z" fill="#000000" fill-rule="nonzero" fill-opacity="1"></path><path clip-path="url(#clip170)" d="M167.547 1176.58 L183.866 1176.58 L183.866 1180.52 L161.922 1180.52 L161.922 1176.58 Q164.584 1173.83 169.167 1169.2 Q173.774 1164.55 174.954 1163.2 Q177.2 1160.68 178.079 1158.94 Q178.982 1157.19 178.982 1155.5 Q178.982 1152.74 177.038 1151 Q175.116 1149.27 172.014 1149.27 Q169.815 1149.27 167.362 1150.03 Q164.931 1150.8 162.153 1152.35 L162.153 1147.62 Q164.977 1146.49 167.431 1145.91 Q169.885 1145.33 171.922 1145.33 Q177.292 1145.33 180.487 1148.02 Q183.681 1150.7 183.681 1155.19 Q183.681 1157.32 182.871 1159.25 Q182.084 1161.14 179.977 1163.74 Q179.399 1164.41 176.297 1167.62 Q173.195 1170.82 167.547 1176.58 Z" fill="#000000" fill-rule="nonzero" fill-opacity="1"></path><path clip-path="url(#clip170)" d="M126.205 889.095 Q122.593 889.095 120.765 892.66 Q118.959 896.202 118.959 903.331 Q118.959 910.438 120.765 914.003 Q122.593 917.544 126.205 917.544 Q129.839 917.544 131.644 914.003 Q133.473 910.438 133.473 903.331 Q133.473 896.202 131.644 892.66 Q129.839 889.095 126.205 889.095 M126.205 885.392 Q132.015 885.392 135.07 889.998 Q138.149 894.582 138.149 903.331 Q138.149 912.058 135.07 916.665 Q132.015 921.248 126.205 921.248 Q120.394 921.248 117.316 916.665 Q114.26 912.058 114.26 903.331 Q114.26 894.582 117.316 889.998 Q120.394 885.392 126.205 885.392 Z" fill="#000000" fill-rule="nonzero" fill-opacity="1"></path><path clip-path="url(#clip170)" d="M146.366 914.697 L151.251 914.697 L151.251 920.577 L146.366 920.577 L146.366 914.697 Z" fill="#000000" fill-rule="nonzero" fill-opacity="1"></path><path clip-path="url(#clip170)" d="M174.283 890.091 L162.477 908.54 L174.283 908.54 L174.283 890.091 M173.056 886.017 L178.936 886.017 L178.936 908.54 L183.866 908.54 L183.866 912.429 L178.936 912.429 L178.936 920.577 L174.283 920.577 L174.283 912.429 L158.681 912.429 L158.681 907.915 L173.056 886.017 Z" fill="#000000" fill-rule="nonzero" fill-opacity="1"></path><path clip-path="url(#clip170)" d="M126.529 629.154 Q122.918 629.154 121.089 632.719 Q119.283 636.26 119.283 643.39 Q119.283 650.496 121.089 654.061 Q122.918 657.603 126.529 657.603 Q130.163 657.603 131.968 654.061 Q133.797 650.496 133.797 643.39 Q133.797 636.26 131.968 632.719 Q130.163 629.154 126.529 629.154 M126.529 625.45 Q132.339 625.45 135.394 630.057 Q138.473 634.64 138.473 643.39 Q138.473 652.117 135.394 656.723 Q132.339 661.307 126.529 661.307 Q120.718 661.307 117.64 656.723 Q114.584 652.117 114.584 643.39 Q114.584 634.64 117.64 630.057 Q120.718 625.45 126.529 625.45 Z" fill="#000000" fill-rule="nonzero" fill-opacity="1"></path><path clip-path="url(#clip170)" d="M146.691 654.756 L151.575 654.756 L151.575 660.635 L146.691 660.635 L146.691 654.756 Z" fill="#000000" fill-rule="nonzero" fill-opacity="1"></path><path clip-path="url(#clip170)" d="M172.339 641.492 Q169.19 641.492 167.339 643.645 Q165.51 645.797 165.51 649.547 Q165.51 653.274 167.339 655.45 Q169.19 657.603 172.339 657.603 Q175.487 657.603 177.315 655.45 Q179.167 653.274 179.167 649.547 Q179.167 645.797 177.315 643.645 Q175.487 641.492 172.339 641.492 M181.621 626.839 L181.621 631.098 Q179.862 630.265 178.056 629.825 Q176.274 629.385 174.514 629.385 Q169.885 629.385 167.431 632.51 Q165.001 635.635 164.653 641.955 Q166.019 639.941 168.079 638.876 Q170.139 637.788 172.616 637.788 Q177.825 637.788 180.834 640.959 Q183.866 644.108 183.866 649.547 Q183.866 654.871 180.718 658.089 Q177.57 661.307 172.339 661.307 Q166.343 661.307 163.172 656.723 Q160.001 652.117 160.001 643.39 Q160.001 635.196 163.89 630.334 Q167.778 625.45 174.329 625.45 Q176.089 625.45 177.871 625.797 Q179.676 626.145 181.621 626.839 Z" fill="#000000" fill-rule="nonzero" fill-opacity="1"></path><path clip-path="url(#clip170)" d="M126.783 369.212 Q123.172 369.212 121.343 372.777 Q119.538 376.319 119.538 383.448 Q119.538 390.555 121.343 394.12 Q123.172 397.661 126.783 397.661 Q130.417 397.661 132.223 394.12 Q134.052 390.555 134.052 383.448 Q134.052 376.319 132.223 372.777 Q130.417 369.212 126.783 369.212 M126.783 365.509 Q132.593 365.509 135.649 370.115 Q138.728 374.698 138.728 383.448 Q138.728 392.175 135.649 396.782 Q132.593 401.365 126.783 401.365 Q120.973 401.365 117.894 396.782 Q114.839 392.175 114.839 383.448 Q114.839 374.698 117.894 370.115 Q120.973 365.509 126.783 365.509 Z" fill="#000000" fill-rule="nonzero" fill-opacity="1"></path><path clip-path="url(#clip170)" d="M146.945 394.814 L151.829 394.814 L151.829 400.694 L146.945 400.694 L146.945 394.814 Z" fill="#000000" fill-rule="nonzero" fill-opacity="1"></path><path clip-path="url(#clip170)" d="M172.014 384.282 Q168.681 384.282 166.76 386.064 Q164.862 387.847 164.862 390.971 Q164.862 394.096 166.76 395.879 Q168.681 397.661 172.014 397.661 Q175.348 397.661 177.269 395.879 Q179.19 394.073 179.19 390.971 Q179.19 387.847 177.269 386.064 Q175.371 384.282 172.014 384.282 M167.339 382.291 Q164.329 381.55 162.64 379.49 Q160.973 377.43 160.973 374.467 Q160.973 370.323 163.913 367.916 Q166.876 365.509 172.014 365.509 Q177.176 365.509 180.116 367.916 Q183.056 370.323 183.056 374.467 Q183.056 377.43 181.366 379.49 Q179.7 381.55 176.714 382.291 Q180.093 383.078 181.968 385.37 Q183.866 387.661 183.866 390.971 Q183.866 395.995 180.788 398.68 Q177.732 401.365 172.014 401.365 Q166.297 401.365 163.218 398.68 Q160.163 395.995 160.163 390.971 Q160.163 387.661 162.061 385.37 Q163.959 383.078 167.339 382.291 M165.626 374.907 Q165.626 377.592 167.292 379.097 Q168.982 380.601 172.014 380.601 Q175.024 380.601 176.714 379.097 Q178.426 377.592 178.426 374.907 Q178.426 372.222 176.714 370.717 Q175.024 369.212 172.014 369.212 Q168.982 369.212 167.292 370.717 Q165.626 372.222 165.626 374.907 Z" fill="#000000" fill-rule="nonzero" fill-opacity="1"></path><path clip-path="url(#clip170)" d="M117.501 136.817 L125.14 136.817 L125.14 110.451 L116.83 112.118 L116.83 107.859 L125.093 106.192 L129.769 106.192 L129.769 136.817 L137.408 136.817 L137.408 140.752 L117.501 140.752 L117.501 136.817 Z" fill="#000000" fill-rule="nonzero" fill-opacity="1"></path><path clip-path="url(#clip170)" d="M146.853 134.873 L151.737 134.873 L151.737 140.752 L146.853 140.752 L146.853 134.873 Z" fill="#000000" fill-rule="nonzero" fill-opacity="1"></path><path clip-path="url(#clip170)" d="M171.922 109.271 Q168.311 109.271 166.482 112.836 Q164.677 116.377 164.677 123.507 Q164.677 130.613 166.482 134.178 Q168.311 137.72 171.922 137.72 Q175.556 137.72 177.362 134.178 Q179.19 130.613 179.19 123.507 Q179.19 116.377 177.362 112.836 Q175.556 109.271 171.922 109.271 M171.922 105.567 Q177.732 105.567 180.788 110.174 Q183.866 114.757 183.866 123.507 Q183.866 132.234 180.788 136.84 Q177.732 141.423 171.922 141.423 Q166.112 141.423 163.033 136.84 Q159.978 132.234 159.978 123.507 Q159.978 114.757 163.033 110.174 Q166.112 105.567 171.922 105.567 Z" fill="#000000" fill-rule="nonzero" fill-opacity="1"></path><path clip-path="url(#clip170)" d="M16.4842 1006.61 L16.4842 966.414 L21.895 966.414 L21.895 983.283 L64.0042 983.283 L64.0042 989.744 L21.895 989.744 L21.895 1006.61 L16.4842 1006.61 Z" fill="#000000" fill-rule="nonzero" fill-opacity="1"></path><path clip-path="url(#clip170)" d="M33.8307 949.386 Q33.2578 950.372 33.0032 951.55 Q32.7167 952.696 32.7167 954.096 Q32.7167 959.061 35.9632 961.735 Q39.1779 964.377 45.2253 964.377 L64.0042 964.377 L64.0042 970.265 L28.3562 970.265 L28.3562 964.377 L33.8944 964.377 Q30.6479 962.531 29.0883 959.571 Q27.4968 956.611 27.4968 952.377 Q27.4968 951.773 27.5923 951.041 Q27.656 950.309 27.8151 949.417 L33.8307 949.386 Z" fill="#000000" fill-rule="nonzero" fill-opacity="1"></path><path clip-path="url(#clip170)" d="M46.0847 927.042 Q46.0847 934.14 47.7079 936.877 Q49.3312 939.614 53.2461 939.614 Q56.3653 939.614 58.2114 937.577 Q60.0256 935.508 60.0256 931.975 Q60.0256 927.106 56.5881 924.177 Q53.1188 921.217 47.3897 921.217 L46.0847 921.217 L46.0847 927.042 M43.6657 915.361 L64.0042 915.361 L64.0042 921.217 L58.5933 921.217 Q61.8398 923.222 63.3994 926.214 Q64.9272 929.206 64.9272 933.535 Q64.9272 939.009 61.8716 942.256 Q58.7843 945.471 53.6281 945.471 Q47.6125 945.471 44.5569 941.46 Q41.5014 937.418 41.5014 929.429 L41.5014 921.217 L40.9285 921.217 Q36.8862 921.217 34.6901 923.891 Q32.4621 926.533 32.4621 931.339 Q32.4621 934.394 33.1941 937.291 Q33.9262 940.187 35.3903 942.861 L29.9795 942.861 Q28.7381 939.646 28.1334 936.622 Q27.4968 933.599 27.4968 930.734 Q27.4968 923 31.5072 919.18 Q35.5176 915.361 43.6657 915.361 Z" fill="#000000" fill-rule="nonzero" fill-opacity="1"></path><path clip-path="url(#clip170)" d="M29.7248 877.644 L35.1993 877.644 Q33.8307 880.127 33.1623 882.641 Q32.4621 885.124 32.4621 887.67 Q32.4621 893.367 36.0905 896.518 Q39.6872 899.669 46.212 899.669 Q52.7369 899.669 56.3653 896.518 Q59.9619 893.367 59.9619 887.67 Q59.9619 885.124 59.2935 882.641 Q58.5933 880.127 57.2247 877.644 L62.6355 877.644 Q63.7814 880.095 64.3543 882.737 Q64.9272 885.347 64.9272 888.307 Q64.9272 896.359 59.8664 901.102 Q54.8057 905.844 46.212 905.844 Q37.491 905.844 32.4939 901.07 Q27.4968 896.264 27.4968 887.925 Q27.4968 885.219 28.0697 882.641 Q28.6108 880.063 29.7248 877.644 Z" fill="#000000" fill-rule="nonzero" fill-opacity="1"></path><path clip-path="url(#clip170)" d="M44.7161 836.967 L47.5806 836.967 L47.5806 863.894 Q53.6281 863.512 56.8109 860.266 Q59.9619 856.987 59.9619 851.163 Q59.9619 847.789 59.1344 844.638 Q58.3069 841.455 56.6518 838.336 L62.1899 838.336 Q63.5267 841.487 64.227 844.797 Q64.9272 848.107 64.9272 851.513 Q64.9272 860.043 59.9619 865.04 Q54.9967 870.005 46.5303 870.005 Q37.7774 870.005 32.6531 865.295 Q27.4968 860.552 27.4968 852.531 Q27.4968 845.338 32.1438 841.169 Q36.7589 836.967 44.7161 836.967 M42.9973 842.824 Q38.1912 842.887 35.3266 845.529 Q32.4621 848.139 32.4621 852.468 Q32.4621 857.369 35.2312 860.329 Q38.0002 863.258 43.0292 863.703 L42.9973 842.824 Z" fill="#000000" fill-rule="nonzero" fill-opacity="1"></path><path clip-path="url(#clip170)" d="M33.7671 783.177 L14.479 783.177 L14.479 777.32 L64.0042 777.32 L64.0042 783.177 L58.657 783.177 Q61.8398 785.023 63.3994 787.856 Q64.9272 790.657 64.9272 794.603 Q64.9272 801.065 59.771 805.139 Q54.6147 809.181 46.212 809.181 Q37.8093 809.181 32.6531 805.139 Q27.4968 801.065 27.4968 794.603 Q27.4968 790.657 29.0564 787.856 Q30.5842 785.023 33.7671 783.177 M46.212 803.133 Q52.6732 803.133 56.3653 800.492 Q60.0256 797.818 60.0256 793.171 Q60.0256 788.524 56.3653 785.851 Q52.6732 783.177 46.212 783.177 Q39.7508 783.177 36.0905 785.851 Q32.3984 788.524 32.3984 793.171 Q32.3984 797.818 36.0905 800.492 Q39.7508 803.133 46.212 803.133 Z" fill="#000000" fill-rule="nonzero" fill-opacity="1"></path><path clip-path="url(#clip170)" d="M28.3562 765.257 L28.3562 759.401 L64.0042 759.401 L64.0042 765.257 L28.3562 765.257 M14.479 765.257 L14.479 759.401 L21.895 759.401 L21.895 765.257 L14.479 765.257 Z" fill="#000000" fill-rule="nonzero" fill-opacity="1"></path><path clip-path="url(#clip170)" d="M29.4065 724.421 L34.9447 724.421 Q33.6716 726.904 33.035 729.578 Q32.3984 732.251 32.3984 735.116 Q32.3984 739.476 33.7352 741.673 Q35.072 743.837 37.7456 743.837 Q39.7826 743.837 40.9603 742.277 Q42.1061 740.718 43.1565 736.007 L43.6021 734.002 Q44.9389 727.763 47.3897 725.153 Q49.8086 722.512 54.1691 722.512 Q59.1344 722.512 62.0308 726.458 Q64.9272 730.373 64.9272 737.248 Q64.9272 740.113 64.3543 743.232 Q63.8132 746.319 62.6992 749.757 L56.6518 749.757 Q58.3387 746.51 59.198 743.359 Q60.0256 740.208 60.0256 737.121 Q60.0256 732.983 58.6251 730.755 Q57.1929 728.527 54.6147 728.527 Q52.2276 728.527 50.9545 730.151 Q49.6813 731.742 48.5037 737.185 L48.0262 739.222 Q46.8804 744.664 44.5251 747.083 Q42.138 749.502 38.0002 749.502 Q32.9713 749.502 30.2341 745.938 Q27.4968 742.373 27.4968 735.816 Q27.4968 732.57 27.9743 729.705 Q28.4517 726.84 29.4065 724.421 Z" fill="#000000" fill-rule="nonzero" fill-opacity="1"></path><path clip-path="url(#clip170)" d="M18.2347 707.393 L28.3562 707.393 L28.3562 695.33 L32.9077 695.33 L32.9077 707.393 L52.2594 707.393 Q56.6199 707.393 57.8613 706.216 Q59.1026 705.006 59.1026 701.346 L59.1026 695.33 L64.0042 695.33 L64.0042 701.346 Q64.0042 708.125 61.4897 710.703 Q58.9434 713.281 52.2594 713.281 L32.9077 713.281 L32.9077 717.578 L28.3562 717.578 L28.3562 713.281 L18.2347 713.281 L18.2347 707.393 Z" fill="#000000" fill-rule="nonzero" fill-opacity="1"></path><path clip-path="url(#clip170)" d="M46.0847 671.427 Q46.0847 678.525 47.7079 681.262 Q49.3312 683.999 53.2461 683.999 Q56.3653 683.999 58.2114 681.962 Q60.0256 679.893 60.0256 676.36 Q60.0256 671.491 56.5881 668.562 Q53.1188 665.602 47.3897 665.602 L46.0847 665.602 L46.0847 671.427 M43.6657 659.746 L64.0042 659.746 L64.0042 665.602 L58.5933 665.602 Q61.8398 667.608 63.3994 670.599 Q64.9272 673.591 64.9272 677.92 Q64.9272 683.394 61.8716 686.641 Q58.7843 689.856 53.6281 689.856 Q47.6125 689.856 44.5569 685.845 Q41.5014 681.803 41.5014 673.814 L41.5014 665.602 L40.9285 665.602 Q36.8862 665.602 34.6901 668.276 Q32.4621 670.918 32.4621 675.724 Q32.4621 678.779 33.1941 681.676 Q33.9262 684.572 35.3903 687.246 L29.9795 687.246 Q28.7381 684.031 28.1334 681.007 Q27.4968 677.984 27.4968 675.119 Q27.4968 667.385 31.5072 663.565 Q35.5176 659.746 43.6657 659.746 Z" fill="#000000" fill-rule="nonzero" fill-opacity="1"></path><path clip-path="url(#clip170)" d="M42.4881 618.05 L64.0042 618.05 L64.0042 623.907 L42.679 623.907 Q37.6183 623.907 35.1038 625.88 Q32.5894 627.854 32.5894 631.8 Q32.5894 636.543 35.6131 639.28 Q38.6368 642.017 43.8567 642.017 L64.0042 642.017 L64.0042 647.906 L28.3562 647.906 L28.3562 642.017 L33.8944 642.017 Q30.6797 639.917 29.0883 637.084 Q27.4968 634.219 27.4968 630.495 Q27.4968 624.353 31.3163 621.202 Q35.1038 618.05 42.4881 618.05 Z" fill="#000000" fill-rule="nonzero" fill-opacity="1"></path><path clip-path="url(#clip170)" d="M29.7248 580.716 L35.1993 580.716 Q33.8307 583.198 33.1623 585.713 Q32.4621 588.195 32.4621 590.742 Q32.4621 596.439 36.0905 599.59 Q39.6872 602.741 46.212 602.741 Q52.7369 602.741 56.3653 599.59 Q59.9619 596.439 59.9619 590.742 Q59.9619 588.195 59.2935 585.713 Q58.5933 583.198 57.2247 580.716 L62.6355 580.716 Q63.7814 583.166 64.3543 585.808 Q64.9272 588.418 64.9272 591.378 Q64.9272 599.431 59.8664 604.173 Q54.8057 608.916 46.212 608.916 Q37.491 608.916 32.4939 604.141 Q27.4968 599.335 27.4968 590.996 Q27.4968 588.291 28.0697 585.713 Q28.6108 583.135 29.7248 580.716 Z" fill="#000000" fill-rule="nonzero" fill-opacity="1"></path><path clip-path="url(#clip170)" d="M44.7161 540.039 L47.5806 540.039 L47.5806 566.966 Q53.6281 566.584 56.8109 563.337 Q59.9619 560.059 59.9619 554.234 Q59.9619 550.86 59.1344 547.709 Q58.3069 544.527 56.6518 541.407 L62.1899 541.407 Q63.5267 544.558 64.227 547.869 Q64.9272 551.179 64.9272 554.584 Q64.9272 563.114 59.9619 568.112 Q54.9967 573.077 46.5303 573.077 Q37.7774 573.077 32.6531 568.366 Q27.4968 563.624 27.4968 555.603 Q27.4968 548.41 32.1438 544.24 Q36.7589 540.039 44.7161 540.039 M42.9973 545.895 Q38.1912 545.959 35.3266 548.601 Q32.4621 551.211 32.4621 555.539 Q32.4621 560.441 35.2312 563.401 Q38.0002 566.329 43.0292 566.775 L42.9973 545.895 Z" fill="#000000" fill-rule="nonzero" fill-opacity="1"></path><path clip-path="url(#clip170)" d="M373.906 16.7545 L373.906 25.383 Q369.774 21.5346 365.075 19.6307 Q360.416 17.7268 355.15 17.7268 Q344.78 17.7268 339.27 24.0867 Q333.761 30.4061 333.761 42.3968 Q333.761 54.3469 339.27 60.7069 Q344.78 67.0263 355.15 67.0263 Q360.416 67.0263 365.075 65.1223 Q369.774 63.2184 373.906 59.3701 L373.906 67.9175 Q369.612 70.8341 364.791 72.2924 Q360.011 73.7508 354.664 73.7508 Q340.931 73.7508 333.032 65.3654 Q325.133 56.9395 325.133 42.3968 Q325.133 27.8135 333.032 19.4281 Q340.931 11.0023 354.664 11.0023 Q360.092 11.0023 364.872 12.4606 Q369.693 13.8784 373.906 16.7545 Z" fill="#000000" fill-rule="nonzero" fill-opacity="1"></path><path clip-path="url(#clip170)" d="M403.801 32.4315 Q397.806 32.4315 394.322 37.1306 Q390.838 41.7891 390.838 49.9314 Q390.838 58.0738 394.282 62.7728 Q397.765 67.4314 403.801 67.4314 Q409.756 67.4314 413.24 62.7323 Q416.724 58.0333 416.724 49.9314 Q416.724 41.8701 413.24 37.1711 Q409.756 32.4315 403.801 32.4315 M403.801 26.1121 Q413.524 26.1121 419.073 32.4315 Q424.623 38.7509 424.623 49.9314 Q424.623 61.0714 419.073 67.4314 Q413.524 73.7508 403.801 73.7508 Q394.039 73.7508 388.489 67.4314 Q382.98 61.0714 382.98 49.9314 Q382.98 38.7509 388.489 32.4315 Q394.039 26.1121 403.801 26.1121 Z" fill="#000000" fill-rule="nonzero" fill-opacity="1"></path><path clip-path="url(#clip170)" d="M474.692 45.1919 L474.692 72.576 L467.239 72.576 L467.239 45.4349 Q467.239 38.994 464.727 35.7938 Q462.215 32.5936 457.192 32.5936 Q451.156 32.5936 447.673 36.4419 Q444.189 40.2903 444.189 46.9338 L444.189 72.576 L436.695 72.576 L436.695 27.2059 L444.189 27.2059 L444.189 34.2544 Q446.862 30.163 450.468 28.1376 Q454.114 26.1121 458.853 26.1121 Q466.671 26.1121 470.682 30.9732 Q474.692 35.7938 474.692 45.1919 Z" fill="#000000" fill-rule="nonzero" fill-opacity="1"></path><path clip-path="url(#clip170)" d="M484.212 27.2059 L492.111 27.2059 L506.289 65.2844 L520.467 27.2059 L528.367 27.2059 L511.353 72.576 L501.226 72.576 L484.212 27.2059 Z" fill="#000000" fill-rule="nonzero" fill-opacity="1"></path><path clip-path="url(#clip170)" d="M577.464 48.0275 L577.464 51.6733 L543.193 51.6733 Q543.679 59.3701 547.811 63.421 Q551.983 67.4314 559.397 67.4314 Q563.691 67.4314 567.701 66.3781 Q571.752 65.3249 575.722 63.2184 L575.722 70.267 Q571.711 71.9684 567.498 72.8596 Q563.285 73.7508 558.951 73.7508 Q548.095 73.7508 541.735 67.4314 Q535.415 61.1119 535.415 50.3365 Q535.415 39.1965 541.411 32.6746 Q547.446 26.1121 557.655 26.1121 Q566.81 26.1121 572.116 32.0264 Q577.464 37.9003 577.464 48.0275 M570.01 45.84 Q569.929 39.7232 566.567 36.0774 Q563.245 32.4315 557.736 32.4315 Q551.497 32.4315 547.73 35.9558 Q544.003 39.4801 543.436 45.8805 L570.01 45.84 Z" fill="#000000" fill-rule="nonzero" fill-opacity="1"></path><path clip-path="url(#clip170)" d="M615.988 34.1734 Q614.732 33.4443 613.233 33.1202 Q611.775 32.7556 609.992 32.7556 Q603.673 32.7556 600.27 36.8875 Q596.908 40.9789 596.908 48.6757 L596.908 72.576 L589.414 72.576 L589.414 27.2059 L596.908 27.2059 L596.908 34.2544 Q599.257 30.1225 603.025 28.1376 Q606.792 26.1121 612.18 26.1121 Q612.95 26.1121 613.881 26.2337 Q614.813 26.3147 615.947 26.5172 L615.988 34.1734 Z" fill="#000000" fill-rule="nonzero" fill-opacity="1"></path><path clip-path="url(#clip170)" d="M652.203 49.3643 Q652.203 41.2625 648.841 36.8065 Q645.519 32.3505 639.483 32.3505 Q633.488 32.3505 630.125 36.8065 Q626.804 41.2625 626.804 49.3643 Q626.804 57.4256 630.125 61.8816 Q633.488 66.3376 639.483 66.3376 Q645.519 66.3376 648.841 61.8816 Q652.203 57.4256 652.203 49.3643 M659.656 66.9452 Q659.656 78.5308 654.512 84.1616 Q649.367 89.8329 638.754 89.8329 Q634.824 89.8329 631.341 89.2252 Q627.857 88.6581 624.576 87.4428 L624.576 80.1917 Q627.857 81.9741 631.057 82.8248 Q634.257 83.6755 637.579 83.6755 Q644.911 83.6755 648.557 79.8271 Q652.203 76.0193 652.203 68.282 L652.203 64.5957 Q649.894 68.6061 646.288 70.5911 Q642.683 72.576 637.66 72.576 Q629.315 72.576 624.211 66.2161 Q619.107 59.8562 619.107 49.3643 Q619.107 38.832 624.211 32.472 Q629.315 26.1121 637.66 26.1121 Q642.683 26.1121 646.288 28.0971 Q649.894 30.082 652.203 34.0924 L652.203 27.2059 L659.656 27.2059 L659.656 66.9452 Z" fill="#000000" fill-rule="nonzero" fill-opacity="1"></path><path clip-path="url(#clip170)" d="M713.817 48.0275 L713.817 51.6733 L679.546 51.6733 Q680.033 59.3701 684.164 63.421 Q688.337 67.4314 695.75 67.4314 Q700.044 67.4314 704.054 66.3781 Q708.105 65.3249 712.075 63.2184 L712.075 70.267 Q708.065 71.9684 703.852 72.8596 Q699.639 73.7508 695.304 73.7508 Q684.448 73.7508 678.088 67.4314 Q671.769 61.1119 671.769 50.3365 Q671.769 39.1965 677.764 32.6746 Q683.8 26.1121 694.008 26.1121 Q703.163 26.1121 708.47 32.0264 Q713.817 37.9003 713.817 48.0275 M706.363 45.84 Q706.282 39.7232 702.92 36.0774 Q699.598 32.4315 694.089 32.4315 Q687.851 32.4315 684.083 35.9558 Q680.357 39.4801 679.789 45.8805 L706.363 45.84 Z" fill="#000000" fill-rule="nonzero" fill-opacity="1"></path><path clip-path="url(#clip170)" d="M763.765 45.1919 L763.765 72.576 L756.311 72.576 L756.311 45.4349 Q756.311 38.994 753.799 35.7938 Q751.288 32.5936 746.265 32.5936 Q740.229 32.5936 736.745 36.4419 Q733.261 40.2903 733.261 46.9338 L733.261 72.576 L725.767 72.576 L725.767 27.2059 L733.261 27.2059 L733.261 34.2544 Q735.935 30.163 739.54 28.1376 Q743.186 26.1121 747.926 26.1121 Q755.744 26.1121 759.754 30.9732 Q763.765 35.7938 763.765 45.1919 Z" fill="#000000" fill-rule="nonzero" fill-opacity="1"></path><path clip-path="url(#clip170)" d="M811.282 28.9478 L811.282 35.9153 Q808.122 34.1734 804.922 33.3227 Q801.762 32.4315 798.521 32.4315 Q791.27 32.4315 787.26 37.0496 Q783.25 41.6271 783.25 49.9314 Q783.25 58.2358 787.26 62.8538 Q791.27 67.4314 798.521 67.4314 Q801.762 67.4314 804.922 66.5807 Q808.122 65.6895 811.282 63.9476 L811.282 70.8341 Q808.163 72.2924 804.8 73.0216 Q801.479 73.7508 797.711 73.7508 Q787.462 73.7508 781.427 67.3098 Q775.391 60.8689 775.391 49.9314 Q775.391 38.832 781.467 32.472 Q787.584 26.1121 798.197 26.1121 Q801.641 26.1121 804.922 26.8413 Q808.203 27.5299 811.282 28.9478 Z" fill="#000000" fill-rule="nonzero" fill-opacity="1"></path><path clip-path="url(#clip170)" d="M863.052 48.0275 L863.052 51.6733 L828.782 51.6733 Q829.268 59.3701 833.4 63.421 Q837.572 67.4314 844.985 67.4314 Q849.279 67.4314 853.29 66.3781 Q857.341 65.3249 861.31 63.2184 L861.31 70.267 Q857.3 71.9684 853.087 72.8596 Q848.874 73.7508 844.54 73.7508 Q833.683 73.7508 827.323 67.4314 Q821.004 61.1119 821.004 50.3365 Q821.004 39.1965 826.999 32.6746 Q833.035 26.1121 843.243 26.1121 Q852.398 26.1121 857.705 32.0264 Q863.052 37.9003 863.052 48.0275 M855.599 45.84 Q855.518 39.7232 852.155 36.0774 Q848.834 32.4315 843.324 32.4315 Q837.086 32.4315 833.319 35.9558 Q829.592 39.4801 829.025 45.8805 L855.599 45.84 Z" fill="#000000" fill-rule="nonzero" fill-opacity="1"></path><path clip-path="url(#clip170)" d="M909.03 14.324 L909.03 27.2059 L924.383 27.2059 L924.383 32.9987 L909.03 32.9987 L909.03 57.6282 Q909.03 63.1779 910.529 64.7578 Q912.068 66.3376 916.727 66.3376 L924.383 66.3376 L924.383 72.576 L916.727 72.576 Q908.098 72.576 904.817 69.3758 Q901.536 66.1351 901.536 57.6282 L901.536 32.9987 L896.067 32.9987 L896.067 27.2059 L901.536 27.2059 L901.536 14.324 L909.03 14.324 Z" fill="#000000" fill-rule="nonzero" fill-opacity="1"></path><path clip-path="url(#clip170)" d="M951.767 32.4315 Q945.772 32.4315 942.288 37.1306 Q938.804 41.7891 938.804 49.9314 Q938.804 58.0738 942.248 62.7728 Q945.731 67.4314 951.767 67.4314 Q957.722 67.4314 961.206 62.7323 Q964.69 58.0333 964.69 49.9314 Q964.69 41.8701 961.206 37.1711 Q957.722 32.4315 951.767 32.4315 M951.767 26.1121 Q961.489 26.1121 967.039 32.4315 Q972.589 38.7509 972.589 49.9314 Q972.589 61.0714 967.039 67.4314 Q961.489 73.7508 951.767 73.7508 Q942.004 73.7508 936.455 67.4314 Q930.946 61.0714 930.946 49.9314 Q930.946 38.7509 936.455 32.4315 Q942.004 26.1121 951.767 26.1121 Z" fill="#000000" fill-rule="nonzero" fill-opacity="1"></path><path clip-path="url(#clip170)" d="M1052.88 63.9476 L1052.88 47.7034 L1039.51 47.7034 L1039.51 40.9789 L1060.98 40.9789 L1060.98 66.9452 Q1056.24 70.3075 1050.53 72.0494 Q1044.82 73.7508 1038.33 73.7508 Q1024.16 73.7508 1016.14 65.4869 Q1008.16 57.1826 1008.16 42.3968 Q1008.16 27.5705 1016.14 19.3066 Q1024.16 11.0023 1038.33 11.0023 Q1044.25 11.0023 1049.56 12.4606 Q1054.9 13.9189 1059.4 16.7545 L1059.4 25.464 Q1054.86 21.6156 1049.76 19.6712 Q1044.65 17.7268 1039.02 17.7268 Q1027.92 17.7268 1022.33 23.9246 Q1016.78 30.1225 1016.78 42.3968 Q1016.78 54.6305 1022.33 60.8284 Q1027.92 67.0263 1039.02 67.0263 Q1043.36 67.0263 1046.76 66.2971 Q1050.16 65.5274 1052.88 63.9476 Z" fill="#000000" fill-rule="nonzero" fill-opacity="1"></path><path clip-path="url(#clip170)" d="M1075.6 27.2059 L1083.06 27.2059 L1083.06 72.576 L1075.6 72.576 L1075.6 27.2059 M1075.6 9.54393 L1083.06 9.54393 L1083.06 18.9825 L1075.6 18.9825 L1075.6 9.54393 Z" fill="#000000" fill-rule="nonzero" fill-opacity="1"></path><path clip-path="url(#clip170)" d="M1131.22 49.9314 Q1131.22 41.7081 1127.82 37.0496 Q1124.46 32.3505 1118.54 32.3505 Q1112.63 32.3505 1109.23 37.0496 Q1105.86 41.7081 1105.86 49.9314 Q1105.86 58.1548 1109.23 62.8538 Q1112.63 67.5124 1118.54 67.5124 Q1124.46 67.5124 1127.82 62.8538 Q1131.22 58.1548 1131.22 49.9314 M1105.86 34.0924 Q1108.21 30.0415 1111.78 28.0971 Q1115.38 26.1121 1120.37 26.1121 Q1128.63 26.1121 1133.77 32.6746 Q1138.96 39.2371 1138.96 49.9314 Q1138.96 60.6258 1133.77 67.1883 Q1128.63 73.7508 1120.37 73.7508 Q1115.38 73.7508 1111.78 71.8063 Q1108.21 69.8214 1105.86 65.7705 L1105.86 72.576 L1098.37 72.576 L1098.37 9.54393 L1105.86 9.54393 L1105.86 34.0924 Z" fill="#000000" fill-rule="nonzero" fill-opacity="1"></path><path clip-path="url(#clip170)" d="M1183.88 49.9314 Q1183.88 41.7081 1180.48 37.0496 Q1177.12 32.3505 1171.2 32.3505 Q1165.29 32.3505 1161.89 37.0496 Q1158.53 41.7081 1158.53 49.9314 Q1158.53 58.1548 1161.89 62.8538 Q1165.29 67.5124 1171.2 67.5124 Q1177.12 67.5124 1180.48 62.8538 Q1183.88 58.1548 1183.88 49.9314 M1158.53 34.0924 Q1160.87 30.0415 1164.44 28.0971 Q1168.04 26.1121 1173.03 26.1121 Q1181.29 26.1121 1186.44 32.6746 Q1191.62 39.2371 1191.62 49.9314 Q1191.62 60.6258 1186.44 67.1883 Q1181.29 73.7508 1173.03 73.7508 Q1168.04 73.7508 1164.44 71.8063 Q1160.87 69.8214 1158.53 65.7705 L1158.53 72.576 L1151.03 72.576 L1151.03 9.54393 L1158.53 9.54393 L1158.53 34.0924 Z" fill="#000000" fill-rule="nonzero" fill-opacity="1"></path><path clip-path="url(#clip170)" d="M1232.9 28.5427 L1232.9 35.5912 Q1229.74 33.9709 1226.34 33.1607 Q1222.93 32.3505 1219.29 32.3505 Q1213.74 32.3505 1210.94 34.0519 Q1208.19 35.7533 1208.19 39.156 Q1208.19 41.7486 1210.17 43.2475 Q1212.16 44.7058 1218.15 46.0426 L1220.71 46.6097 Q1228.65 48.3111 1231.97 51.4303 Q1235.33 54.509 1235.33 60.0587 Q1235.33 66.3781 1230.31 70.0644 Q1225.32 73.7508 1216.57 73.7508 Q1212.93 73.7508 1208.96 73.0216 Q1205.03 72.3329 1200.65 70.9151 L1200.65 63.2184 Q1204.79 65.3654 1208.8 66.4591 Q1212.81 67.5124 1216.74 67.5124 Q1222 67.5124 1224.84 65.73 Q1227.67 63.9071 1227.67 60.6258 Q1227.67 57.5877 1225.61 55.9673 Q1223.58 54.3469 1216.66 52.8481 L1214.06 52.2405 Q1207.14 50.7821 1204.06 47.7845 Q1200.98 44.7463 1200.98 39.4801 Q1200.98 33.0797 1205.52 29.5959 Q1210.05 26.1121 1218.4 26.1121 Q1222.53 26.1121 1226.18 26.7198 Q1229.82 27.3274 1232.9 28.5427 Z" fill="#000000" fill-rule="nonzero" fill-opacity="1"></path><path clip-path="url(#clip170)" d="M1302.49 28.5427 L1302.49 35.5912 Q1299.33 33.9709 1295.93 33.1607 Q1292.53 32.3505 1288.88 32.3505 Q1283.33 32.3505 1280.54 34.0519 Q1277.78 35.7533 1277.78 39.156 Q1277.78 41.7486 1279.77 43.2475 Q1281.75 44.7058 1287.75 46.0426 L1290.3 46.6097 Q1298.24 48.3111 1301.56 51.4303 Q1304.92 54.509 1304.92 60.0587 Q1304.92 66.3781 1299.9 70.0644 Q1294.92 73.7508 1286.17 73.7508 Q1282.52 73.7508 1278.55 73.0216 Q1274.62 72.3329 1270.25 70.9151 L1270.25 63.2184 Q1274.38 65.3654 1278.39 66.4591 Q1282.4 67.5124 1286.33 67.5124 Q1291.6 67.5124 1294.43 65.73 Q1297.27 63.9071 1297.27 60.6258 Q1297.27 57.5877 1295.2 55.9673 Q1293.18 54.3469 1286.25 52.8481 L1283.66 52.2405 Q1276.73 50.7821 1273.65 47.7845 Q1270.57 44.7463 1270.57 39.4801 Q1270.57 33.0797 1275.11 29.5959 Q1279.65 26.1121 1287.99 26.1121 Q1292.12 26.1121 1295.77 26.7198 Q1299.42 27.3274 1302.49 28.5427 Z" fill="#000000" fill-rule="nonzero" fill-opacity="1"></path><path clip-path="url(#clip170)" d="M1324.17 14.324 L1324.17 27.2059 L1339.52 27.2059 L1339.52 32.9987 L1324.17 32.9987 L1324.17 57.6282 Q1324.17 63.1779 1325.67 64.7578 Q1327.2 66.3376 1331.86 66.3376 L1339.52 66.3376 L1339.52 72.576 L1331.86 72.576 Q1323.24 72.576 1319.95 69.3758 Q1316.67 66.1351 1316.67 57.6282 L1316.67 32.9987 L1311.2 32.9987 L1311.2 27.2059 L1316.67 27.2059 L1316.67 14.324 L1324.17 14.324 Z" fill="#000000" fill-rule="nonzero" fill-opacity="1"></path><path clip-path="url(#clip170)" d="M1369.94 49.7694 Q1360.91 49.7694 1357.42 51.8354 Q1353.94 53.9013 1353.94 58.8839 Q1353.94 62.8538 1356.53 65.2034 Q1359.17 67.5124 1363.66 67.5124 Q1369.86 67.5124 1373.59 63.1374 Q1377.36 58.7219 1377.36 51.4303 L1377.36 49.7694 L1369.94 49.7694 M1384.81 46.6907 L1384.81 72.576 L1377.36 72.576 L1377.36 65.6895 Q1374.8 69.8214 1371 71.8063 Q1367.19 73.7508 1361.68 73.7508 Q1354.71 73.7508 1350.58 69.8619 Q1346.49 65.9325 1346.49 59.3701 Q1346.49 51.7138 1351.59 47.825 Q1356.74 43.9361 1366.9 43.9361 L1377.36 43.9361 L1377.36 43.2069 Q1377.36 38.0623 1373.95 35.2672 Q1370.59 32.4315 1364.47 32.4315 Q1360.58 32.4315 1356.9 33.3632 Q1353.21 34.295 1349.81 36.1584 L1349.81 29.2718 Q1353.9 27.692 1357.75 26.9223 Q1361.6 26.1121 1365.24 26.1121 Q1375.09 26.1121 1379.95 31.2163 Q1384.81 36.3204 1384.81 46.6907 Z" fill="#000000" fill-rule="nonzero" fill-opacity="1"></path><path clip-path="url(#clip170)" d="M1407.53 14.324 L1407.53 27.2059 L1422.89 27.2059 L1422.89 32.9987 L1407.53 32.9987 L1407.53 57.6282 Q1407.53 63.1779 1409.03 64.7578 Q1410.57 66.3376 1415.23 66.3376 L1422.89 66.3376 L1422.89 72.576 L1415.23 72.576 Q1406.6 72.576 1403.32 69.3758 Q1400.04 66.1351 1400.04 57.6282 L1400.04 32.9987 L1394.57 32.9987 L1394.57 27.2059 L1400.04 27.2059 L1400.04 14.324 L1407.53 14.324 Z" fill="#000000" fill-rule="nonzero" fill-opacity="1"></path><path clip-path="url(#clip170)" d="M1471.5 48.0275 L1471.5 51.6733 L1437.23 51.6733 Q1437.71 59.3701 1441.85 63.421 Q1446.02 67.4314 1453.43 67.4314 Q1457.73 67.4314 1461.74 66.3781 Q1465.79 65.3249 1469.76 63.2184 L1469.76 70.267 Q1465.75 71.9684 1461.53 72.8596 Q1457.32 73.7508 1452.99 73.7508 Q1442.13 73.7508 1435.77 67.4314 Q1429.45 61.1119 1429.45 50.3365 Q1429.45 39.1965 1435.45 32.6746 Q1441.48 26.1121 1451.69 26.1121 Q1460.84 26.1121 1466.15 32.0264 Q1471.5 37.9003 1471.5 48.0275 M1464.04 45.84 Q1463.96 39.7232 1460.6 36.0774 Q1457.28 32.4315 1451.77 32.4315 Q1445.53 32.4315 1441.76 35.9558 Q1438.04 39.4801 1437.47 45.8805 L1464.04 45.84 Z" fill="#000000" fill-rule="nonzero" fill-opacity="1"></path><path clip-path="url(#clip170)" d="M1485.64 62.2867 L1494.18 62.2867 L1494.18 69.2543 L1487.54 82.2172 L1482.31 82.2172 L1485.64 69.2543 L1485.64 62.2867 Z" fill="#000000" fill-rule="nonzero" fill-opacity="1"></path><path clip-path="url(#clip170)" d="M1560.01 19.2256 L1539.35 51.5113 L1560.01 51.5113 L1560.01 19.2256 M1557.86 12.096 L1568.15 12.096 L1568.15 51.5113 L1576.78 51.5113 L1576.78 58.3168 L1568.15 58.3168 L1568.15 72.576 L1560.01 72.576 L1560.01 58.3168 L1532.71 58.3168 L1532.71 50.4176 L1557.86 12.096 Z" fill="#000000" fill-rule="nonzero" fill-opacity="1"></path><path clip-path="url(#clip170)" d="M1602.5 12.096 L1609.39 12.096 L1588.33 80.2727 L1581.44 80.2727 L1602.5 12.096 Z" fill="#000000" fill-rule="nonzero" fill-opacity="1"></path><path clip-path="url(#clip170)" d="M1635.76 43.8551 Q1629.93 43.8551 1626.57 46.9743 Q1623.25 50.0935 1623.25 55.5622 Q1623.25 61.0309 1626.57 64.1501 Q1629.93 67.2693 1635.76 67.2693 Q1641.6 67.2693 1644.96 64.1501 Q1648.32 60.9904 1648.32 55.5622 Q1648.32 50.0935 1644.96 46.9743 Q1641.64 43.8551 1635.76 43.8551 M1627.58 40.3713 Q1622.31 39.075 1619.36 35.4697 Q1616.44 31.8644 1616.44 26.6793 Q1616.44 19.4281 1621.58 15.2152 Q1626.77 11.0023 1635.76 11.0023 Q1644.8 11.0023 1649.94 15.2152 Q1655.09 19.4281 1655.09 26.6793 Q1655.09 31.8644 1652.13 35.4697 Q1649.21 39.075 1643.99 40.3713 Q1649.9 41.7486 1653.18 45.759 Q1656.5 49.7694 1656.5 55.5622 Q1656.5 64.3527 1651.12 69.0517 Q1645.77 73.7508 1635.76 73.7508 Q1625.76 73.7508 1620.37 69.0517 Q1615.02 64.3527 1615.02 55.5622 Q1615.02 49.7694 1618.34 45.759 Q1621.67 41.7486 1627.58 40.3713 M1624.58 27.4489 Q1624.58 32.148 1627.5 34.7811 Q1630.46 37.4142 1635.76 37.4142 Q1641.03 37.4142 1643.99 34.7811 Q1646.98 32.148 1646.98 27.4489 Q1646.98 22.7499 1643.99 20.1168 Q1641.03 17.4837 1635.76 17.4837 Q1630.46 17.4837 1627.5 20.1168 Q1624.58 22.7499 1624.58 27.4489 Z" fill="#000000" fill-rule="nonzero" fill-opacity="1"></path><path clip-path="url(#clip170)" d="M1666.23 46.5287 L1688.06 46.5287 L1688.06 53.1722 L1666.23 53.1722 L1666.23 46.5287 Z" fill="#000000" fill-rule="nonzero" fill-opacity="1"></path><path clip-path="url(#clip170)" d="M1700.25 12.096 L1708.44 12.096 L1708.44 36.8875 L1738.17 36.8875 L1738.17 12.096 L1746.35 12.096 L1746.35 72.576 L1738.17 72.576 L1738.17 43.7741 L1708.44 43.7741 L1708.44 72.576 L1700.25 72.576 L1700.25 12.096 Z" fill="#000000" fill-rule="nonzero" fill-opacity="1"></path><path clip-path="url(#clip170)" d="M1801.12 48.0275 L1801.12 51.6733 L1766.85 51.6733 Q1767.34 59.3701 1771.47 63.421 Q1775.64 67.4314 1783.05 67.4314 Q1787.35 67.4314 1791.36 66.3781 Q1795.41 65.3249 1799.38 63.2184 L1799.38 70.267 Q1795.37 71.9684 1791.16 72.8596 Q1786.94 73.7508 1782.61 73.7508 Q1771.75 73.7508 1765.39 67.4314 Q1759.07 61.1119 1759.07 50.3365 Q1759.07 39.1965 1765.07 32.6746 Q1771.1 26.1121 1781.31 26.1121 Q1790.47 26.1121 1795.77 32.0264 Q1801.12 37.9003 1801.12 48.0275 M1793.67 45.84 Q1793.59 39.7232 1790.22 36.0774 Q1786.9 32.4315 1781.39 32.4315 Q1775.15 32.4315 1771.39 35.9558 Q1767.66 39.4801 1767.09 45.8805 L1793.67 45.84 Z" fill="#000000" fill-rule="nonzero" fill-opacity="1"></path><path clip-path="url(#clip170)" d="M1813.35 27.2059 L1820.81 27.2059 L1820.81 72.576 L1813.35 72.576 L1813.35 27.2059 M1813.35 9.54393 L1820.81 9.54393 L1820.81 18.9825 L1813.35 18.9825 L1813.35 9.54393 Z" fill="#000000" fill-rule="nonzero" fill-opacity="1"></path><path clip-path="url(#clip170)" d="M1865.33 28.5427 L1865.33 35.5912 Q1862.17 33.9709 1858.76 33.1607 Q1855.36 32.3505 1851.72 32.3505 Q1846.17 32.3505 1843.37 34.0519 Q1840.62 35.7533 1840.62 39.156 Q1840.62 41.7486 1842.6 43.2475 Q1844.59 44.7058 1850.58 46.0426 L1853.13 46.6097 Q1861.07 48.3111 1864.4 51.4303 Q1867.76 54.509 1867.76 60.0587 Q1867.76 66.3781 1862.73 70.0644 Q1857.75 73.7508 1849 73.7508 Q1845.36 73.7508 1841.39 73.0216 Q1837.46 72.3329 1833.08 70.9151 L1833.08 63.2184 Q1837.21 65.3654 1841.22 66.4591 Q1845.23 67.5124 1849.16 67.5124 Q1854.43 67.5124 1857.27 65.73 Q1860.1 63.9071 1860.1 60.6258 Q1860.1 57.5877 1858.04 55.9673 Q1856.01 54.3469 1849.08 52.8481 L1846.49 52.2405 Q1839.56 50.7821 1836.48 47.7845 Q1833.41 44.7463 1833.41 39.4801 Q1833.41 33.0797 1837.94 29.5959 Q1842.48 26.1121 1850.82 26.1121 Q1854.96 26.1121 1858.6 26.7198 Q1862.25 27.3274 1865.33 28.5427 Z" fill="#000000" fill-rule="nonzero" fill-opacity="1"></path><path clip-path="url(#clip170)" d="M1918.43 48.0275 L1918.43 51.6733 L1884.16 51.6733 Q1884.65 59.3701 1888.78 63.421 Q1892.95 67.4314 1900.37 67.4314 Q1904.66 67.4314 1908.67 66.3781 Q1912.72 65.3249 1916.69 63.2184 L1916.69 70.267 Q1912.68 71.9684 1908.47 72.8596 Q1904.26 73.7508 1899.92 73.7508 Q1889.07 73.7508 1882.71 67.4314 Q1876.39 61.1119 1876.39 50.3365 Q1876.39 39.1965 1882.38 32.6746 Q1888.42 26.1121 1898.63 26.1121 Q1907.78 26.1121 1913.09 32.0264 Q1918.43 37.9003 1918.43 48.0275 M1910.98 45.84 Q1910.9 39.7232 1907.54 36.0774 Q1904.22 32.4315 1898.71 32.4315 Q1892.47 32.4315 1888.7 35.9558 Q1884.97 39.4801 1884.41 45.8805 L1910.98 45.84 Z" fill="#000000" fill-rule="nonzero" fill-opacity="1"></path><path clip-path="url(#clip170)" d="M1968.38 45.1919 L1968.38 72.576 L1960.93 72.576 L1960.93 45.4349 Q1960.93 38.994 1958.42 35.7938 Q1955.91 32.5936 1950.88 32.5936 Q1944.85 32.5936 1941.36 36.4419 Q1937.88 40.2903 1937.88 46.9338 L1937.88 72.576 L1930.38 72.576 L1930.38 27.2059 L1937.88 27.2059 L1937.88 34.2544 Q1940.55 30.163 1944.16 28.1376 Q1947.8 26.1121 1952.54 26.1121 Q1960.36 26.1121 1964.37 30.9732 Q1968.38 35.7938 1968.38 45.1919 Z" fill="#000000" fill-rule="nonzero" fill-opacity="1"></path><path clip-path="url(#clip170)" d="M2015.82 49.9314 Q2015.82 41.7081 2012.42 37.0496 Q2009.05 32.3505 2003.14 32.3505 Q1997.22 32.3505 1993.82 37.0496 Q1990.46 41.7081 1990.46 49.9314 Q1990.46 58.1548 1993.82 62.8538 Q1997.22 67.5124 2003.14 67.5124 Q2009.05 67.5124 2012.42 62.8538 Q2015.82 58.1548 2015.82 49.9314 M1990.46 34.0924 Q1992.81 30.0415 1996.37 28.0971 Q1999.98 26.1121 2004.96 26.1121 Q2013.23 26.1121 2018.37 32.6746 Q2023.56 39.2371 2023.56 49.9314 Q2023.56 60.6258 2018.37 67.1883 Q2013.23 73.7508 2004.96 73.7508 Q1999.98 73.7508 1996.37 71.8063 Q1992.81 69.8214 1990.46 65.7705 L1990.46 72.576 L1982.97 72.576 L1982.97 9.54393 L1990.46 9.54393 L1990.46 34.0924 Z" fill="#000000" fill-rule="nonzero" fill-opacity="1"></path><path clip-path="url(#clip170)" d="M2074.72 48.0275 L2074.72 51.6733 L2040.45 51.6733 Q2040.93 59.3701 2045.07 63.421 Q2049.24 67.4314 2056.65 67.4314 Q2060.95 67.4314 2064.96 66.3781 Q2069.01 65.3249 2072.98 63.2184 L2072.98 70.267 Q2068.97 71.9684 2064.75 72.8596 Q2060.54 73.7508 2056.21 73.7508 Q2045.35 73.7508 2038.99 67.4314 Q2032.67 61.1119 2032.67 50.3365 Q2032.67 39.1965 2038.67 32.6746 Q2044.7 26.1121 2054.91 26.1121 Q2064.06 26.1121 2069.37 32.0264 Q2074.72 37.9003 2074.72 48.0275 M2067.26 45.84 Q2067.18 39.7232 2063.82 36.0774 Q2060.5 32.4315 2054.99 32.4315 Q2048.75 32.4315 2044.98 35.9558 Q2041.26 39.4801 2040.69 45.8805 L2067.26 45.84 Z" fill="#000000" fill-rule="nonzero" fill-opacity="1"></path><path clip-path="url(#clip170)" d="M2113.24 34.1734 Q2111.99 33.4443 2110.49 33.1202 Q2109.03 32.7556 2107.25 32.7556 Q2100.93 32.7556 2097.52 36.8875 Q2094.16 40.9789 2094.16 48.6757 L2094.16 72.576 L2086.67 72.576 L2086.67 27.2059 L2094.16 27.2059 L2094.16 34.2544 Q2096.51 30.1225 2100.28 28.1376 Q2104.05 26.1121 2109.43 26.1121 Q2110.2 26.1121 2111.14 26.2337 Q2112.07 26.3147 2113.2 26.5172 L2113.24 34.1734 Z" fill="#000000" fill-rule="nonzero" fill-opacity="1"></path><path clip-path="url(#clip170)" d="M2149.46 49.3643 Q2149.46 41.2625 2146.1 36.8065 Q2142.77 32.3505 2136.74 32.3505 Q2130.74 32.3505 2127.38 36.8065 Q2124.06 41.2625 2124.06 49.3643 Q2124.06 57.4256 2127.38 61.8816 Q2130.74 66.3376 2136.74 66.3376 Q2142.77 66.3376 2146.1 61.8816 Q2149.46 57.4256 2149.46 49.3643 M2156.91 66.9452 Q2156.91 78.5308 2151.77 84.1616 Q2146.62 89.8329 2136.01 89.8329 Q2132.08 89.8329 2128.6 89.2252 Q2125.11 88.6581 2121.83 87.4428 L2121.83 80.1917 Q2125.11 81.9741 2128.31 82.8248 Q2131.51 83.6755 2134.83 83.6755 Q2142.17 83.6755 2145.81 79.8271 Q2149.46 76.0193 2149.46 68.282 L2149.46 64.5957 Q2147.15 68.6061 2143.54 70.5911 Q2139.94 72.576 2134.91 72.576 Q2126.57 72.576 2121.47 66.2161 Q2116.36 59.8562 2116.36 49.3643 Q2116.36 38.832 2121.47 32.472 Q2126.57 26.1121 2134.91 26.1121 Q2139.94 26.1121 2143.54 28.0971 Q2147.15 30.082 2149.46 34.0924 L2149.46 27.2059 L2156.91 27.2059 L2156.91 66.9452 Z" fill="#000000" fill-rule="nonzero" fill-opacity="1"></path><path clip-path="url(#clip170)" d="M2168.5 46.5287 L2190.33 46.5287 L2190.33 53.1722 L2168.5 53.1722 L2168.5 46.5287 Z" fill="#000000" fill-rule="nonzero" fill-opacity="1"></path><path clip-path="url(#clip170)" d="M2199.04 12.096 L2246.56 12.096 L2246.56 18.3344 L2208.32 65.6895 L2247.49 65.6895 L2247.49 72.576 L2198.11 72.576 L2198.11 66.3376 L2236.35 18.9825 L2199.04 18.9825 L2199.04 12.096 Z" fill="#000000" fill-rule="nonzero" fill-opacity="1"></path><polyline clip-path="url(#clip172)" style="stroke:#800080; stroke-linecap:round; stroke-linejoin:round; stroke-width:4; stroke-opacity:1; fill:none" points="280.231,205.234 305.383,318.051 330.535,430.347 355.687,522.161 380.839,532.637 405.991,586.748 431.143,616.491 456.295,657.15 481.447,757.733 506.599,778.461 531.751,850.524 556.903,888.63 582.055,948.675 607.207,1011.15 632.359,1043.87 657.511,1066.57 682.663,1076.28 707.815,1096.1 732.967,1118.23 758.119,1135.97 783.271,1144.6 808.423,1162.7 833.575,1174.53 858.727,1189.29 883.879,1194.61 909.031,1226.84 934.183,1243.82 959.335,1249.01 984.487,1260.22 1009.64,1269.4 1034.79,1277.56 1059.94,1286.93 1085.1,1294.25 1110.25,1296.91 1135.4,1302.67 1160.55,1308.81 1185.7,1313.81 1210.86,1319.93 1236.01,1325.03 1261.16,1329.63 1286.31,1331.65 1311.46,1336.69 1336.62,1340.79 1361.77,1351.1 1386.92,1358.8 1412.07,1362.08 1437.22,1365.55 1462.38,1368.52 1487.53,1370.93 1512.68,1372.5 1537.83,1378.42 1562.98,1379.22 1588.14,1381.14 1613.29,1382.77 1638.44,1384.18 1663.59,1385.27 1688.74,1387.51 1713.9,1388.14 1739.05,1388.72 1764.2,1389.26 1789.35,1392.17 1814.5,1394.03 1839.66,1395.47 1864.81,1397.27 1889.96,1397.75 1915.11,1398.97 1940.26,1399.84 1965.42,1400.4 1990.57,1401.2 2015.72,1404.6 2040.87,1405.47 2066.02,1405.92 2091.18,1408.28 2116.33,1410.05 2141.48,1410.39 2166.63,1411.6 2191.78,1411.71 2216.94,1412 2242.09,1412.9 2267.24,1413.45 2292.39,1413.47 "></polyline>
<polyline clip-path="url(#clip172)" style="stroke:#e26f46; stroke-linecap:round; stroke-linejoin:round; stroke-width:4; stroke-opacity:1; fill:none" points="280.231,209.896 305.383,327.091 330.535,435.184 355.687,521.595 380.839,532.457 405.991,583.799 431.143,617.164 456.295,657.746 481.447,748.936 506.599,775.243 531.751,845.504 556.903,880.996 582.055,940.956 607.207,999.227 632.359,1031.06 657.511,1053.76 682.663,1063.35 707.815,1083.28 732.967,1106.11 758.119,1121.77 783.271,1129.46 808.423,1144.46 833.575,1155.31 858.727,1167.24 883.879,1172.41 909.031,1200.38 934.183,1217.95 959.335,1222.18 984.487,1234.39 1009.64,1243.99 1034.79,1251.2 1059.94,1260.55 1085.1,1266.05 1110.25,1267.87 1135.4,1272.11 1160.55,1277.46 1185.7,1281.63 1210.86,1288.28 1236.01,1293.64 1261.16,1297.26 1286.31,1298.4 1311.46,1303.27 1336.62,1306.01 1361.77,1312.76 1386.92,1317.89 1412.07,1320.18 1437.22,1323.15 1462.38,1324.57 1487.53,1326.62 1512.68,1328.2 1537.83,1329.63 1562.98,1329.69 1588.14,1330.34 1613.29,1330.85 1638.44,1331.25 1663.59,1331.23 1688.74,1332.54 1713.9,1332.56 1739.05,1332.59 1764.2,1332.63 1789.35,1332.59 1814.5,1332.35 1839.66,1331.84 1864.81,1332.56 1889.96,1332.32 1915.11,1332.82 1940.26,1333.17 1965.42,1333.42 1990.57,1333.49 2015.72,1334.01 2040.87,1334.31 2066.02,1334.48 2091.18,1334.61 2116.33,1334.63 2141.48,1334.58 2166.63,1334.54 2191.78,1334.39 2216.94,1334.03 2242.09,1334.03 2267.24,1333.98 2292.39,1333.87 "></polyline>
<polyline clip-path="url(#clip172)" style="stroke:#3da44d; stroke-linecap:round; stroke-linejoin:round; stroke-width:4; stroke-opacity:1; fill:none" points="280.231,214.759 305.383,330.175 330.535,433.946 355.687,511.487 380.839,522.451 405.991,570.887 431.143,606.241 456.295,645.936 481.447,733.962 506.599,767.425 531.751,832.959 556.903,865.513 582.055,920.854 607.207,972.148 632.359,1003.45 657.511,1019.51 682.663,1027.28 707.815,1041.61 732.967,1064.48 758.119,1077.61 783.271,1083.88 808.423,1097.04 833.575,1105.66 858.727,1116.62 883.879,1120.16 909.031,1147.58 934.183,1166.06 959.335,1169.2 984.487,1182.85 1009.64,1193.47 1034.79,1199.07 1059.94,1208.03 1085.1,1212.42 1110.25,1213.2 1135.4,1216.22 1160.55,1220.55 1185.7,1223.75 1210.86,1230.05 1236.01,1234.82 1261.16,1237.46 1286.31,1237.64 1311.46,1240.88 1336.62,1242.31 1361.77,1245.41 1386.92,1246.53 1412.07,1247.9 1437.22,1249.65 1462.38,1250.13 1487.53,1251.54 1512.68,1252.54 1537.83,1252.38 1562.98,1252.02 1588.14,1251.99 1613.29,1251.86 1638.44,1251.69 1663.59,1251.2 1688.74,1251.92 1713.9,1251.63 1739.05,1251.39 1764.2,1251.18 1789.35,1250.3 1814.5,1249.37 1839.66,1248.33 1864.81,1248.7 1889.96,1248.24 1915.11,1248.53 1940.26,1248.7 1965.42,1248.79 1990.57,1248.68 2015.72,1248.72 2040.87,1248.85 2066.02,1248.93 2091.18,1248.74 2116.33,1248.51 2141.48,1248.36 2166.63,1248.13 2191.78,1247.87 2216.94,1247.28 2242.09,1247.15 2267.24,1246.98 2292.39,1246.77 "></polyline>
<polyline clip-path="url(#clip172)" style="stroke:#c271d2; stroke-linecap:round; stroke-linejoin:round; stroke-width:4; stroke-opacity:1; fill:none" points="280.231,219.159 305.383,329.05 330.535,428.135 355.687,499.513 380.839,511.762 405.991,558.558 431.143,593.415 456.295,628.895 481.447,714.371 506.599,753.612 531.751,807.901 556.903,838.504 582.055,884.362 607.207,930.115 632.359,960.939 657.511,975.948 682.663,981.925 707.815,994.563 732.967,1017.85 758.119,1028.74 783.271,1033.99 808.423,1046.27 833.575,1054.25 858.727,1063.9 883.879,1066.8 909.031,1093.03 934.183,1110.51 959.335,1112.44 984.487,1125.84 1009.64,1135.71 1034.79,1140.49 1059.94,1147.07 1085.1,1150.02 1110.25,1149.92 1135.4,1151.03 1160.55,1154.67 1185.7,1157.2 1210.86,1162.54 1236.01,1166.61 1261.16,1168.49 1286.31,1168.14 1311.46,1170.71 1336.62,1171.58 1361.77,1173.08 1386.92,1173.05 1412.07,1173.95 1437.22,1175.21 1462.38,1175.26 1487.53,1176.34 1512.68,1177.06 1537.83,1176.07 1562.98,1175.41 1588.14,1175.03 1613.29,1174.6 1638.44,1174.14 1663.59,1173.35 1688.74,1173.73 1713.9,1173.2 1739.05,1172.75 1764.2,1172.35 1789.35,1170.93 1814.5,1169.53 1839.66,1168.07 1864.81,1168.22 1889.96,1167.55 1915.11,1167.67 1940.26,1167.7 1965.42,1167.66 1990.57,1167.39 2015.72,1167.14 2040.87,1167.11 2066.02,1167.09 2091.18,1166.66 2116.33,1166.23 2141.48,1165.97 2166.63,1165.57 2191.78,1165.16 2216.94,1164.33 2242.09,1164.07 2267.24,1163.77 2292.39,1163.44 "></polyline>
<path clip-path="url(#clip170)" d="M1931.82 425.996 L2281.66 425.996 L2281.66 166.796 L1931.82 166.796  Z" fill="#ffffff" fill-rule="evenodd" fill-opacity="1"></path>
<polyline clip-path="url(#clip170)" style="stroke:#000000; stroke-linecap:round; stroke-linejoin:round; stroke-width:4; stroke-opacity:1; fill:none" points="1931.82,425.996 2281.66,425.996 2281.66,166.796 1931.82,166.796 1931.82,425.996 "></polyline>
<polyline clip-path="url(#clip170)" style="stroke:#800080; stroke-linecap:round; stroke-linejoin:round; stroke-width:4; stroke-opacity:1; fill:none" points="1955.52,218.636 2097.71,218.636 "></polyline>
<path clip-path="url(#clip170)" d="M2125.69 234.319 L2125.69 245.777 L2121.41 245.777 L2121.41 210.152 Q2121.41 199.596 2131.27 199.596 Q2141.32 199.596 2141.32 208.508 Q2141.32 214.851 2137.34 217.166 Q2143.82 219.249 2143.82 225.43 Q2143.82 236.402 2132.66 236.402 Q2127.75 236.402 2125.69 234.319 M2125.69 228.763 Q2128.26 232.768 2132.82 232.768 Q2139.49 232.768 2139.49 225.499 Q2139.49 218.971 2128.75 219.481 L2128.75 215.545 Q2137.15 215.545 2137.15 208.138 Q2137.15 203.069 2131.73 203.069 Q2125.69 203.069 2125.69 210.291 L2125.69 228.763 Z" fill="#000000" fill-rule="nonzero" fill-opacity="1"></path><path clip-path="url(#clip170)" d="M2152.24 214.388 L2181.92 214.388 L2181.92 218.277 L2152.24 218.277 L2152.24 214.388 M2152.24 223.832 L2181.92 223.832 L2181.92 227.768 L2152.24 227.768 L2152.24 223.832 Z" fill="#000000" fill-rule="nonzero" fill-opacity="1"></path><path clip-path="url(#clip170)" d="M2202.01 204.434 Q2198.4 204.434 2196.57 207.999 Q2194.77 211.541 2194.77 218.67 Q2194.77 225.777 2196.57 229.342 Q2198.4 232.883 2202.01 232.883 Q2205.65 232.883 2207.45 229.342 Q2209.28 225.777 2209.28 218.67 Q2209.28 211.541 2207.45 207.999 Q2205.65 204.434 2202.01 204.434 M2202.01 200.731 Q2207.82 200.731 2210.88 205.337 Q2213.96 209.92 2213.96 218.67 Q2213.96 227.397 2210.88 232.004 Q2207.82 236.587 2202.01 236.587 Q2196.2 236.587 2193.12 232.004 Q2190.07 227.397 2190.07 218.67 Q2190.07 209.92 2193.12 205.337 Q2196.2 200.731 2202.01 200.731 Z" fill="#000000" fill-rule="nonzero" fill-opacity="1"></path><path clip-path="url(#clip170)" d="M2222.17 230.036 L2227.06 230.036 L2227.06 235.916 L2222.17 235.916 L2222.17 230.036 Z" fill="#000000" fill-rule="nonzero" fill-opacity="1"></path><path clip-path="url(#clip170)" d="M2238.05 231.981 L2245.69 231.981 L2245.69 205.615 L2237.38 207.282 L2237.38 203.022 L2245.65 201.356 L2250.32 201.356 L2250.32 231.981 L2257.96 231.981 L2257.96 235.916 L2238.05 235.916 L2238.05 231.981 Z" fill="#000000" fill-rule="nonzero" fill-opacity="1"></path><polyline clip-path="url(#clip170)" style="stroke:#e26f46; stroke-linecap:round; stroke-linejoin:round; stroke-width:4; stroke-opacity:1; fill:none" points="1955.52,270.476 2097.71,270.476 "></polyline>
<path clip-path="url(#clip170)" d="M2125.69 286.159 L2125.69 297.617 L2121.41 297.617 L2121.41 261.992 Q2121.41 251.436 2131.27 251.436 Q2141.32 251.436 2141.32 260.348 Q2141.32 266.691 2137.34 269.006 Q2143.82 271.089 2143.82 277.27 Q2143.82 288.242 2132.66 288.242 Q2127.75 288.242 2125.69 286.159 M2125.69 280.603 Q2128.26 284.608 2132.82 284.608 Q2139.49 284.608 2139.49 277.339 Q2139.49 270.811 2128.75 271.321 L2128.75 267.385 Q2137.15 267.385 2137.15 259.978 Q2137.15 254.909 2131.73 254.909 Q2125.69 254.909 2125.69 262.131 L2125.69 280.603 Z" fill="#000000" fill-rule="nonzero" fill-opacity="1"></path><path clip-path="url(#clip170)" d="M2152.24 266.228 L2181.92 266.228 L2181.92 270.117 L2152.24 270.117 L2152.24 266.228 M2152.24 275.672 L2181.92 275.672 L2181.92 279.608 L2152.24 279.608 L2152.24 275.672 Z" fill="#000000" fill-rule="nonzero" fill-opacity="1"></path><path clip-path="url(#clip170)" d="M2192.82 283.821 L2200.46 283.821 L2200.46 257.455 L2192.15 259.122 L2192.15 254.862 L2200.41 253.196 L2205.09 253.196 L2205.09 283.821 L2212.73 283.821 L2212.73 287.756 L2192.82 287.756 L2192.82 283.821 Z" fill="#000000" fill-rule="nonzero" fill-opacity="1"></path><polyline clip-path="url(#clip170)" style="stroke:#3da44d; stroke-linecap:round; stroke-linejoin:round; stroke-width:4; stroke-opacity:1; fill:none" points="1955.52,322.316 2097.71,322.316 "></polyline>
<path clip-path="url(#clip170)" d="M2125.69 337.999 L2125.69 349.457 L2121.41 349.457 L2121.41 313.832 Q2121.41 303.276 2131.27 303.276 Q2141.32 303.276 2141.32 312.188 Q2141.32 318.531 2137.34 320.846 Q2143.82 322.929 2143.82 329.11 Q2143.82 340.082 2132.66 340.082 Q2127.75 340.082 2125.69 337.999 M2125.69 332.443 Q2128.26 336.448 2132.82 336.448 Q2139.49 336.448 2139.49 329.179 Q2139.49 322.651 2128.75 323.161 L2128.75 319.225 Q2137.15 319.225 2137.15 311.818 Q2137.15 306.749 2131.73 306.749 Q2125.69 306.749 2125.69 313.971 L2125.69 332.443 Z" fill="#000000" fill-rule="nonzero" fill-opacity="1"></path><path clip-path="url(#clip170)" d="M2152.24 318.068 L2181.92 318.068 L2181.92 321.957 L2152.24 321.957 L2152.24 318.068 M2152.24 327.512 L2181.92 327.512 L2181.92 331.448 L2152.24 331.448 L2152.24 327.512 Z" fill="#000000" fill-rule="nonzero" fill-opacity="1"></path><path clip-path="url(#clip170)" d="M2196.04 335.661 L2212.36 335.661 L2212.36 339.596 L2190.41 339.596 L2190.41 335.661 Q2193.08 332.906 2197.66 328.276 Q2202.27 323.624 2203.45 322.281 Q2205.69 319.758 2206.57 318.022 Q2207.47 316.263 2207.47 314.573 Q2207.47 311.818 2205.53 310.082 Q2203.61 308.346 2200.51 308.346 Q2198.31 308.346 2195.85 309.11 Q2193.42 309.874 2190.65 311.425 L2190.65 306.702 Q2193.47 305.568 2195.92 304.989 Q2198.38 304.411 2200.41 304.411 Q2205.79 304.411 2208.98 307.096 Q2212.17 309.781 2212.17 314.272 Q2212.17 316.401 2211.36 318.323 Q2210.58 320.221 2208.47 322.813 Q2207.89 323.485 2204.79 326.702 Q2201.69 329.897 2196.04 335.661 Z" fill="#000000" fill-rule="nonzero" fill-opacity="1"></path><polyline clip-path="url(#clip170)" style="stroke:#c271d2; stroke-linecap:round; stroke-linejoin:round; stroke-width:4; stroke-opacity:1; fill:none" points="1955.52,374.156 2097.71,374.156 "></polyline>
<path clip-path="url(#clip170)" d="M2125.69 389.839 L2125.69 401.297 L2121.41 401.297 L2121.41 365.672 Q2121.41 355.116 2131.27 355.116 Q2141.32 355.116 2141.32 364.028 Q2141.32 370.371 2137.34 372.686 Q2143.82 374.769 2143.82 380.95 Q2143.82 391.922 2132.66 391.922 Q2127.75 391.922 2125.69 389.839 M2125.69 384.283 Q2128.26 388.288 2132.82 388.288 Q2139.49 388.288 2139.49 381.019 Q2139.49 374.491 2128.75 375.001 L2128.75 371.065 Q2137.15 371.065 2137.15 363.658 Q2137.15 358.589 2131.73 358.589 Q2125.69 358.589 2125.69 365.811 L2125.69 384.283 Z" fill="#000000" fill-rule="nonzero" fill-opacity="1"></path><path clip-path="url(#clip170)" d="M2152.24 369.908 L2181.92 369.908 L2181.92 373.797 L2152.24 373.797 L2152.24 369.908 M2152.24 379.352 L2181.92 379.352 L2181.92 383.288 L2152.24 383.288 L2152.24 379.352 Z" fill="#000000" fill-rule="nonzero" fill-opacity="1"></path><path clip-path="url(#clip170)" d="M2206.18 372.802 Q2209.54 373.519 2211.41 375.788 Q2213.31 378.056 2213.31 381.389 Q2213.31 386.505 2209.79 389.306 Q2206.27 392.107 2199.79 392.107 Q2197.61 392.107 2195.3 391.667 Q2193.01 391.251 2190.55 390.394 L2190.55 385.88 Q2192.5 387.014 2194.81 387.593 Q2197.13 388.172 2199.65 388.172 Q2204.05 388.172 2206.34 386.436 Q2208.66 384.7 2208.66 381.389 Q2208.66 378.334 2206.5 376.621 Q2204.37 374.885 2200.55 374.885 L2196.53 374.885 L2196.53 371.042 L2200.74 371.042 Q2204.19 371.042 2206.02 369.677 Q2207.85 368.288 2207.85 365.695 Q2207.85 363.033 2205.95 361.621 Q2204.07 360.186 2200.55 360.186 Q2198.63 360.186 2196.43 360.603 Q2194.23 361.019 2191.6 361.899 L2191.6 357.732 Q2194.26 356.991 2196.57 356.621 Q2198.91 356.251 2200.97 356.251 Q2206.29 356.251 2209.4 358.681 Q2212.5 361.089 2212.5 365.209 Q2212.5 368.079 2210.85 370.07 Q2209.21 372.038 2206.18 372.802 Z" fill="#000000" fill-rule="nonzero" fill-opacity="1"></path></svg>